<?xml version="1.0"?>
<svg xmlns="http://www.w3.org/2000/svg" viewBox="0 0 64 64" width="512" height="512"><title>Business-management-money-service</title><g id="FillOutline"><path d="M7,10V57H49V10a3,3,0,0,1,3-3H10A3,3,0,0,0,7,10Z" style="fill:#e6e6e6"/><path d="M55,17H49V10a3,3,0,0,1,3-3h0a3,3,0,0,1,3,3Z" style="fill:#0071bc"/><circle cx="46" cy="46" r="15" style="fill:#eeb83b"/><circle cx="46" cy="46" r="11" style="fill:#fed856"/><rect x="22" y="15" width="4" height="9" style="fill:#80caec"/><rect x="14" y="17" width="4" height="7" style="fill:#29abe2"/><rect x="30" y="12" width="4" height="12" style="fill:#29abe2"/><rect x="38" y="16" width="4" height="8" style="fill:#80caec"/><path d="M23.536,43.464A5,5,0,0,0,15,47h5Z" style="fill:#0071bc"/><path d="M23.536,43.464,20,47l3.536,3.536a5,5,0,0,0,0-7.072Z" style="fill:#29abe2"/><path d="M15,47a5,5,0,0,0,8.536,3.536L20,47Z" style="fill:#80caec"/><rect x="39" y="45" width="2" height="2"/><rect x="51" y="45" width="2" height="2"/><path d="M47,41.145V40H45v1.145a2.844,2.844,0,0,0-.422,5.262l1.949.974A.854.854,0,0,1,46.146,49h-.292A.855.855,0,0,1,45,48.146V48H43v.146a2.849,2.849,0,0,0,2,2.709V52h2V50.855a2.844,2.844,0,0,0,.422-5.262l-1.949-.974A.854.854,0,0,1,45.854,43h.292a.855.855,0,0,1,.854.854V44h2v-.146A2.849,2.849,0,0,0,47,41.145Z"/><path d="M50,30.527V18h5a1,1,0,0,0,1-1V10a4,4,0,0,0-4-4H10a4,4,0,0,0-4,4V57a1,1,0,0,0,1,1H35.453A15.983,15.983,0,1,0,50,30.527ZM54,10v6H50V10a2,2,0,0,1,4,0ZM8,10a2,2,0,0,1,2-2H48.556A3.959,3.959,0,0,0,48,10V30.139A15.974,15.974,0,0,0,33.53,56H8ZM46,60A14,14,0,1,1,60,46,14.015,14.015,0,0,1,46,60Z"/><path d="M46,34A12,12,0,1,0,58,46,12.013,12.013,0,0,0,46,34Zm0,22A10,10,0,1,1,56,46,10.011,10.011,0,0,1,46,56Z"/><path d="M45,23H43V16a1,1,0,0,0-1-1H38a1,1,0,0,0-1,1v7H35V12a1,1,0,0,0-1-1H30a1,1,0,0,0-1,1V23H27V15a1,1,0,0,0-1-1H22a1,1,0,0,0-1,1v8H19V17a1,1,0,0,0-1-1H14a1,1,0,0,0-1,1v6H11v2H45Zm-6-6h2v6H39Zm-8-4h2V23H31Zm-8,3h2v7H23Zm-8,2h2v5H15Z"/><rect x="11" y="28" width="2" height="2"/><rect x="15" y="28" width="23" height="2"/><rect x="11" y="32" width="21" height="2"/><rect x="11" y="36" width="19" height="2"/><path d="M26,47a5.961,5.961,0,0,0-1.115-3.471l.822-.822-1.414-1.414-.822.822A5.984,5.984,0,0,0,14.09,46H13v2h1.09a5.984,5.984,0,0,0,9.381,3.885l1.322,1.322,1.414-1.414-1.322-1.322A5.961,5.961,0,0,0,26,47Zm-2,0a3.947,3.947,0,0,1-.567,2.019L21.414,47l2.019-2.019A3.947,3.947,0,0,1,24,47Zm-4-4a3.947,3.947,0,0,1,2.019.567L19.586,46H16.142A4,4,0,0,1,20,43Zm0,8a4,4,0,0,1-3.858-3h3.444l2.433,2.433A3.947,3.947,0,0,1,20,51Z"/><rect x="9" y="60" width="20" height="2"/><rect x="2" y="14" width="2" height="26"/><rect x="2" y="42" width="2" height="2"/><rect x="30" y="2" width="21" height="2"/></g></svg>
