<?xml version="1.0" encoding="utf-8"?>
<!-- Generator: Adobe Illustrator 23.0.2, SVG Export Plug-In . SVG Version: 6.00 Build 0)  -->
<svg version="1.1" id="Layer_1" xmlns="http://www.w3.org/2000/svg" xmlns:xlink="http://www.w3.org/1999/xlink" x="0px" y="0px"
	 viewBox="0 0 1366 768" style="enable-background:new 0 0 1366 768;" xml:space="preserve">
<style type="text/css">
	.st0{clip-path:url(#SVGID_5_);}
	.st1{clip-path:url(#SVGID_6_);}
	.st2{fill-rule:evenodd;clip-rule:evenodd;}
	.st3{fill-rule:evenodd;clip-rule:evenodd;fill:#EB7D10;}
	.st4{fill-rule:evenodd;clip-rule:evenodd;fill:#E4710C;}
	.st5{fill-rule:evenodd;clip-rule:evenodd;fill:#ED7E12;}
	.st6{fill-rule:evenodd;clip-rule:evenodd;fill:#E26C0C;}
	.st7{fill-rule:evenodd;clip-rule:evenodd;fill:#E6770D;}
	.st8{fill-rule:evenodd;clip-rule:evenodd;fill:#EA7D0E;}
	.st9{fill-rule:evenodd;clip-rule:evenodd;fill:#E97B0D;}
	.st10{fill-rule:evenodd;clip-rule:evenodd;fill:#E5740C;}
	.st11{fill-rule:evenodd;clip-rule:evenodd;fill:#EC7E11;}
	.st12{fill-rule:evenodd;clip-rule:evenodd;fill:#E16A0B;}
	.st13{fill-rule:evenodd;clip-rule:evenodd;fill:#DF670B;}
	.st14{fill-rule:evenodd;clip-rule:evenodd;fill:#E0690B;}
	.st15{clip-path:url(#SVGID_8_);}
	.st16{clip-path:url(#SVGID_10_);}
	.st17{clip-path:url(#SVGID_12_);}
	.st18{clip-path:url(#SVGID_17_);}
	.st19{clip-path:url(#SVGID_18_);}
	.st20{clip-path:url(#SVGID_23_);}
	.st21{clip-path:url(#SVGID_24_);}
	.st22{clip-path:url(#SVGID_29_);}
	.st23{clip-path:url(#SVGID_30_);}
	.st24{clip-path:url(#SVGID_35_);}
	.st25{clip-path:url(#SVGID_36_);}
	.st26{fill:none;}
	.st27{fill:#EC7D12;}
	.st28{fill:url(#SVGID_37_);}
	.st29{fill:url(#SVGID_38_);}
	.st30{fill:none;stroke:#FFFFFF;stroke-width:6;stroke-miterlimit:10;}
	.st31{opacity:0.5;fill:none;stroke:#FFFFFF;stroke-width:2;stroke-miterlimit:10;enable-background:new    ;}
	.st32{fill:none;stroke:#FFFFFF;stroke-width:2;stroke-miterlimit:10;}
	.st33{opacity:0.2;fill:#DF630B;enable-background:new    ;}
	.st34{fill:none;stroke:url(#SVGID_39_);stroke-width:6;stroke-miterlimit:10;}
	.st35{fill:#F29D2A;stroke:url(#SVGID_40_);stroke-miterlimit:10;}
	.st36{fill:none;stroke:url(#SVGID_41_);stroke-width:6;stroke-miterlimit:10;}
	.st37{fill:url(#SVGID_42_);}
	.st38{fill:url(#SVGID_43_);}
	.st39{opacity:0.3;fill:#606060;}
	.st40{fill:url(#SVGID_44_);}
</style>
<g>
	<g>
		<g>
			<defs>
				<path id="SVGID_1_" d="M-974.6-427.9v180.7c0,0-10.5,64.8,62,115.9C-840.1-80.1-256.2,357-256.2,357l21-789.1L-880.6-453
					L-974.6-427.9L-974.6-427.9z"/>
			</defs>
			<clipPath id="SVGID_2_">
				<use xlink:href="#SVGID_1_"  style="overflow:visible;"/>
			</clipPath>
		</g>
		<g>
			<defs>
				<path id="SVGID_3_" d="M-974.6-427.9v180.7c0,0-10.5,64.8,62,115.9C-840.1-80.1-256.2,357-256.2,357l21-789.1L-880.6-453
					L-974.6-427.9L-974.6-427.9z"/>
			</defs>
			<defs>
				<rect id="SVGID_4_" x="-1644.2" y="-456" width="1366.1" height="792"/>
			</defs>
			<clipPath id="SVGID_5_">
				<use xlink:href="#SVGID_3_"  style="overflow:visible;"/>
			</clipPath>
			<clipPath id="SVGID_6_" class="st0">
				<use xlink:href="#SVGID_4_"  style="overflow:visible;"/>
			</clipPath>
			<g class="st1">
				<path class="st2" d="M-987.2,337c-217.2,0-434.3,0-651.5,0.1c-3.7,0-4.6-0.8-4.6-4.6c0.1-253,0.1-506,0-759
					c0-3.7,0.8-4.6,4.6-4.6c217.2,0.1,434.3,0.1,651.5,0.1c0.1,35.7,0.1,71.3,0.2,107c0,28.7,0,57.3,0,86c0,22.7,0,45.3,0,68
					c-0.1,7-0.2,13.9-0.2,20.9c0,35.7,0.1,71.4,0.2,107.1c0,2.3,0,4.7,0,7c0.2,6.4-1.3,12.8,0.8,19.1c0.1,0.6,0.2,1.3,0.2,1.9
					c-0.8,1.1-1.2,2.2-1.2,3.7c0.1,14.5,0.1,28.9,0.2,43.4c0,12,0,24,0,36c-0.1,1.5-0.2,3-0.2,4.5
					C-987.2,161.3-987.2,249.2-987.2,337z"/>
				<path class="st3" d="M-277.2,124c0,69.7,0,139.3,0.1,209c0,3.4-0.7,4.1-4.1,4.1c-56.3-0.1-112.7-0.1-169-0.1
					c-0.1-3.3-2.4-4.9-4.6-6.7c-14.1-12.2-28.1-24.4-42.2-36.5c-11.6-10-23.1-20-34.7-30c-5.8-5-11.7-9.8-17.5-14.7
					c-1.2-4.7-5.7-6.4-8.8-9.2c-11.1-10-22.5-19.7-33.8-29.5c-14.2-12.3-28.4-24.6-42.5-36.9c-13.8-12-27.6-24-41.4-36
					c-16.3-14.2-32.7-28.2-49-42.4c-13.9-12.1-27.8-24.3-41.7-36.4c-14-12.2-28.2-24.3-42.2-36.5c-9.4-8.3-19.6-15.7-29.7-23.1
					c-5.2-3.8-11-6.9-16.2-10.8c-9.4-6.9-17.9-14.9-26.6-22.6c-2.5-2.2-4.8-4.2-8.4-2.4c-1.5,0.8-2.9,0.8-3.7-1.1
					c1.4-1.2,2.6-2.5,3.3-4.3c2-5.1,4.2-10.1,6.3-15.1c2.2-5.2,4.3-10.4,6.4-15.6c3.2-4,4.2-9,6.2-13.5c3.2-7.3,2.3-13.8-3.7-19.5
					c-8.1-7.8-11.1-17.4-9.2-28.6c0.8-4.4,1.1-8.9,1.6-13.3c1.2-1.7,2.4-3.5,3.8-5.2c0.6-0.7,1.3-1.8,2.4-1.3
					c1.1,0.4,0.8,1.7,0.8,2.6c0.1,3.3,0,6.6,0,9.9c-0.6,10.6,2.2,20,10,27.6c3.1,3,6.9,4.3,11,2.9c3.7-1.3,3.7-5.1,4-8.4
					c0.5-1.2,0.9-2.5,1.5-3.7c1.4-3.2,3.4-6,7.5-5c4.1,1,6,3.9,5.9,8.1c0,1.5-0.5,2.9-0.7,4.4c-0.8,4.4,0.5,7.4,5.2,8.5
					c3.6,0.9,7,2.4,8.7,6c1.7,3.7,2.1,7.6,2,11.6c0.6,8.2,2.8,15.9,7,23l0,0c-2,0.2-2.9,1.3-2.9,3.3c0,3.5,1.4,6.4,2.8,9.5
					c1.5,3.1,6.3,6.9-1.4,8.7c-0.5,0.1-0.8,1-1.3,1.5c-1.3,1.5-2.9,2.3-4.9,1.7c-2-0.6-2.2-2.3-2.4-4c-0.6-4.1-1.6-8.2-3.6-11.9
					c-0.5-0.8-0.9-1.9-2.2-1.6c-0.9,0.3-1,1.3-1.1,2.1c-0.1,1.3-0.2,2.7,0,4c1.8,11.8,0.5,23.6,1,35.4c0.2,6.5,0.7,12.9,1.2,19.4
					c0.1,1.8,0.7,4.2,2.8,4.2c2.7,0,1.9-2.7,1.9-4.3c0.1-9.3,0-18.6,0.1-28c0.1-12-1.6-10.9,11.4-11c4.7,0,6.6,2,6.6,6.6
					c-0.1,9.1,0,18.3,0,27.5c0,2.4-0.1,4.9,1.6,6.7c1.2-0.4,1.3-1.1,1.3-1.7c0-12.5,0.3-25-0.1-37.4c-0.2-7.6-0.7-7.6,7.2-7.6
					c0.3,0,0.7,0,1,0c1.4,0,2.5-0.5,3-2c0.1-1.6,0.7-2.5,2.4-1.6c1.6,0.8,3,1.8,4.6,2.6c0.3,0,0.7,0,1,0c2.1-6.6,0.5-13.3,1-20
					c0-15,0-30,0.1-45c5.3-2.3,9.9-5.4,11.5-11.4c0.1-0.3,0.3-0.6,0.5-0.9c1.9-3,3.8-2.8,5.8-0.1c3.2,4.4,5.7,9.1,6.1,14.5
					c0.4,6.6,1.7,13.2,1.2,19.8c0,14.6,0.1,29.3-0.1,43.9c-0.1,4.5,1.3,6.3,6,6.1c9.8-0.3,19.6-0.1,29.5-0.1c1.9,0,4.6-0.6,5.3,1.7
					c1.6,4.7,5.2,4.4,8.9,4.3c2.3-0.1,4.7,0.1,7,0c3.2-0.1,4.5,1.5,4.4,4.6c-0.1,1.8,0,3.7,0,5.5c0,2.7,1.4,3.9,4,3.9
					c1.7,0,3.3,0,5,0c6.9,0,6.9,0,6.9-7c0.1-12.8,0.1-12.8,13-13c0.3,0,0.7,0,1,0c4.1,0.1,6.3-1.5,6.1-5.9c-0.1-2.2-0.2-4.5,1-6.3
					c3.8-5.7,3-12.1,3-18.4c0-6.2,0-12.3,0-18.5c0-1.8-0.2-3.9,1.9-4.7c3-1.1,4.4-3.3,5-6.3c0.2-1.2,0.7-2.5,2-2.5
					c4.8-0.2,9.6-0.4,14.4-0.1c3.4,0.2,2.2,4,3.7,5.9c0.3,0.4,0.5,1,0.9,1.2c5.6,2.7,4.8,7.7,4.9,12.5c0.2,7.8-1.6,16,0.7,23.3
					c2.6,8.3,3.5,16.5,3.3,25c0,1.6-0.8,3.8,1,4.6c2.2,0.9,3-1.5,4-2.9c2.3-3.2,4.5-5.9,8.8-2.5c1.5,1.2,3.5,0.4,5.1-0.9
					c3.2-2.7,4.9-5.8,5.3-10.2c0.9-9.3,0.7-18.6-0.1-27.8c-0.2-2.7,0-5.7,2.8-7c2.9-1.3,3.1-3.5,3.1-6.1c0-11.2,0-22.3,0-33.5
					c0.3-8-1.4-16.3,3.9-23.6c1.4-1.8,1.1-4.5,1.1-6.8c0-8.2,0.1-16.3,0-24.5c0-3.9,0-7.6,4-10.1c1.6-1,1.9-3.1,2.1-4.9
					c1-12.3,2-24.5,3-36.8c0.5-5.8,1-11.5,1.6-17.5c1.9,0.9,2.1,1.9,2.2,2.9c1.1,11.6,1.9,23.2,3.3,34.7c0.8,6.8-0.7,14.2,3.5,20.4
					c3.2,4.8,4.3,10.1,4.3,15.6c0.1,8.3,0.1,16.7,0,25c0,3.4,1,6,4.3,7c4.6,1.5,5.8,4.8,5.7,9.3c-0.2,13.7,0,27.3-0.1,41
					c0,2.7,0,5.6,2.7,7.1c3,1.7,3.4,4.1,3.3,7.1c-0.1,17.5,0.1,35-0.1,52.5c0,4.1,1.5,5.7,5.6,5.5c4.2-0.2,8.3,0,12.5,0
					c0.5,1.6,1.7,2.5,3.1,3c14.8,5.2,28.5,12.8,42.8,19.1c13.4,5.9,27.4,10.1,41.2,15.1c18.7,6.8,37,14.8,55,23.5
					c13.2,6.3,26.2,12.1,37.8,21.5c17.4,14.1,34.1,29.1,51.3,43.4C-289.2,115.3-284.6,121.6-277.2,124z"/>
				<path class="st4" d="M-526.2-15c-4.2,0-8.3-0.2-12.5,0c-4.1,0.2-5.6-1.4-5.6-5.5c0.1-17.5,0-35,0.1-52.5c0-3-0.3-5.5-3.3-7.1
					c-2.7-1.5-2.7-4.3-2.7-7.1c0-13.7-0.1-27.3,0.1-41c0.1-4.5-1.1-7.8-5.7-9.3c-3.3-1.1-4.4-3.7-4.3-7c0.1-8.3,0.1-16.7,0-25
					c-0.1-5.6-1.1-10.9-4.3-15.6c-4.2-6.2-2.7-13.5-3.5-20.4c-1.4-11.5-2.2-23.2-3.3-34.7c-0.1-1-0.3-2-2.2-2.9
					c-0.5,6-1.1,11.8-1.6,17.5c-1,12.3-2,24.5-3,36.8c-0.2,1.9-0.5,3.9-2.1,4.9c-3.9,2.4-4,6.1-4,10.1c0.1,8.2,0,16.3,0,24.5
					c0,2.4,0.3,5-1.1,6.8c-5.3,7.3-3.7,15.5-3.9,23.6c-0.9-0.5-1.7-1.2-1.8-2.3c-0.3-5.3-0.9-10.6-0.8-15.9c0-2.3-0.5-3.7-2.1-5.1
					c-14.5-12.7-29-25.5-43.5-38.1c-14-12.2-28.2-24.3-42.3-36.5c-13.7-11.9-27.4-23.8-41-35.7c-14.2-12.3-28.4-24.6-42.6-36.9
					c-11.2-9.7-22.3-19.4-33.5-29.1c-14.2-12.3-28.4-24.6-42.6-36.9c-13.8-12-27.6-24-41.4-36c-13.6-11.8-27.2-23.5-40.8-35.2
					c-1.3-1.1-2.3-2.4-2.7-4.1c89,0,178,0,267,0c0,2.1,1.5,3.2,2.9,4.4c14.9,12.9,29.9,25.9,44.8,38.9
					c14.5,12.7,28.9,25.5,43.5,38.1c13.9,12.1,27.9,24.1,41.9,36.2c14,12.2,28,24.6,42,36.7c18.2,15.8,36.5,31.5,54.7,47.2
					c1.2,1,2.4,2.2,0.6,3.7c-4.5,3.8-1.5,6,1.8,7.8c5.8,3.2,11.8,6.2,17.6,9.4c1.8,1,4.9,1.3,4.5,4c-0.4,2.5-3.5,1.9-5.4,2.6
					c-3.5,1.3-7.8,0.8-9.8,5c-1.2,2.3-0.9,4.5,0.4,6.6c0.7,1.1,1.8,2.5,1,3.7c-4.1,6.3,4.3,13.2-1.1,19.4c-0.1,0.1,0.1,0.7,0.3,0.9
					c1.6,2.6,1.3,5-0.3,7.5c-0.7,1-1,2.2-0.2,3.3c3.4,4.8,1.6,10.9,0.7,15c-1.3,5.5,1.1,10.3,0.2,15.6c-1,6.3-0.4,13.3-0.4,20
					c0,3.8,1.6,7.6-0.9,11.3c-0.2,0.3,0.6,1.5,1,2.1c0.8,1.2,1.6,2.7,0.8,3.7c-4.2,5.1,1.7,10.5-0.8,16c-1,2.2,1.8,6.1-0.9,9.2
					c-0.9,1,0.2,2.2,0.9,3.1c0.8,1.1,1,2.3,0.9,3.8c-0.5,6.5-1.6,13-0.2,19.5c0.5,2.4-1.1,4-3.1,4.4c-3.1,0.5-2.1-2.2-2.3-3.8
					c-0.2-1.5-0.2-3,0-4.5c0.4-4.4-1.5-6-5.8-5.8c-6.2,0.2-12.3,0-18.5,0.1c-3.4,0.1-4.9-1.4-4.8-4.8c0.1-4.3-0.1-8.7,0.1-13
					c0.1-3.4-0.4-6.1-3.8-7.9c-2.3-1.2-3-3.8-3.2-6.4c-0.1-1.6,0.6-3.3-1.2-4.9c-2.1,2.6-2.7,5.7-3.8,8.5c-0.9,2.2-2.4,3.6-5,3.3
					c-2.6-0.4-2.9-2.4-2.9-4.5c0-1.3,0-2.7-0.1-4c0-0.8,0-1.8-0.9-2.1c-1.3-0.5-1.7,0.6-2.2,1.5c-1.8,2.8-2.2,6.8-5,8.5
					c-3.6,2.1-3.8,5-3.7,8.4c0,16.3,0,32.7,0,49c0,2.4,0.4,5.5-3.4,5.3c-3.6-0.1-3.6-2.9-3.5-5.5c0.1-5.5-0.3-11,0.6-16.4
					c1-6.3-3.2-10.8-9.8-10.9c-6-0.1-12,0.2-18-0.1c-4.2-0.2-6.1,1.3-5.9,5.7c0.3,5.5,0.1,11,0.1,16.5
					C-523.2-17.6-523.1-15.4-526.2-15z"/>
				<path class="st5" d="M-987.2,337c0-87.8,0-175.7,0-263.5c0-1.5,0.1-3,0.2-4.5c1.6,0.5,3.2,0.8,4.7,1.4
					c35.1,14.9,71,27.6,106.2,42.2c17.1,7,34.6,13.1,49.8,23.9c3.2,2.3,7,3.8,9.1,7.5c-1.2,2.9,1.4,3.9,2.8,5.2
					c8.4,7.5,17,14.9,25.5,22.3c16.2,14,32.5,28,48.7,42c14.1,12.2,28,24.6,42,36.8c13.9,12.1,27.9,24.1,41.9,36.1
					c14.7,12.7,29.5,25.3,43.9,38.3c4.2,3.8,9.9,6.4,12.1,12.2C-729.2,337-858.2,337-987.2,337z"/>
				<path class="st6" d="M-924.2-431c0.3,1.7,1.4,3,2.7,4.1c13.6,11.7,27.2,23.4,40.8,35.2c13.8,12,27.6,24,41.4,36
					c14.2,12.3,28.4,24.6,42.6,36.9c11.2,9.7,22.3,19.4,33.5,29.1c14.2,12.3,28.4,24.6,42.6,36.9c13.7,11.9,27.3,23.8,41,35.7
					c14.1,12.2,28.2,24.3,42.3,36.5c14.5,12.7,29,25.4,43.5,38.1c1.6,1.4,2.2,2.9,2.1,5.1c-0.1,5.3,0.4,10.6,0.8,15.9
					c0.1,1.1,0.9,1.8,1.8,2.3c0,11.2,0,22.3,0,33.5c0,2.6-0.2,4.8-3.1,6.1c-2.8,1.3-3,4.3-2.8,7c0.8,9.3,1,18.5,0.1,27.8
					c-0.4,4.4-2.1,7.6-5.3,10.2c-1.5,1.3-3.6,2.1-5.1,0.9c-4.3-3.4-6.5-0.7-8.8,2.5c-1,1.4-1.8,3.8-4,2.9c-1.7-0.7-1-3-1-4.6
					c0.2-8.5-0.8-16.7-3.3-25c-2.3-7.4-0.5-15.5-0.7-23.3c-0.1-4.8,0.6-9.9-4.9-12.5c-0.4-0.2-0.6-0.8-0.9-1.2
					c-1.5-1.8-0.4-5.7-3.7-5.9c-4.8-0.3-9.6-0.1-14.4,0.1c-1.3,0-1.8,1.3-2,2.5c-0.6,3-2.1,5.2-5,6.3c-2.2,0.8-1.9,2.9-1.9,4.7
					c0,6.2,0,12.3,0,18.5c0,6.3,0.8,12.6-3,18.4c-1.2,1.8-1.1,4.2-1,6.3c0.3,4.4-2,6-6.1,5.9c-0.3,0-0.7,0-1,0
					c-12.9,0.3-12.9,0.3-13,13c-4.9-3.1-2.8-8.4-3.8-12.7c-0.8-3.3,1.1-5.3,4.8-5.3c3.8,0.1,7.7,0,11.5-0.1c1.2,0,2.5,0,2.9-1.4
					c0.3-1.1-0.5-1.8-1.3-2.5c-7.5-6.6-15-13.2-22.5-19.7c-14.3-12.4-28.6-24.8-42.9-37.3c-8.1-7.1-16.3-14.2-24.4-21.3
					c-0.9-0.7-1.9-1.9-3-1c-1.3,1,0.1,2.1,0.6,3c5.8,9.7,5.4,20.4,5.1,31.1c-0.1,2.6-1.3,4-3.9,4.2c0.5-6.7-0.8-13.2-1.2-19.8
					c-0.4-5.4-2.9-10.2-6.1-14.5c-2-2.7-3.9-2.9-5.8,0.1c-0.2,0.3-0.4,0.6-0.5,0.9c-1.6,6-6.1,9.1-11.5,11.4
					c-2.8-1.9-2.9-4.9-0.2-5.9c4.1-1.5,5.6-5.1,8-7.9c3.2-3.8,3.8-13.9,1.1-16.2c-7.3-6.5-14.7-13-22.1-19.4
					c-13.6-11.7-27.3-23.4-40.8-35.1c-14.1-12.2-28-24.6-42.1-36.8c-16.6-14.4-33.2-28.7-49.8-43.1c-16.3-14.2-32.5-28.6-48.9-42.5
					c-3-2.6-5.3-6.6-10-7c-0.1-35.7-0.1-71.3-0.2-107C-966.2-431-945.2-431-924.2-431z"/>
				<path class="st7" d="M-418.2-197c2-4.2,6.4-3.7,9.8-5c1.9-0.7,5-0.1,5.4-2.6c0.4-2.6-2.7-3-4.5-4c-5.8-3.2-11.8-6.2-17.6-9.4
					c-3.3-1.8-6.3-4-1.8-7.8c1.7-1.5,0.6-2.6-0.6-3.7c-18.2-15.7-36.5-31.4-54.7-47.2c-14.1-12.2-28-24.5-42-36.7
					c-13.9-12.1-28-24.1-41.9-36.2c-14.5-12.7-29-25.4-43.5-38.1c-14.9-13-29.9-25.9-44.8-38.9c-1.4-1.2-2.9-2.3-2.9-4.4
					c66,0,132,0,198,0c0.3,1.8,1.5,2.8,2.9,3.9c3.7,3.1,7.4,6.2,11,9.4c14,12.3,28,24.6,42,36.8c18.8,16.3,37.8,32.5,56.6,48.9
					c18.7,16.2,37.2,32.7,56.1,48.8c4.2,3.6,7.6,8.5,13.4,10.2c0,51,0,102,0,153c-1.6-0.1-2.9-0.6-4.1-1.6
					c-8.2-7.2-16.3-14.7-24.8-21.6c-4.9-3.9-8.4-10.4-16.1-9.8c1.4-2.4,1.6-4.6,0.7-7.5c-1.3-4.4,1.7-9.4-1.4-13.7
					c-0.2-0.3,0.3-1.4,0.7-1.7c2.9-1.9,2.3-4.3,1.4-7c-0.8-2.5-0.6-5.3,0.1-7.9c1.2-4.2-0.7-6.3-4.6-7.3c-4.7-1.2-9.4-2.2-14.1-3.4
					c-1.5-0.4-3.8-0.1-3.9-2.3c-0.1-1.8,2-2,3.2-2.7c8.3-4.5,16.7-9,25-13.5c1.1-0.6,3-1,2.7-2.5c-0.4-1.9-2.4-1.3-3.8-1.3
					c-4.5-0.1-9-0.1-13.5-0.1c-2.8,0-4.9-1-5.6-4c-0.7-3.3-2.9-4-5.9-4c-19,0.1-37.9,0.1-56.9,0c-3.1,0-5.2,0.7-5.7,4.1
					c-0.5,3.4-2.8,4.1-5.8,4c-4.3-0.1-8.7-0.1-13,0c-1.3,0-3.1-0.5-3.5,1c-0.5,1.9,1.6,2.2,2.8,2.9c8.6,4.7,17.3,9.3,25.9,14
					c1,0.5,2.4,0.9,2.2,2.4c-0.2,1.4-1.6,1.5-2.7,1.8C-404.6-200.2-411.4-198.6-418.2-197z"/>
				<path class="st8" d="M-418.2-197c6.8-1.6,13.6-3.2,20.4-4.9c1.1-0.3,2.5-0.4,2.7-1.8c0.2-1.5-1.2-1.8-2.2-2.4
					c-8.6-4.7-17.3-9.3-25.9-14c-1.2-0.7-3.3-0.9-2.8-2.9c0.4-1.5,2.3-1,3.5-1c4.3-0.1,8.7-0.1,13,0c3,0.1,5.3-0.6,5.8-4
					c0.5-3.4,2.7-4.1,5.7-4.1c19,0.1,37.9,0.1,56.9,0c3,0,5.2,0.7,5.9,4c0.6,2.9,2.8,4,5.6,4c4.5,0,9,0,13.5,0.1
					c1.4,0,3.4-0.6,3.8,1.3c0.3,1.5-1.6,1.9-2.7,2.5c-8.3,4.5-16.7,9-25,13.5c-1.3,0.7-3.3,0.9-3.2,2.7c0.1,2.2,2.4,1.9,3.9,2.3
					c4.7,1.2,9.4,2.3,14.1,3.4c3.8,1,5.7,3.1,4.6,7.3c-0.7,2.6-0.9,5.4-0.1,7.9c0.9,2.7,1.5,5.1-1.4,7c-0.5,0.3-0.9,1.4-0.7,1.7
					c3.1,4.4,0.2,9.4,1.4,13.7c0.8,2.9,0.6,5.1-0.7,7.5c2.4,5.9,0.9,12.3,0.8,18.2c-0.1,5.2,0.5,10.5-0.2,15.9
					c-0.8,6.3,0.6,13.1-0.4,19.6c-0.2,1.1,0.1,2.4,0.6,3.3c0.9,1.9,0.9,3.5-0.5,5.1c-0.8,0.9-1.6,2.2-0.8,3.2c2.5,3.1,2.3,6,0.1,9.1
					c-0.4,0.5-0.3,1.8,0.1,2.3c3.5,4.9,0.7,10.5,0.8,15.5c0.1,5.1,2.3,10.7-0.3,15.8c-0.2,0.3,0.1,1,0.4,1.4
					c3.7,4.5,3.6,9.9,3.4,15.2c-0.1,3.2,1.5,4.3,4.6,4.4c4.1,0.1,4.4-2.5,4.4-5.6c0-14.8,0-29.6,0-44.4c0-3.6,1.4-5,5-5
					c3.6,0,5.2,1.4,5,5c-0.1,1.8,0,3.7,0.1,5.5c0.1,2.2,1.2,3.3,3.4,3.5c3.5,0.3,6.9,1,10.4,1c4.6-0.1,6.1,2.1,6.2,6.4
					c0,2.6-1.2,5.8,1.9,7.7c0,58,0,116,0,174c-7.5-2.4-12.1-8.7-17.7-13.4c-17.2-14.3-33.9-29.3-51.3-43.4
					c-11.6-9.4-24.6-15.2-37.8-21.5c-18-8.6-36.3-16.6-55-23.5c-13.7-5-27.8-9.2-41.2-15.1c-14.3-6.3-28-13.9-42.8-19.1
					c-1.4-0.5-2.6-1.4-3.1-3c3-0.4,3-2.6,3-4.9c0-5.5,0.2-11-0.1-16.5c-0.2-4.4,1.7-5.9,5.9-5.7c6,0.2,12,0,18,0.1
					c6.6,0.1,10.8,4.5,9.8,10.9c-0.9,5.5-0.5,11-0.6,16.4c-0.1,2.6,0,5.4,3.5,5.5c3.9,0.1,3.4-2.9,3.4-5.3c0-16.3,0-32.7,0-49
					c0-3.4,0.1-6.3,3.7-8.4c2.8-1.7,3.3-5.7,5-8.5c0.5-0.8,1-1.9,2.2-1.5c0.9,0.3,0.9,1.3,0.9,2.1c0.1,1.3,0,2.7,0.1,4
					c0.1,2.1,0.3,4.1,2.9,4.5c2.5,0.4,4.1-1,5-3.3c1.1-2.8,1.8-5.9,3.8-8.5c1.8,1.6,1.1,3.4,1.2,4.9c0.2,2.6,0.9,5.2,3.2,6.4
					c3.4,1.8,3.9,4.6,3.8,7.9c-0.1,4.3,0.1,8.7-0.1,13c-0.1,3.4,1.4,4.8,4.8,4.8c6.2-0.1,12.3,0.2,18.5-0.1c4.3-0.2,6.2,1.4,5.8,5.8
					c-0.1,1.5-0.2,3,0,4.5c0.2,1.6-0.8,4.3,2.3,3.8c2.1-0.3,3.7-2,3.1-4.4c-1.4-6.5-0.3-13,0.2-19.5c0.1-1.4-0.1-2.6-0.9-3.8
					c-0.7-0.9-1.8-2.1-0.9-3.1c2.7-3.1-0.1-7,0.9-9.2c2.6-5.5-3.3-10.9,0.8-16c0.8-1,0-2.5-0.8-3.7c-0.5-0.7-1.3-1.8-1-2.1
					c2.5-3.7,0.9-7.5,0.9-11.3c0-6.7-0.6-13.7,0.4-20c0.9-5.3-1.5-10.1-0.2-15.6c0.9-4,2.7-10.2-0.7-15c-0.8-1.1-0.5-2.2,0.2-3.3
					c1.7-2.4,2-4.9,0.3-7.5c-0.2-0.3-0.4-0.8-0.3-0.9c5.3-6.2-3.1-13.1,1.1-19.4c0.8-1.2-0.3-2.6-1-3.7
					C-419.1-192.5-419.4-194.7-418.2-197z"/>
				<path class="st9" d="M-277.2-273c-5.8-1.7-9.1-6.6-13.4-10.2c-18.9-16-37.4-32.5-56.1-48.8c-18.8-16.3-37.8-32.5-56.6-48.9
					c-14.1-12.2-28-24.5-42-36.8c-3.6-3.2-7.3-6.3-11-9.4c-1.3-1.1-2.5-2.2-2.9-3.9c59.3,0,118.7,0,178-0.1c3.4,0,4.1,0.7,4.1,4.1
					C-277.2-375.7-277.2-324.3-277.2-273z"/>
				<path class="st10" d="M-277.2-50c-3.2-1.9-1.9-5.1-1.9-7.7c-0.1-4.3-1.6-6.5-6.2-6.4c-3.5,0.1-6.9-0.7-10.4-1
					c-2.2-0.2-3.3-1.3-3.4-3.5c0-1.8-0.2-3.7-0.1-5.5c0.2-3.6-1.4-5-5-5c-3.6,0-5.1,1.4-5,5c0.1,14.8,0,29.6,0,44.4
					c0,3.1-0.3,5.7-4.4,5.6c-3.1,0-4.7-1.1-4.6-4.4c0.1-5.3,0.3-10.7-3.4-15.2c-0.3-0.3-0.6-1.1-0.4-1.4c2.7-5.2,0.4-10.7,0.3-15.8
					c-0.1-5,2.7-10.6-0.8-15.5c-0.4-0.6-0.4-1.8-0.1-2.3c2.2-3.1,2.4-6-0.1-9.1c-0.8-1,0-2.3,0.8-3.2c1.4-1.6,1.4-3.2,0.5-5.1
					c-0.5-1-0.8-2.3-0.6-3.3c1-6.6-0.4-13.3,0.4-19.6c0.7-5.4,0-10.7,0.2-15.9c0.1-5.9,1.6-12.3-0.8-18.2c7.7-0.7,11.2,5.9,16.1,9.8
					c8.6,6.9,16.6,14.4,24.8,21.6c1.2,1,2.5,1.6,4.1,1.6C-277.2-96.7-277.2-73.3-277.2-50z"/>
				<path class="st11" d="M-703.2,189c-15.4-6.2-30.8-12.5-46.2-18.7c-21-8.4-42-16.8-63-25.2c-1.6-0.6-3.1-1.1-4.8-1.1
					c-2-3.7-5.9-5.2-9.1-7.5c-15.2-10.8-32.7-16.9-49.8-23.9c-35.2-14.5-71.1-27.3-106.2-42.2c-1.5-0.6-3.2-1-4.7-1.4
					c0-12,0-24,0-36c7.5,0,15,0,22.5-0.1c1.7,0,4.6,0.1,3.6-2.6c-1-2.5,0-8.1-6-6c-1,0.3-2-0.5-2.5-1.4c-1.7-2.8-3.7-3.1-6.1-1
					c-2.2,2-3.4,1.2-4.3-1.3c-0.7-1.9-1.7-3.6-2.3-5.5c-1.7-4.9,0.1-8.8,5.2-9.9c5.4-1.1,9.8-3.4,13.7-7.4c3.6-3.8,8.3-2.5,10.6,2.1
					c0.4,0.7,0.8,1.5,1.4,2.1c0.8,0.8,1.7,1.9,3,1.2c1.4-0.7,0.8-2,0.5-3.1c-1.1-4-2-8.1-3.4-12c-1.5-4.4-3-4.7-6.2-1.3
					c-5.8,6.2-5.9,6.2-8.8-2c-0.2-0.6-0.5-1.2-0.7-1.9c-1.1-3.9-3.4-4.4-6.8-2.7c-4,2-8.1,3.8-12.2,5.7c-0.1-0.6-0.2-1.3-0.2-1.9
					c2.1-4.2,2.4-8.8,3-13.3c0.4-2.9-0.5-5.2-3.8-5.8c0-2.3,0-4.7,0-7c6.3-6.4,13.7-8.3,22.4-5.6c3.4,1.1,6.3,0.7,8.7-2.7
					c7.1-10,15.2-12.2,26.4-7.5c2.3,1,3.6,2.3,1.1,4.3c-3.3,2.6-1.8,4.8,0.3,7.1c2.4,2.6,4.6,5.3,6.9,7.9c1.9,2.2,1.5,3.8-1.4,4
					c-2.7,0.1-5.2,1.3-7.8,1.3c-5.2,0-6.3,2.7-5.7,7c0.2,1.2,0.3,2.3,0.5,3.5c0.8,5.2,0.2,5.9-5,4.6c-2.6-0.6-3.6,0-2.9,2.6
					c2.1,7.4,4.2,14.7,6.5,22c1,3.2,3.2,3.9,6.3,2.8c3.2-1.2,4.6-3.3,4.6-6.8c0.1-9.5-0.4-18.9,0.4-28.4c0.3-3.3,1.3-4.1,4-4
					c3.9,0.3,6.7-0.7,8-5c0.8-2.6,3.8-2.6,6-2.7c4.8-0.4,9.6-0.2,14.5-0.3c0.8,1.9,2.2,1.9,3.7,1.1c3.6-1.8,5.9,0.2,8.4,2.4
					c8.7,7.7,17.2,15.7,26.6,22.6c5.2,3.8,11,6.9,16.2,10.8c10.1,7.4,20.3,14.8,29.7,23.1c14,12.3,28.2,24.3,42.2,36.5
					c13.9,12.1,27.8,24.3,41.7,36.4c16.3,14.2,32.7,28.2,49,42.4c13.8,12,27.6,24,41.4,36c14.2,12.3,28.4,24.6,42.5,36.9
					c11.3,9.8,22.7,19.5,33.8,29.5c3.1,2.8,7.6,4.5,8.8,9.2c-11.3-3.9-22.8-7.4-32.1-15.5c-2.5-2.2-5.4-3.9-8.5-5.2
					c-36-14.5-71.9-29-107.9-43.5c-1.5-0.6-3.2-2-4.6-0.7c-1.4,1.4,0.6,2.6,1.1,3.9C-701.8,188.3-702.5,188.7-703.2,189z"/>
				<path class="st12" d="M-987-324c4.7,0.4,7,4.5,10,7c16.5,14,32.6,28.4,48.9,42.5c16.6,14.4,33.2,28.7,49.8,43.1
					c14.1,12.2,28,24.6,42.1,36.8c13.6,11.8,27.2,23.4,40.8,35.1c7.4,6.4,14.8,12.9,22.1,19.4c2.6,2.3,2.1,12.4-1.1,16.2
					c-2.4,2.8-3.9,6.3-8,7.9c-2.7,1-2.6,4,0.2,5.9c0,15,0,30-0.1,45c-2.3-0.6-4.2-2-5.9-3.5c-7.7-6.6-15.5-13.1-22.8-20
					c-3.1-2.9-5.7-3.5-9.2-1.4c0.1-4-0.3-8-2-11.6c-1.7-3.7-5.1-5.2-8.7-6c-4.7-1.1-6-4.2-5.2-8.5c0.3-1.5,0.7-2.9,0.7-4.4
					c0.1-4.2-1.8-7.1-5.9-8.1c-4.1-1-6,1.8-7.5,5c-0.5,1.2-1,2.4-1.5,3.7c-2.2-3.9-4.3-7.9-8.1-10.5c-5.6-3.9-9.4-10.5-16.9-11.5
					c0-3.3,0-6.6,0-9.9c0-0.9,0.3-2.2-0.8-2.6c-1.1-0.4-1.8,0.6-2.4,1.3c-1.3,1.7-2.5,3.5-3.8,5.2c-1.8-1.9-3.6-3.9-5.6-5.7
					c-13.8-12-27.7-23.9-41.5-35.9c-16.3-14.2-32.5-28.5-48.9-42.5c-2.7-2.3-4.8-5.7-8.9-6C-987-266.7-987-295.3-987-324z"/>
				<path class="st13" d="M-893.2-38c-4.8,0.1-9.7,0-14.5,0.3c-2.2,0.2-5.2,0.1-6,2.7c-1.3,4.3-4.1,5.2-8,5c-2.8-0.2-3.8,0.7-4,4
					c-0.8,9.5-0.3,19-0.4,28.4c0,3.5-1.4,5.6-4.6,6.8c-3.1,1.1-5.3,0.4-6.3-2.8c-2.2-7.3-4.4-14.7-6.5-22c-0.8-2.7,0.3-3.2,2.9-2.6
					c5.2,1.3,5.8,0.6,5-4.6c-0.2-1.1-0.3-2.3-0.5-3.5c-0.6-4.3,0.5-7.1,5.7-7c2.6,0,5.1-1.1,7.8-1.3c2.9-0.1,3.3-1.8,1.4-4
					c-2.3-2.6-4.5-5.3-6.9-7.9c-2.1-2.3-3.6-4.5-0.3-7.1c2.5-2,1.2-3.3-1.1-4.3c-11.2-4.7-19.2-2.5-26.4,7.5
					c-2.4,3.4-5.3,3.7-8.7,2.7c-8.6-2.7-16.1-0.8-22.4,5.6c-0.1-35.7-0.1-71.4-0.2-107.1c0-7,0.1-13.9,0.2-20.9
					c0.7,0.4,1.6,0.6,2.2,1.1c16,13.9,32,27.9,48,41.9c14.4,12.5,28.9,24.9,43.2,37.6c5.8,5.1,12.6,9.3,16.4,16.5
					c-2.1,5.2-4.3,10.4-6.4,15.6c-2.1,5-4.3,10.1-6.3,15.1C-890.6-40.5-891.8-39.2-893.2-38z"/>
				<path class="st14" d="M-877.2-73c-3.8-7.2-10.6-11.4-16.4-16.5c-14.3-12.7-28.8-25.1-43.2-37.6c-16-13.9-32-27.9-48-41.9
					c-0.6-0.5-1.5-0.7-2.2-1.1c0-22.7,0-45.3,0-68c4.1,0.2,6.3,3.7,8.9,6c16.4,14,32.6,28.3,48.9,42.5c13.8,12,27.7,23.9,41.5,35.9
					c2,1.7,3.7,3.8,5.6,5.7c-0.5,4.4-0.9,8.9-1.6,13.3c-1.9,11.2,1,20.8,9.2,28.6c6,5.8,6.9,12.2,3.7,19.5C-873-82-874-77-877.2-73z
					"/>
				<path class="st13" d="M-986-14c4.1-1.9,8.2-3.7,12.2-5.7c3.4-1.7,5.7-1.2,6.8,2.7c0.2,0.6,0.4,1.3,0.7,1.9c2.9,8.2,3,8.2,8.8,2
					c3.2-3.4,4.7-3.1,6.2,1.3c1.3,3.9,2.3,8,3.4,12c0.3,1.1,1,2.4-0.5,3.1c-1.3,0.6-2.2-0.4-3-1.2c-0.6-0.6-1-1.3-1.4-2.1
					c-2.2-4.6-6.9-5.9-10.6-2.1c-3.9,4-8.2,6.3-13.7,7.4c-5.1,1.1-6.9,5-5.2,9.9c0.6,1.9,1.6,3.6,2.3,5.5c0.9,2.4,2.1,3.3,4.3,1.3
					c2.4-2.2,4.4-1.8,6.1,1c0.5,0.9,1.5,1.7,2.5,1.4c6-2,5,3.5,6,6c1,2.6-1.8,2.5-3.6,2.6C-972,33-979.5,33-987,33
					c-0.1-14.5-0.1-28.9-0.2-43.4C-987.2-11.8-986.8-12.9-986-14z"/>
				<path class="st13" d="M-987-35c3.3,0.6,4.2,2.9,3.8,5.8c-0.6,4.5-0.9,9.1-3,13.3C-988.3-22.2-986.8-28.6-987-35z"/>
				<path class="st12" d="M-757.2-88c2.6-0.1,3.9-1.6,3.9-4.2c0.3-10.7,0.7-21.4-5.1-31.1c-0.5-0.9-1.9-2-0.6-3c1.1-0.9,2.1,0.3,3,1
					c8.1,7.1,16.2,14.2,24.4,21.3c14.3,12.4,28.6,24.8,42.9,37.3c7.5,6.5,15,13.1,22.5,19.7c0.8,0.7,1.6,1.4,1.3,2.5
					c-0.4,1.4-1.7,1.4-2.9,1.4c-3.8,0.1-7.7,0.1-11.5,0.1c-3.7-0.1-5.6,1.9-4.8,5.3c1,4.3-1,9.6,3.8,12.7c-0.1,6.9-0.1,7-6.9,7
					c-1.7,0-3.3,0-5,0c-2.6,0-4-1.2-4-3.9c0-1.8-0.1-3.7,0-5.5c0.1-3.1-1.2-4.7-4.4-4.6c-2.3,0.1-4.7-0.1-7,0
					c-3.7,0.1-7.3,0.4-8.9-4.3c-0.8-2.2-3.4-1.7-5.3-1.7c-9.8,0-19.6-0.2-29.5,0.1c-4.7,0.1-6.1-1.7-6-6.1
					C-757-58.7-757.2-73.4-757.2-88z"/>
				<path class="st14" d="M-820.1-90c3.5-2.1,6.1-1.5,9.2,1.4c7.4,6.9,15.2,13.4,22.8,20c1.8,1.5,3.6,2.9,5.9,3.5
					c-0.4,6.7,1.1,13.4-1,20c-0.3,0-0.7,0-1,0c-1.5-0.9-3-1.8-4.6-2.6c-1.7-0.9-2.3,0.1-2.4,1.6c-1.4,0.1-2.5,0.6-3,2
					c-0.3,0-0.7,0-1,0c-7.9,0.1-7.4,0-7.2,7.6c0.4,12.5,0.1,25,0.1,37.4c0,0.6-0.1,1.3-1.3,1.7c-1.8-1.9-1.6-4.4-1.6-6.7
					c0-9.2-0.1-18.3,0-27.5c0.1-4.6-1.9-6.7-6.6-6.6c-13,0.1-11.4-1-11.4,11c-0.1,9.3,0,18.6-0.1,28c0,1.6,0.8,4.3-1.9,4.3
					c-2.1,0-2.7-2.4-2.8-4.2c-0.5-6.5-0.9-12.9-1.2-19.4c-0.4-11.8,0.8-23.6-1-35.4c-0.2-1.3,0-2.7,0-4c0.1-0.8,0.2-1.8,1.1-2.1
					c1.3-0.4,1.7,0.7,2.2,1.6c2,3.7,2.9,7.8,3.6,11.9c0.3,1.7,0.4,3.4,2.4,4c2,0.6,3.6-0.2,4.9-1.7c0.4-0.5,0.8-1.4,1.3-1.5
					c7.6-1.8,2.8-5.5,1.4-8.7c-1.4-3-2.9-6-2.8-9.5c0-2,0.9-3.1,2.9-3.3l0,0C-817.4-74.1-819.6-81.8-820.1-90z"/>
				<path class="st14" d="M-875.1-142c7.5,1.1,11.4,7.6,16.9,11.5c3.7,2.6,5.8,6.6,8.1,10.5c-0.3,3.3-0.3,7.1-4,8.4
					c-4,1.4-7.8,0.1-11-2.9C-873-122-875.7-131.4-875.1-142z"/>
				<path class="st12" d="M-794.2-44c0.5-1.4,1.6-1.9,3-2C-791.6-44.5-792.8-44.1-794.2-44z"/>
				<path class="st12" d="M-784.2-45c0.3,0,0.7,0,1,0C-783.5-45-783.8-45-784.2-45z"/>
				<path class="st5" d="M-703.2,189c0.7-0.3,1.3-0.7,2-1C-701.5,189-702,189.7-703.2,189z"/>
				<path class="st3" d="M-813.2-67L-813.2-67L-813.2-67z"/>
			</g>
		</g>
	</g>
	<g>
		<g>
			<defs>
				<polyline id="SVGID_7_" points="-483.6,-101.9 -429.6,-65.9 -426.8,-70.1 -480.8,-106.1 				"/>
			</defs>
			<clipPath id="SVGID_8_">
				<use xlink:href="#SVGID_7_"  style="overflow:visible;"/>
			</clipPath>
			<g class="st15">
				
					<image style="overflow:visible;enable-background:new    ;" width="1367" height="769" xlink:href="2FE29995.jpg"  transform="matrix(0.9991 0 0 0.9991 -1644.0706 -432.1657)">
				</image>
			</g>
		</g>
	</g>
	<g>
		<g>
			<defs>
				<polyline id="SVGID_9_" points="-438.1,-105.6 -476.1,-59.6 -472.2,-56.4 -434.2,-102.4 				"/>
			</defs>
			<clipPath id="SVGID_10_">
				<use xlink:href="#SVGID_9_"  style="overflow:visible;"/>
			</clipPath>
			<g class="st16">
				
					<image style="overflow:visible;enable-background:new    ;" width="1367" height="769" xlink:href="2FE29996.jpg"  transform="matrix(0.9991 0 0 0.9991 -1644.0706 -432.1657)">
				</image>
			</g>
		</g>
	</g>
	<g>
		<g>
			<defs>
				<path id="SVGID_11_" d="M-908.7-314v2.5c7.7,0,14,6.4,14,14.5c0,8.1-6.3,14.5-14,14.5c-7.7,0-14-6.4-14-14.5
					c0-8.1,6.3-14.5,14-14.5V-314v-2.5c-10.6,0-19,8.8-19,19.5c0,10.7,8.4,19.5,19,19.5c10.6,0,19-8.8,19-19.5
					c0-10.7-8.4-19.5-19-19.5V-314L-908.7-314L-908.7-314z"/>
			</defs>
			<clipPath id="SVGID_12_">
				<use xlink:href="#SVGID_11_"  style="overflow:visible;"/>
			</clipPath>
			<g class="st17">
				
					<image style="overflow:visible;enable-background:new    ;" width="1367" height="769" xlink:href="2FE2999B.jpg"  transform="matrix(0.9991 0 0 0.9991 -1644.0706 -432.1657)">
				</image>
			</g>
		</g>
	</g>
	<g>
		<g>
			<defs>
				<path id="SVGID_13_" d="M-974.6-427.9v180.7c0,0-10.5,64.8,62,115.9C-840.1-80.1-256.2,357-256.2,357l21-789.1L-880.6-453
					L-974.6-427.9L-974.6-427.9z"/>
			</defs>
			<clipPath id="SVGID_14_">
				<use xlink:href="#SVGID_13_"  style="overflow:visible;"/>
			</clipPath>
		</g>
		<g>
			<defs>
				<path id="SVGID_15_" d="M-974.6-427.9v180.7c0,0-10.5,64.8,62,115.9C-840.1-80.1-256.2,357-256.2,357l21-789.1L-880.6-453
					L-974.6-427.9L-974.6-427.9z"/>
			</defs>
			<defs>
				<path id="SVGID_16_" d="M-893.7-300c10.8,0,19.5,9.4,19.5,21c0,11.6-8.7,21-19.5,21c-10.8,0-19.5-9.4-19.5-21
					C-913.2-290.6-904.4-300-893.7-300L-893.7-300z"/>
			</defs>
			<clipPath id="SVGID_17_">
				<use xlink:href="#SVGID_15_"  style="overflow:visible;"/>
			</clipPath>
			<clipPath id="SVGID_18_" class="st18">
				<use xlink:href="#SVGID_16_"  style="overflow:visible;"/>
			</clipPath>
			<g class="st19">
				
					<image style="overflow:visible;enable-background:new    ;" width="1367" height="769" xlink:href="2FE2999C.jpg"  transform="matrix(0.9991 0 0 0.9991 -1644.0706 -432.1657)">
				</image>
			</g>
		</g>
	</g>
	<g>
		<g>
			<defs>
				<path id="SVGID_19_" d="M-908.7-314v2.5c7.7,0,14,6.4,14,14.5c0,8.1-6.3,14.5-14,14.5c-7.7,0-14-6.4-14-14.5
					c0-8.1,6.3-14.5,14-14.5V-314v-2.5c-10.6,0-19,8.8-19,19.5c0,10.7,8.4,19.5,19,19.5c10.6,0,19-8.8,19-19.5
					c0-10.7-8.4-19.5-19-19.5V-314L-908.7-314L-908.7-314z"/>
			</defs>
			<clipPath id="SVGID_20_">
				<use xlink:href="#SVGID_19_"  style="overflow:visible;"/>
			</clipPath>
		</g>
		<g>
			<defs>
				<path id="SVGID_21_" d="M-908.7-314v2.5c7.7,0,14,6.4,14,14.5c0,8.1-6.3,14.5-14,14.5c-7.7,0-14-6.4-14-14.5
					c0-8.1,6.3-14.5,14-14.5V-314v-2.5c-10.6,0-19,8.8-19,19.5c0,10.7,8.4,19.5,19,19.5c10.6,0,19-8.8,19-19.5
					c0-10.7-8.4-19.5-19-19.5V-314L-908.7-314L-908.7-314z"/>
			</defs>
			<defs>
				<path id="SVGID_22_" d="M-893.7-300c10.8,0,19.5,9.4,19.5,21c0,11.6-8.7,21-19.5,21c-10.8,0-19.5-9.4-19.5-21
					C-913.2-290.6-904.4-300-893.7-300L-893.7-300z"/>
			</defs>
			<clipPath id="SVGID_23_">
				<use xlink:href="#SVGID_21_"  style="overflow:visible;"/>
			</clipPath>
			<clipPath id="SVGID_24_" class="st20">
				<use xlink:href="#SVGID_22_"  style="overflow:visible;"/>
			</clipPath>
			<g class="st21">
				
					<image style="overflow:visible;enable-background:new    ;" width="1367" height="769" xlink:href="2FE2999D.jpg"  transform="matrix(0.9991 0 0 0.9991 -1644.0706 -432.1657)">
				</image>
			</g>
		</g>
	</g>
	<g>
		<g>
			<defs>
				<path id="SVGID_25_" d="M-974.6-427.9v180.7c0,0-10.5,64.8,62,115.9C-840.1-80.1-256.2,357-256.2,357l21-789.1L-880.6-453
					L-974.6-427.9L-974.6-427.9z"/>
			</defs>
			<clipPath id="SVGID_26_">
				<use xlink:href="#SVGID_25_"  style="overflow:visible;"/>
			</clipPath>
		</g>
		<g>
			<defs>
				<path id="SVGID_27_" d="M-974.6-427.9v180.7c0,0-10.5,64.8,62,115.9C-840.1-80.1-256.2,357-256.2,357l21-789.1L-880.6-453
					L-974.6-427.9L-974.6-427.9z"/>
			</defs>
			<defs>
				<path id="SVGID_28_" d="M-893.7-300v2.5c9.2,0,17,8.1,17,18.5c0,10.4-7.8,18.5-17,18.5c-9.2,0-17-8.1-17-18.5
					c0-10.4,7.8-18.5,17-18.5V-300v-2.5c-12.3,0-22,10.7-22,23.5c0,12.8,9.7,23.5,22,23.5c12.3,0,22-10.7,22-23.5
					c0-12.8-9.7-23.5-22-23.5V-300L-893.7-300L-893.7-300z"/>
			</defs>
			<clipPath id="SVGID_29_">
				<use xlink:href="#SVGID_27_"  style="overflow:visible;"/>
			</clipPath>
			<clipPath id="SVGID_30_" class="st22">
				<use xlink:href="#SVGID_28_"  style="overflow:visible;"/>
			</clipPath>
			<g class="st23">
				
					<image style="overflow:visible;enable-background:new    ;" width="1367" height="769" xlink:href="2FE2999A.jpg"  transform="matrix(0.9991 0 0 0.9991 -1644.0706 -432.1657)">
				</image>
			</g>
		</g>
	</g>
	<g>
		<g>
			<defs>
				<path id="SVGID_31_" d="M-908.7-314v2.5c7.7,0,14,6.4,14,14.5c0,8.1-6.3,14.5-14,14.5c-7.7,0-14-6.4-14-14.5
					c0-8.1,6.3-14.5,14-14.5V-314v-2.5c-10.6,0-19,8.8-19,19.5c0,10.7,8.4,19.5,19,19.5c10.6,0,19-8.8,19-19.5
					c0-10.7-8.4-19.5-19-19.5V-314L-908.7-314L-908.7-314z"/>
			</defs>
			<clipPath id="SVGID_32_">
				<use xlink:href="#SVGID_31_"  style="overflow:visible;"/>
			</clipPath>
		</g>
		<g>
			<defs>
				<path id="SVGID_33_" d="M-908.7-314v2.5c7.7,0,14,6.4,14,14.5c0,8.1-6.3,14.5-14,14.5c-7.7,0-14-6.4-14-14.5
					c0-8.1,6.3-14.5,14-14.5V-314v-2.5c-10.6,0-19,8.8-19,19.5c0,10.7,8.4,19.5,19,19.5c10.6,0,19-8.8,19-19.5
					c0-10.7-8.4-19.5-19-19.5V-314L-908.7-314L-908.7-314z"/>
			</defs>
			<defs>
				<path id="SVGID_34_" d="M-893.7-300v2.5c9.2,0,17,8.1,17,18.5c0,10.4-7.8,18.5-17,18.5c-9.2,0-17-8.1-17-18.5
					c0-10.4,7.8-18.5,17-18.5V-300v-2.5c-12.3,0-22,10.7-22,23.5c0,12.8,9.7,23.5,22,23.5c12.3,0,22-10.7,22-23.5
					c0-12.8-9.7-23.5-22-23.5V-300L-893.7-300L-893.7-300z"/>
			</defs>
			<clipPath id="SVGID_35_">
				<use xlink:href="#SVGID_33_"  style="overflow:visible;"/>
			</clipPath>
			<clipPath id="SVGID_36_" class="st24">
				<use xlink:href="#SVGID_34_"  style="overflow:visible;"/>
			</clipPath>
			<g class="st25">
				
					<image style="overflow:visible;enable-background:new    ;" width="1367" height="769" xlink:href="2FE29999.jpg"  transform="matrix(0.9991 0 0 0.9991 -1644.0706 -432.1657)">
				</image>
			</g>
		</g>
	</g>
</g>
<image style="overflow:visible;enable-background:new    ;" width="1366" height="769" xlink:href="2FE29988.jpg"  transform="matrix(0.9997 0 0 0.9997 -1450.7864 163.6193)">
</image>
<g>
	<path class="st26" d="M-214.7-122.7c0.5,4.1,0.1,8.4,0.1,12.6c0.5,0.1,1,0.2,1.6,0.3c3.3-11.5,6.5-23.1,10.1-35.6
		c-3.2,1.2-5.7,2.1-8.7,3.3c0.5-5.3,1-10.2,1.6-15.7c-0.6-0.1-1.2-0.1-1.8-0.2l-3.4,33.6C-215-123.8-214.8-123.2-214.7-122.7z"/>
	<path class="st26" d="M-1086-149.7c-0.1-0.1-0.1-0.5-0.1-0.7c-1.7-0.5-3.3-1.1-5.1-1.6c-0.9,1.6-1.6,3.3-2.8,4.5
		c-0.9,0.9-2.5,1.6-3.7,1.5c-0.7-0.1-1.5-1.8-1.8-2.9c-0.5-2.3-0.4-4.7-1-6.9c-0.9-2.9-2.3-5.7-3.5-8.6c-0.4,0.2-0.8,0.4-1.3,0.5
		c-0.1,0.5-0.3,1.1-0.3,1.6l1,40.8c0.1,4.7,0.3,9.3,0.8,14c0.2,2.3,0,5.4,4.2,5.5c0-13.6,0-27,0-40.6c4,0,7.5,0.2,11,0
		c4-0.3,5.1,1.6,5,5.5c-0.2,9.4-0.1,18.8,0,28.1c0,1.7,0.6,3.3,0.9,5c0.5,0,0.9-0.1,1.4-0.1c0.2-1.6,0.5-3.3,0.5-4.9
		c0.1-7.9-0.2-15.8,0.1-23.7C-1080.4-139.3-1080.2-145.5-1086-149.7z"/>
	<path class="st27" d="M-261.6,334l0.9-9h-16.7C-267.2,330.8-261.6,334-261.6,334z"/>
	<path class="st27" d="M-955.7-146.9c-0.1-4.2-0.7-8.5,3-11.8c0.6-0.5,0.3-2.2,0.3-3.4c0-10,0-19.9,0-30.3c5.5,0.1,6.4-3.9,6.1-8.6
		c5.7,0,11.1,0,16.7,0c-0.3,4.1,0.4,7.2,4.6,8.3c0.7,0.2,1.2,2.4,1.3,3.7c0.1,8.1,0,16.1,0.1,24.2c0,1.3-0.3,2.9,0.2,3.9
		c4.8,8,2.8,16.8,3.2,25.3c0,0.6,0,1.2,0.1,1.8c0,0.3,0.2,0.5,1,1.8c2.8-3.3,5.3-6.3,8.1-9.6c1.7,3.4,4.5,4.8,7.2,2.7
		c2.2-1.7,4.9-4.6,5-7.1c0.6-9.3,0.5-18.7,0.2-28c-0.1-5.5,0.7-7.4,5-7.6c0-6.5,0.1-13.1,0-19.6c-0.1-9.8-0.3-19.6-0.4-29.4
		c0-0.9,0-2,0.5-2.5c6.5-6.4,3.3-14.6,3.9-22.1c0.4-5.1-0.1-10.3,0.1-15.4c0.1-1.7,0.7-4.4,1.9-5c4.2-2.1,3.9-5.9,4.2-9.6
		c1.1-15.6,2.3-31.2,3.5-46.8c0-0.5,0.4-1,1.4-1.5c0.6,6.1,1.4,12.2,1.9,18.2c0.9,10.6,1.7,21.2,2.7,31.8c0.1,1.3,0.3,2.8,1.1,3.7
		c6.7,8.3,4.3,18.4,5.1,27.8c0.3,3.2-0.2,6.4-0.4,9.6c-0.3,4.2,0.5,7.2,5.2,8.4c3.3,0.9,4.1,4.3,4.1,7.8
		c-0.1,13.1,0.1,26.1-0.1,39.2c-0.1,3.8,0.4,6.4,5,5.8c0,19.7,0,39.2,0,59.2c6.3,0,12.4,0,18.9,0c0-7.9,0-16.1,0-24.8
		c8,0,15.7-0.5,23.3,0.3c3.1,0.3,6.1,3.2,5.9,7.8c-0.2,7.4-0.1,14.9-0.1,22.5c2.3,0,3.6,0,5.4,0c0-11.6,0-23,0-34.4
		c0-5.4,0.2-10.9,0-16.3c-0.2-4,0.2-7.1,4.2-6.6c1.8-4.1,3.4-7.7,4.9-11.3c0.5,0.1,0.9,0.2,1.4,0.3c0.1,2.6,0.4,5.2,0.3,7.8
		c-0.1,2.6,1.3,3.2,3.3,3.5c2,0.3,2.9-0.4,3.5-2.6c1-3.4,2.5-6.7,3.8-10.2c3,4.1-2.2,12.5,7,13.3c0,7.3,0,14.6,0,22.4
		c8.8,0,17.1,0,26,0c0,4.8,0,9.1,0,13.8c3.8-1.4,6-2.8,3.8-6.8c-0.5-1-1-3-0.5-3.5c3.7-3.6,1.5-6.1-1.4-8.6c3.4-3.2,4.5-6.3,0.2-9.6
		c3.3-3.2,4.1-6.5,0-9.8c3.2-3.3,4.1-6.5,0-9.7c2.9-3.3,4.5-6.6-0.3-10c4.3-3,4.4-6.2,0.7-9.1c3.2-5.8,3.2-5.8-0.1-10
		c1.9-2.9,5.6-6.3-0.1-9.4c2.1-3.5,4.9-6.9-0.2-9.9c2.9-3.5,4.1-6.9-0.1-10.1c3.7-3.1,4.2-6.2,0.3-9.4c2.6-3.4,4.5-6.8,0-9.7
		c1.6-2.6,3.1-4.9,4.8-7.6c-1.9-0.9-3.2-1.5-4.2-2c0.1-2.1,0.2-4,0.3-5.8c1.6-1.7,2.6-3.5,0.2-6.3c-2.9-3.3-0.6-5.2,2.2-6.1
		c5.1-1.6,10.3-2.7,15.5-4c1.3-0.3,2.6-0.7,5.2-1.4c-11.4-6.3-21.7-12.1-32-17.8c0.1-0.3,0.2-0.6,0.3-1c6.9,0,13.8,0,21,0
		c0.3-2.7,0.6-4.9,0.8-7.3c19.7,0,39.3,0,59.1,0c0.4,2.1,0.8,4.2,1.2,6.8c7.3,0,14.7,0,22,0c0.1,0.3,0.1,0.7,0.2,1
		c-10.5,6-20.9,11.9-32.4,18.4c5.6,1.4,10.2,2.6,14.8,3.8c1.6,0.4,3.3,0.8,4.8,1.4c3,1.1,4.8,2.8,2.7,6.5c-1.7,3-0.4,8.9,2.2,11.2
		c-1.7,0.9-3.5,1.8-5.4,2.8c0.7,1.2,1.2,2.4,1.9,3.5c0.7,1.1,1.4,2.2,2.3,3.4c-2.4,3-5.1,6.2,0.4,9.1c-2.7,3.6-4.8,7-0.4,10.2
		c-3.8,4.8-3.8,5-0.1,10c-2.3,3.1-4.8,6.3,0.3,9.5c-2.4,3.2-5,6.4-0.1,9.7c-3.1,3.4-3.8,6.7,0.1,10.1c-3.4,3.1-3.7,6.3,0,9.8
		c-4,2.9-4.2,6.1-0.1,9.1c-1.9,3.2-6.1,6.4,0,9.7c-2,3.3-5.3,6.7,0.4,9.8c-4.4,3.5-4.4,6.9,0,10.1c-3.9,3.1-4.6,6.1-0.8,9.6
		c0.9,0.8,1.1,2.9,1.1,4.4c0.2,3.8,0,7.6,0,11.5c2.9,0,5.4,0,8.3,0c0-16.8,0-33.7,0-50.9c3.1,0,5.7,0,8.8,0c0,4.1,0,8.3,0,12.9
		c5.9,0.3,11.2,0.6,16.9,0.8c0.3,4.9,0.7,9.8,1,14.7c0.6,0,1.1,0,1.7,0c3.3-4.7,1-10.5,2.2-15.9c2.5,0,4.9,0,7.4,0
		c1.6,7.1,6.5,11.6,14.9,13c0.3-3,0.7-5.9,0.8-8.9c0.1-4.4,0.1-8.8,0-13.2c-0.1-3.5-0.1-6.8,5.1-5.7c0.5-8.6,1-16.7,1.5-24.8
		c0.3,0,0.7-0.1,1-0.1c0.2,0.8,0.5,1.7,0.6,2.5c0.1,6,0.1,12,0.1,18c0,2.5,0.7,4.4,3.5,4.3c2.8-0.1,3.5-2.1,3.5-4.5
		c0-5.4,0-10.7,0-16.1c0.4-0.1,0.7-0.2,1.1-0.3c0.4,1.2,0.9,2.4,1,3.6c0.2,3.2,0.3,6.4,0.4,9.7c0,3.2-0.1,6.1,2.5,8.8
		c1.4,1.4,1.5,4.6,1.5,7c0.2,8.1,0.1,16.2,0.1,24.6c5.7,0,10.1,0,15,0c0-6,0-12,0-17.4c7-2.2,13.5-4.3,20.6-6.6
		c0,6.1-0.1,11.5,0,16.8c0.2,9.8,0.5,19.6,1,29.4c0.1,1.3,1.2,2.5,1.8,3.8c0.7-1.2,2-2.3,2.1-3.6c0.7-13.9,1.4-27.7,1.9-41.6
		c0.4-11.9,0.9-23.7,0.5-35.6c-0.9-21.7-2.4-43.5-3.9-65.2c-0.2-3.1,1.3-3.8,3.2-4.1c5.6-0.9,11.3-1.5,17-2.1
		c0.7-0.1,1.4-0.1,2.3-0.2c0.7-2.7,1.3-5.3,1.8-7.1c6.9,3.7,14.3,1,21.3,1.7c0.9,0.1,2-1.5,3.2-2.4c0.4,8.1,6.5,8.7,12.7,9.2
		c3.5,0.3,6.9,0.8,9.9,1.2c-1.3,8-2.7,15.6-3.8,23.3c-0.4,2.9-0.4,5.8-0.4,8.8c0,20.8-0.1,41.7,0,62.5c0.1,11.9,0.4,23.7,0.6,35.5
		c0,1.4,0.3,2.9,0.5,4.5c2.1,0,4,0,6.4,0c0-8,0-15.9,0-24c2.1-0.6,3.8-1,5.9-1.5c0-2.6,0-5.2,0-8.3c13.6,0,26.8,0,40.6,0
		c0-6.4,0-12.4,0-18.3c0-6.3,0-12.6,0-18.9c0-5.2-0.1-5.2-5.7-6.6c0-5.7,0-11.6,0-17.5c-0.1-6.3-0.3-12.6-0.3-18.9
		c-0.1-6.7,0.7-7.3,6.9-7c1.1,0.1,2.2,0,3.9,0c0-10.5,0-20.9,0-31.7c9.3,1.4,9.6-8.4,15.3-12.1c2.2,3,4.3,6.2,6.8,9.1
		c1,1.2,2.8,2.2,4.4,2.4c2.5,0.4,3.8,1.7,3.7,4.3c0,7,0.1,14.1-0.1,21.1c-0.2,5.7,0,6.2,5.2,7.2c1.6,0.3,3.3,0.2,5.3,0.3
		c0,8.6,0,17.3,0,25.9c0,4.5-0.1,9.1,0,13.6c0,2.3-0.1,4.1-3,4.1c-2.4,0-2.9,1.6-2.9,3.8c0,27,0,54,0,81c0,3,1.1,4.1,4.1,3.9
		c4.6-0.3,9.2-0.1,14.2-0.1c0.2-1.7,0.4-3.3,0.4-4.8c0-48,0-95.9,0-143.9c0-8.7-0.2-17.5,0.1-26.2c0-1.5,1.8-2.9,2.8-4.3
		c1.1-1.5,3.2-3.2,3.1-4.5c-0.2-1.4-2.4-2.8-4.1-3.5c-1.5-0.6-3.3-0.1-5.1-0.1c-0.6-2.9-2-5.7,2-6.9c0.1,0,0.4-0.1,0.4-0.1
		c-1.3-6.5,8-7.2,6.4-14.1c6.4,0,12.5,0,19.1,0c0-5.8,0-11.1,0-16.6c2.6-0.5,4.8-0.9,6.9-1.3c0.3-2.2,0.6-4.4,1-6.6
		c0.2,0,0.4,0,0.7,0c0.4,2.2,0.7,4.4,1.1,7c2.6-0.8,6.3,1.8,7.3-4.7c1.2,6.6,5.3,4.5,8.1,4.5c4.4-0.1,0.9-4.9,2.9-6.8
		c0.2,0.2,0.5,0.3,0.5,0.4c0.5,6.4,0.5,6.4,6.6,6.4c6.4,0,12.8,0,19.5,0c0.3-1.7,0.5-3,0.7-4.4c0.6,5.8,5.3,4.5,9,5.3
		c0,5.4,0,10.6,0,16.4c5.1,0,9.9,0.1,14.6,0c2.9-0.1,4.2,1.2,5.5,4.1c1.8,3.9,5,7.1,7.3,10.8c0.7,1.2,1.1,2.9,1,4.3
		c0,0.8-1.2,1.8-2.1,2.1c-1.4,0.5-3.1,0.3-4.5,0.9c-1.4,0.7-3.1,1.8-3.6,3.1c-0.8,2.2,0.3,3.7,2.9,4.1c3.4,0.6,3.6,3.6,3.6,6.5
		c0,12.9,0,25.8,0,38.7c0,50.2,0,100.3,0,150.5c0,1.4-0.7,3-0.3,4.3c0.3,1.2,1.6,2.1,2.5,3.1c0.7-1,2-2,2.1-3
		c0.3-3.4,0.1-6.9,0.1-10.7c1.5-0.4,3.3-0.9,5.4-1.5c0-2.7,0-5.3,0-8.4c4.2,0,8.2-0.4,11.9,0.2c0.9,0.1,2,1.5,2.6,2.9l3.4-33.6
		c-4.1-0.4-8.2-0.8-12.7-1.3c1.3-6.5,5.7-10.3,10.5-14.1c-1.6-1.8-3-3.3-4.4-4.9c3-2.4,6-4,9-4.4l27.2-269.3h-793.5v252.6
		c0,0,0.4,22.2,15.2,56.3c0.3,0,0.5,0,0.8,0C-956.9-143.1-955.7-144.1-955.7-146.9z"/>
	<path class="st27" d="M-214-173.4c-4.9,3.8-9.2,7.6-10.5,14.1c4.5,0.5,8.6,0.9,12.7,1.3l2.5-24.7c-3,0.5-6,2-9,4.4
		C-217-176.7-215.6-175.2-214-173.4z"/>
	
		<linearGradient id="SVGID_37_" gradientUnits="userSpaceOnUse" x1="-1249.124" y1="938.3805" x2="-156.1123" y2="938.3805" gradientTransform="matrix(1 0 0 -1 0 768)">
		<stop  offset="0" style="stop-color:#F3761D"/>
		<stop  offset="1" style="stop-color:#F08D0E"/>
	</linearGradient>
	<path class="st28" d="M-214-173.4c-4.9,3.8-9.2,7.6-10.5,14.1c4.5,0.5,8.6,0.9,12.7,1.3l2.5-24.7c-3,0.5-6,2-9,4.4
		C-217-176.7-215.6-175.2-214-173.4z"/>
	<path class="st27" d="M-217.9-127.3c-3.8-0.6-7.7-0.2-11.9-0.2c0,3.1,0,5.6,0,8.4c-2.1,0.6-3.9,1.1-5.4,1.5c0,3.8,0.2,7.3-0.1,10.7
		c-0.1,1.1-1.4,2-2.1,3c-0.9-1-2.2-1.9-2.5-3.1c-0.4-1.3,0.3-2.8,0.3-4.3c0-50.2,0-100.3,0-150.5c0-12.9,0-25.8,0-38.7
		c0-2.9-0.1-5.9-3.6-6.5c-2.6-0.4-3.7-1.9-2.9-4.1c0.5-1.3,2.2-2.5,3.6-3.1c1.3-0.6,3.1-0.4,4.5-0.9c0.9-0.3,2.1-1.3,2.1-2.1
		c0.1-1.4-0.3-3.1-1-4.3c-2.4-3.7-5.5-6.9-7.3-10.8c-1.3-2.9-2.6-4.2-5.5-4.1c-4.7,0.1-9.4,0-14.6,0c0-5.8,0-11,0-16.4
		c-3.8-0.8-8.4,0.4-9-5.3c-0.2,1.4-0.5,2.8-0.7,4.4c-6.6,0-13,0-19.5,0c-6.1,0-6.1,0-6.6-6.4c0-0.2-0.3-0.3-0.5-0.4
		c-2,1.9,1.5,6.6-2.9,6.8c-2.8,0.1-6.9,2.2-8.1-4.5c-1,6.4-4.7,3.9-7.3,4.7c-0.4-2.6-0.8-4.8-1.1-7c-0.2,0-0.4,0-0.7,0
		c-0.3,2.2-0.6,4.4-1,6.6c-2.2,0.4-4.3,0.8-6.9,1.3c0,5.4,0,10.8,0,16.6c-6.6,0-12.7,0-19.1,0c1.5,6.9-7.7,7.6-6.4,14.1
		c0,0-0.2,0.1-0.4,0.1c-4,1.2-2.5,4-2,6.9c1.8,0,3.7-0.5,5.1,0.1c1.6,0.7,3.9,2.1,4.1,3.5c0.2,1.4-2,3-3.1,4.5
		c-1,1.4-2.7,2.8-2.8,4.3c-0.2,8.7-0.1,17.5-0.1,26.2c0,48,0,95.9,0,143.9c0,1.5-0.3,3.1-0.4,4.8c-5,0-9.7-0.2-14.2,0.1
		c-3,0.2-4.1-0.9-4.1-3.9c0-27,0-54,0-81c0-2.2,0.5-3.8,2.9-3.8c2.9,0,3-1.8,3-4.1c-0.1-4.5,0-9.1,0-13.6c0-8.6,0-17.3,0-25.9
		c-2-0.1-3.7,0-5.3-0.3c-5.3-1-5.4-1.5-5.2-7.2c0.2-7,0.1-14.1,0.1-21.1c0-2.6-1.2-3.9-3.7-4.3c-1.6-0.3-3.3-1.2-4.4-2.4
		c-2.5-2.9-4.6-6.1-6.8-9.1c-5.7,3.7-6,13.5-15.3,12.1c0,10.9,0,21.2,0,31.7c-1.6,0-2.7,0-3.9,0c-6.3-0.3-7,0.4-6.9,7
		c0,6.3,0.3,12.6,0.3,18.9c0.1,5.9,0,11.8,0,17.5c5.6,1.4,5.6,1.4,5.7,6.6c0.1,6.3,0,12.6,0,18.9c0,6,0,11.9,0,18.3
		c-13.8,0-27,0-40.6,0c0,3.1,0,5.7,0,8.3c-2,0.5-3.8,1-5.9,1.5c0,8.1,0,16.1,0,24c-2.3,0-4.2,0-6.4,0c-0.2-1.7-0.4-3.1-0.5-4.5
		c-0.2-11.8-0.5-23.7-0.6-35.5c-0.1-20.8-0.1-41.7,0-62.5c0-2.9,0-5.9,0.4-8.8c1.1-7.7,2.5-15.4,3.8-23.3c-3-0.4-6.5-0.9-9.9-1.2
		c-6.2-0.6-12.4-1.1-12.7-9.2c-1.2,0.9-2.2,2.4-3.2,2.4c-7-0.7-14.4,2.1-21.3-1.7c-0.5,1.8-1.1,4.5-1.8,7.1
		c-0.9,0.1-1.6,0.1-2.3,0.2c-5.7,0.7-11.3,1.2-17,2.1c-1.8,0.3-3.4,1-3.2,4.1c1.5,21.7,3,43.4,3.9,65.2c0.5,11.8-0.1,23.7-0.5,35.6
		c-0.4,13.9-1.1,27.8-1.9,41.6c-0.1,1.2-1.4,2.4-2.1,3.6c-0.6-1.3-1.7-2.5-1.8-3.8c-0.4-9.8-0.7-19.6-1-29.4c-0.1-5.4,0-10.8,0-16.8
		c-7.1,2.3-13.5,4.3-20.6,6.6c0,5.5,0,11.4,0,17.4c-4.9,0-9.3,0-15,0c0-8.3,0.1-16.4-0.1-24.6c-0.1-2.4-0.1-5.6-1.5-7
		c-2.6-2.7-2.5-5.6-2.5-8.8c0-3.2-0.1-6.4-0.4-9.7c-0.1-1.2-0.7-2.4-1-3.6c-0.4,0.1-0.7,0.2-1.1,0.3c0,5.4,0,10.7,0,16.1
		c0,2.4-0.7,4.4-3.5,4.5c-2.8,0.1-3.5-1.9-3.5-4.3c0-6,0-12-0.1-18c0-0.8-0.4-1.7-0.6-2.5c-0.3,0-0.7,0.1-1,0.1
		c-0.5,8.1-1,16.2-1.5,24.8c-5.3-1.1-5.2,2.2-5.1,5.7c0.1,4.4,0.1,8.8,0,13.2c-0.1,3-0.5,5.9-0.8,8.9c-8.4-1.4-13.3-5.9-14.9-13
		c-2.5,0-5,0-7.4,0c-1.2,5.4,1.1,11.2-2.2,15.9c-0.6,0-1.1,0-1.7,0c-0.3-4.9-0.7-9.8-1-14.7c-5.7-0.3-11-0.5-16.9-0.8
		c0-4.6,0-8.8,0-12.9c-3.1,0-5.7,0-8.8,0c0,17.2,0,34.1,0,50.9c-3,0-5.5,0-8.3,0c0-4,0.1-7.8,0-11.5c-0.1-1.5-0.2-3.6-1.1-4.4
		c-3.8-3.5-3.1-6.4,0.8-9.6c-4.4-3.2-4.4-6.6,0-10.1c-5.7-3.1-2.4-6.5-0.4-9.8c-6-3.4-1.9-6.5,0-9.7c-4.2-3.1-3.9-6.2,0.1-9.1
		c-3.7-3.5-3.4-6.7,0-9.8c-3.9-3.4-3.2-6.8-0.1-10.1c-4.8-3.4-2.2-6.6,0.1-9.7c-5.1-3.2-2.7-6.4-0.3-9.5c-3.7-5-3.7-5.2,0.1-10
		c-4.4-3.2-2.3-6.6,0.4-10.2c-5.5-2.8-2.8-6-0.4-9.1c-0.9-1.3-1.6-2.3-2.3-3.4c-0.7-1.1-1.2-2.2-1.9-3.5c1.9-1,3.6-1.9,5.4-2.8
		c-2.6-2.3-3.9-8.2-2.2-11.2c2.1-3.8,0.3-5.4-2.7-6.5c-1.6-0.6-3.2-0.9-4.8-1.4c-4.6-1.2-9.2-2.3-14.8-3.8
		c11.5-6.5,21.9-12.5,32.4-18.4c-0.1-0.3-0.1-0.7-0.2-1c-7.3,0-14.6,0-22,0c-0.5-2.6-0.9-4.7-1.2-6.8c-19.8,0-39.4,0-59.1,0
		c-0.3,2.4-0.5,4.7-0.8,7.3c-7.2,0-14.1,0-21,0c-0.1,0.3-0.2,0.6-0.3,1c10.3,5.8,20.7,11.5,32,17.8c-2.6,0.7-3.9,1.1-5.2,1.4
		c-5.2,1.3-10.4,2.4-15.5,4c-2.8,0.9-5,2.8-2.2,6.1c2.4,2.8,1.4,4.6-0.2,6.3c-0.1,1.8-0.2,3.7-0.3,5.8c1,0.5,2.3,1.1,4.2,2
		c-1.7,2.6-3.2,5-4.8,7.6c4.5,2.9,2.5,6.3,0,9.7c3.9,3.2,3.5,6.3-0.3,9.4c4.2,3.2,3,6.6,0.1,10.1c5.1,3.1,2.3,6.4,0.2,9.9
		c5.7,3.1,1.9,6.4,0.1,9.4c3.3,4.2,3.3,4.2,0.1,10c3.7,2.9,3.6,6.1-0.7,9.1c4.8,3.4,3.2,6.7,0.3,10c4.1,3.2,3.2,6.4,0,9.7
		c4.1,3.2,3.3,6.5,0,9.8c4.3,3.3,3.2,6.5-0.2,9.6c2.9,2.5,5.1,5,1.4,8.6c-0.5,0.5-0.1,2.5,0.5,3.5c2.3,4,0.1,5.4-3.8,6.8
		c0-4.7,0-9,0-13.8c-8.9,0-17.2,0-26,0c0-7.8,0-15.1,0-22.4c-9.3-0.7-4-9.1-7-13.3c-1.3,3.5-2.8,6.8-3.8,10.2
		c-0.6,2.2-1.5,2.9-3.5,2.6c-2-0.3-3.4-0.9-3.3-3.5c0.1-2.6-0.2-5.2-0.3-7.8c-0.5-0.1-0.9-0.2-1.4-0.3c-1.6,3.6-3.1,7.2-4.9,11.3
		c-4-0.4-4.4,2.6-4.2,6.6c0.2,5.4,0,10.9,0,16.3c0,11.4,0,22.8,0,34.4c-1.7,0-3,0-5.4,0c0-7.6-0.2-15.1,0.1-22.5
		c0.2-4.6-2.8-7.5-5.9-7.8c-7.6-0.8-15.3-0.3-23.3-0.3c0,8.7,0,16.9,0,24.8c-6.5,0-12.5,0-18.9,0c0-20,0-39.4,0-59.2
		c-4.6,0.6-5.1-2-5-5.8c0.2-13.1,0-26.1,0.1-39.2c0-3.5-0.8-7-4.1-7.8c-4.7-1.2-5.5-4.2-5.2-8.4c0.2-3.2,0.7-6.4,0.4-9.6
		c-0.8-9.4,1.6-19.5-5.1-27.8c-0.7-0.9-1-2.5-1.1-3.7c-0.9-10.6-1.7-21.2-2.7-31.8c-0.5-6.1-1.3-12.2-1.9-18.2
		c-1.1,0.5-1.4,1-1.4,1.5c-1.2,15.6-2.3,31.2-3.5,46.8c-0.3,3.7,0,7.5-4.2,9.6c-1.2,0.6-1.8,3.2-1.9,5c-0.2,5.1,0.3,10.3-0.1,15.4
		c-0.6,7.4,2.6,15.7-3.9,22.1c-0.5,0.5-0.5,1.7-0.5,2.5c0.1,9.8,0.3,19.6,0.4,29.4c0.1,6.6,0,13.1,0,19.6c-4.4,0.3-5.2,2.2-5,7.6
		c0.2,9.3,0.4,18.7-0.2,28c-0.2,2.5-2.8,5.5-5,7.1c-2.7,2.1-5.5,0.7-7.2-2.7c-2.8,3.3-5.4,6.3-8.1,9.6c-0.7-1.3-0.9-1.5-1-1.8
		c-0.1-0.6-0.1-1.2-0.1-1.8c-0.4-8.5,1.6-17.3-3.2-25.3c-0.6-1-0.2-2.6-0.2-3.9c0-8.1,0-16.1-0.1-24.2c0-1.3-0.6-3.5-1.3-3.7
		c-4.2-1.1-4.9-4.2-4.6-8.3c-5.6,0-11,0-16.7,0c0.3,4.7-0.5,8.7-6.1,8.6c0,10.3,0,20.3,0,30.3c0,1.2,0.3,2.9-0.3,3.4
		c-3.7,3.3-3,7.6-3,11.8c0,2.9-1.2,3.9-3.9,3.8c-0.3,0-0.5,0-0.8,0C-940-96.5-892.6-27.8-781.8,36.3
		c166.6,96.3,436.6,250.2,504.3,288.7h16.7l45.5-449.4C-215.9-125.8-217-127.1-217.9-127.3z"/>
	
		<linearGradient id="SVGID_38_" gradientUnits="userSpaceOnUse" x1="-1249.124" y1="785.6809" x2="-156.1123" y2="785.6809" gradientTransform="matrix(1 0 0 -1 0 768)">
		<stop  offset="0" style="stop-color:#F3761D"/>
		<stop  offset="1" style="stop-color:#F08D0E"/>
	</linearGradient>
	<path class="st29" d="M-217.9-127.3c-3.8-0.6-7.7-0.2-11.9-0.2c0,3.1,0,5.6,0,8.4c-2.1,0.6-3.9,1.1-5.4,1.5c0,3.8,0.2,7.3-0.1,10.7
		c-0.1,1.1-1.4,2-2.1,3c-0.9-1-2.2-1.9-2.5-3.1c-0.4-1.3,0.3-2.8,0.3-4.3c0-50.2,0-100.3,0-150.5c0-12.9,0-25.8,0-38.7
		c0-2.9-0.1-5.9-3.6-6.5c-2.6-0.4-3.7-1.9-2.9-4.1c0.5-1.3,2.2-2.5,3.6-3.1c1.3-0.6,3.1-0.4,4.5-0.9c0.9-0.3,2.1-1.3,2.1-2.1
		c0.1-1.4-0.3-3.1-1-4.3c-2.4-3.7-5.5-6.9-7.3-10.8c-1.3-2.9-2.6-4.2-5.5-4.1c-4.7,0.1-9.4,0-14.6,0c0-5.8,0-11,0-16.4
		c-3.8-0.8-8.4,0.4-9-5.3c-0.2,1.4-0.5,2.8-0.7,4.4c-6.6,0-13,0-19.5,0c-6.1,0-6.1,0-6.6-6.4c0-0.2-0.3-0.3-0.5-0.4
		c-2,1.9,1.5,6.6-2.9,6.8c-2.8,0.1-6.9,2.2-8.1-4.5c-1,6.4-4.7,3.9-7.3,4.7c-0.4-2.6-0.8-4.8-1.1-7c-0.2,0-0.4,0-0.7,0
		c-0.3,2.2-0.6,4.4-1,6.6c-2.2,0.4-4.3,0.8-6.9,1.3c0,5.4,0,10.8,0,16.6c-6.6,0-12.7,0-19.1,0c1.5,6.9-7.7,7.6-6.4,14.1
		c0,0-0.2,0.1-0.4,0.1c-4,1.2-2.5,4-2,6.9c1.8,0,3.7-0.5,5.1,0.1c1.6,0.7,3.9,2.1,4.1,3.5c0.2,1.4-2,3-3.1,4.5
		c-1,1.4-2.7,2.8-2.8,4.3c-0.2,8.7-0.1,17.5-0.1,26.2c0,48,0,95.9,0,143.9c0,1.5-0.3,3.1-0.4,4.8c-5,0-9.7-0.2-14.2,0.1
		c-3,0.2-4.1-0.9-4.1-3.9c0-27,0-54,0-81c0-2.2,0.5-3.8,2.9-3.8c2.9,0,3-1.8,3-4.1c-0.1-4.5,0-9.1,0-13.6c0-8.6,0-17.3,0-25.9
		c-2-0.1-3.7,0-5.3-0.3c-5.3-1-5.4-1.5-5.2-7.2c0.2-7,0.1-14.1,0.1-21.1c0-2.6-1.2-3.9-3.7-4.3c-1.6-0.3-3.3-1.2-4.4-2.4
		c-2.5-2.9-4.6-6.1-6.8-9.1c-5.7,3.7-6,13.5-15.3,12.1c0,10.9,0,21.2,0,31.7c-1.6,0-2.7,0-3.9,0c-6.3-0.3-7,0.4-6.9,7
		c0,6.3,0.3,12.6,0.3,18.9c0.1,5.9,0,11.8,0,17.5c5.6,1.4,5.6,1.4,5.7,6.6c0.1,6.3,0,12.6,0,18.9c0,6,0,11.9,0,18.3
		c-13.8,0-27,0-40.6,0c0,3.1,0,5.7,0,8.3c-2,0.5-3.8,1-5.9,1.5c0,8.1,0,16.1,0,24c-2.3,0-4.2,0-6.4,0c-0.2-1.7-0.4-3.1-0.5-4.5
		c-0.2-11.8-0.5-23.7-0.6-35.5c-0.1-20.8-0.1-41.7,0-62.5c0-2.9,0-5.9,0.4-8.8c1.1-7.7,2.5-15.4,3.8-23.3c-3-0.4-6.5-0.9-9.9-1.2
		c-6.2-0.6-12.4-1.1-12.7-9.2c-1.2,0.9-2.2,2.4-3.2,2.4c-7-0.7-14.4,2.1-21.3-1.7c-0.5,1.8-1.1,4.5-1.8,7.1
		c-0.9,0.1-1.6,0.1-2.3,0.2c-5.7,0.7-11.3,1.2-17,2.1c-1.8,0.3-3.4,1-3.2,4.1c1.5,21.7,3,43.4,3.9,65.2c0.5,11.8-0.1,23.7-0.5,35.6
		c-0.4,13.9-1.1,27.8-1.9,41.6c-0.1,1.2-1.4,2.4-2.1,3.6c-0.6-1.3-1.7-2.5-1.8-3.8c-0.4-9.8-0.7-19.6-1-29.4c-0.1-5.4,0-10.8,0-16.8
		c-7.1,2.3-13.5,4.3-20.6,6.6c0,5.5,0,11.4,0,17.4c-4.9,0-9.3,0-15,0c0-8.3,0.1-16.4-0.1-24.6c-0.1-2.4-0.1-5.6-1.5-7
		c-2.6-2.7-2.5-5.6-2.5-8.8c0-3.2-0.1-6.4-0.4-9.7c-0.1-1.2-0.7-2.4-1-3.6c-0.4,0.1-0.7,0.2-1.1,0.3c0,5.4,0,10.7,0,16.1
		c0,2.4-0.7,4.4-3.5,4.5c-2.8,0.1-3.5-1.9-3.5-4.3c0-6,0-12-0.1-18c0-0.8-0.4-1.7-0.6-2.5c-0.3,0-0.7,0.1-1,0.1
		c-0.5,8.1-1,16.2-1.5,24.8c-5.3-1.1-5.2,2.2-5.1,5.7c0.1,4.4,0.1,8.8,0,13.2c-0.1,3-0.5,5.9-0.8,8.9c-8.4-1.4-13.3-5.9-14.9-13
		c-2.5,0-5,0-7.4,0c-1.2,5.4,1.1,11.2-2.2,15.9c-0.6,0-1.1,0-1.7,0c-0.3-4.9-0.7-9.8-1-14.7c-5.7-0.3-11-0.5-16.9-0.8
		c0-4.6,0-8.8,0-12.9c-3.1,0-5.7,0-8.8,0c0,17.2,0,34.1,0,50.9c-3,0-5.5,0-8.3,0c0-4,0.1-7.8,0-11.5c-0.1-1.5-0.2-3.6-1.1-4.4
		c-3.8-3.5-3.1-6.4,0.8-9.6c-4.4-3.2-4.4-6.6,0-10.1c-5.7-3.1-2.4-6.5-0.4-9.8c-6-3.4-1.9-6.5,0-9.7c-4.2-3.1-3.9-6.2,0.1-9.1
		c-3.7-3.5-3.4-6.7,0-9.8c-3.9-3.4-3.2-6.8-0.1-10.1c-4.8-3.4-2.2-6.6,0.1-9.7c-5.1-3.2-2.7-6.4-0.3-9.5c-3.7-5-3.7-5.2,0.1-10
		c-4.4-3.2-2.3-6.6,0.4-10.2c-5.5-2.8-2.8-6-0.4-9.1c-0.9-1.3-1.6-2.3-2.3-3.4c-0.7-1.1-1.2-2.2-1.9-3.5c1.9-1,3.6-1.9,5.4-2.8
		c-2.6-2.3-3.9-8.2-2.2-11.2c2.1-3.8,0.3-5.4-2.7-6.5c-1.6-0.6-3.2-0.9-4.8-1.4c-4.6-1.2-9.2-2.3-14.8-3.8
		c11.5-6.5,21.9-12.5,32.4-18.4c-0.1-0.3-0.1-0.7-0.2-1c-7.3,0-14.6,0-22,0c-0.5-2.6-0.9-4.7-1.2-6.8c-19.8,0-39.4,0-59.1,0
		c-0.3,2.4-0.5,4.7-0.8,7.3c-7.2,0-14.1,0-21,0c-0.1,0.3-0.2,0.6-0.3,1c10.3,5.8,20.7,11.5,32,17.8c-2.6,0.7-3.9,1.1-5.2,1.4
		c-5.2,1.3-10.4,2.4-15.5,4c-2.8,0.9-5,2.8-2.2,6.1c2.4,2.8,1.4,4.6-0.2,6.3c-0.1,1.8-0.2,3.7-0.3,5.8c1,0.5,2.3,1.1,4.2,2
		c-1.7,2.6-3.2,5-4.8,7.6c4.5,2.9,2.5,6.3,0,9.7c3.9,3.2,3.5,6.3-0.3,9.4c4.2,3.2,3,6.6,0.1,10.1c5.1,3.1,2.3,6.4,0.2,9.9
		c5.7,3.1,1.9,6.4,0.1,9.4c3.3,4.2,3.3,4.2,0.1,10c3.7,2.9,3.6,6.1-0.7,9.1c4.8,3.4,3.2,6.7,0.3,10c4.1,3.2,3.2,6.4,0,9.7
		c4.1,3.2,3.3,6.5,0,9.8c4.3,3.3,3.2,6.5-0.2,9.6c2.9,2.5,5.1,5,1.4,8.6c-0.5,0.5-0.1,2.5,0.5,3.5c2.3,4,0.1,5.4-3.8,6.8
		c0-4.7,0-9,0-13.8c-8.9,0-17.2,0-26,0c0-7.8,0-15.1,0-22.4c-9.3-0.7-4-9.1-7-13.3c-1.3,3.5-2.8,6.8-3.8,10.2
		c-0.6,2.2-1.5,2.9-3.5,2.6c-2-0.3-3.4-0.9-3.3-3.5c0.1-2.6-0.2-5.2-0.3-7.8c-0.5-0.1-0.9-0.2-1.4-0.3c-1.6,3.6-3.1,7.2-4.9,11.3
		c-4-0.4-4.4,2.6-4.2,6.6c0.2,5.4,0,10.9,0,16.3c0,11.4,0,22.8,0,34.4c-1.7,0-3,0-5.4,0c0-7.6-0.2-15.1,0.1-22.5
		c0.2-4.6-2.8-7.5-5.9-7.8c-7.6-0.8-15.3-0.3-23.3-0.3c0,8.7,0,16.9,0,24.8c-6.5,0-12.5,0-18.9,0c0-20,0-39.4,0-59.2
		c-4.6,0.6-5.1-2-5-5.8c0.2-13.1,0-26.1,0.1-39.2c0-3.5-0.8-7-4.1-7.8c-4.7-1.2-5.5-4.2-5.2-8.4c0.2-3.2,0.7-6.4,0.4-9.6
		c-0.8-9.4,1.6-19.5-5.1-27.8c-0.7-0.9-1-2.5-1.1-3.7c-0.9-10.6-1.7-21.2-2.7-31.8c-0.5-6.1-1.3-12.2-1.9-18.2
		c-1.1,0.5-1.4,1-1.4,1.5c-1.2,15.6-2.3,31.2-3.5,46.8c-0.3,3.7,0,7.5-4.2,9.6c-1.2,0.6-1.8,3.2-1.9,5c-0.2,5.1,0.3,10.3-0.1,15.4
		c-0.6,7.4,2.6,15.7-3.9,22.1c-0.5,0.5-0.5,1.7-0.5,2.5c0.1,9.8,0.3,19.6,0.4,29.4c0.1,6.6,0,13.1,0,19.6c-4.4,0.3-5.2,2.2-5,7.6
		c0.2,9.3,0.4,18.7-0.2,28c-0.2,2.5-2.8,5.5-5,7.1c-2.7,2.1-5.5,0.7-7.2-2.7c-2.8,3.3-5.4,6.3-8.1,9.6c-0.7-1.3-0.9-1.5-1-1.8
		c-0.1-0.6-0.1-1.2-0.1-1.8c-0.4-8.5,1.6-17.3-3.2-25.3c-0.6-1-0.2-2.6-0.2-3.9c0-8.1,0-16.1-0.1-24.2c0-1.3-0.6-3.5-1.3-3.7
		c-4.2-1.1-4.9-4.2-4.6-8.3c-5.6,0-11,0-16.7,0c0.3,4.7-0.5,8.7-6.1,8.6c0,10.3,0,20.3,0,30.3c0,1.2,0.3,2.9-0.3,3.4
		c-3.7,3.3-3,7.6-3,11.8c0,2.9-1.2,3.9-3.9,3.8c-0.3,0-0.5,0-0.8,0C-940-96.5-892.6-27.8-781.8,36.3
		c166.6,96.3,436.6,250.2,504.3,288.7h16.7l45.5-449.4C-215.9-125.8-217-127.1-217.9-127.3z"/>
</g>
<circle class="st30" cx="-934.2" cy="-361.1" r="15.1"/>
<circle class="st31" cx="-923.7" cy="-348" r="15.1"/>
<line class="st32" x1="-426.8" y1="-207" x2="-402.2" y2="-191"/>
<rect x="-843.6" y="-443" transform="matrix(0.5161 -0.8565 0.8565 0.5161 62.3851 -581.6511)" class="st33" width="720" height="194"/>
<line class="st32" x1="-401.4" y1="-206.5" x2="-426" y2="-190.5"/>
<linearGradient id="SVGID_39_" gradientUnits="userSpaceOnUse" x1="493.0506" y1="942.3613" x2="525.1373" y2="942.3613" gradientTransform="matrix(0.9957 -9.260000e-02 -9.260000e-02 -0.9957 52.1568 820.9388)">
	<stop  offset="0" style="stop-color:#F3761D"/>
	<stop  offset="1" style="stop-color:#F08D0E"/>
</linearGradient>
<line class="st34" x1="456.4" y1="-184.8" x2="487.2" y2="-144.2"/>
<linearGradient id="SVGID_40_" gradientUnits="userSpaceOnUse" x1="433.103" y1="891.884" x2="433.103" y2="891.884" gradientTransform="matrix(1 0 0 -1 0 768)">
	<stop  offset="0" style="stop-color:#F3761D"/>
	<stop  offset="1" style="stop-color:#F08D0E"/>
</linearGradient>
<path class="st35" d="M433.1-123.9"/>
<linearGradient id="SVGID_41_" gradientUnits="userSpaceOnUse" x1="520.5596" y1="939.803" x2="552.6462" y2="939.803" gradientTransform="matrix(-0.9957 -9.260000e-02 9.260000e-02 -0.9957 919.0688 820.9388)">
	<stop  offset="0" style="stop-color:#F3761D"/>
	<stop  offset="1" style="stop-color:#F08D0E"/>
</linearGradient>
<line class="st36" x1="487.2" y1="-184.8" x2="456.4" y2="-144.2"/>
<rect x="-972.6" y="-444.3" transform="matrix(0.5161 -0.8565 0.8565 0.5161 -45.273 -713.1819)" class="st33" width="637.5" height="255.5"/>
<linearGradient id="SVGID_42_" gradientUnits="userSpaceOnUse" x1="-1249.124" y1="785.6809" x2="-156.1123" y2="785.6809" gradientTransform="matrix(1 0 0 -1 0 768)">
	<stop  offset="0" style="stop-color:#F3761D"/>
	<stop  offset="1" style="stop-color:#F08D0E"/>
</linearGradient>
<path class="st37" d="M-217.9-127.3c-3.8-0.6-7.7-0.2-11.9-0.2c0,3.1,0,5.6,0,8.4c-2.1,0.6-3.9,1.1-5.4,1.5c0,3.8,0.2,7.3-0.1,10.7
	c-0.1,1.1-1.4,2-2.1,3c-0.9-1-2.2-1.9-2.5-3.1c-0.4-1.3,0.3-2.8,0.3-4.3c0-50.2,0-100.3,0-150.5c0-12.9,0-25.8,0-38.7
	c0-2.9-0.1-5.9-3.6-6.5c-2.6-0.4-3.7-1.9-2.9-4.1c0.5-1.3,2.2-2.5,3.6-3.1c1.3-0.6,3.1-0.4,4.5-0.9c0.9-0.3,2.1-1.3,2.1-2.1
	c0.1-1.4-0.3-3.1-1-4.3c-2.4-3.7-5.5-6.9-7.3-10.8c-1.3-2.9-2.6-4.2-5.5-4.1c-4.7,0.1-9.4,0-14.6,0c0-5.8,0-11,0-16.4
	c-3.8-0.8-8.4,0.4-9-5.3c-0.2,1.4-0.5,2.8-0.7,4.4c-6.6,0-13,0-19.5,0c-6.1,0-6.1,0-6.6-6.4c0-0.2-0.3-0.3-0.5-0.4
	c-2,1.9,1.5,6.6-2.9,6.8c-2.8,0.1-6.9,2.2-8.1-4.5c-1,6.4-4.7,3.9-7.3,4.7c-0.4-2.6-0.8-4.8-1.1-7c-0.2,0-0.4,0-0.7,0
	c-0.3,2.2-0.6,4.4-1,6.6c-2.2,0.4-4.3,0.8-6.9,1.3c0,5.4,0,10.8,0,16.6c-6.6,0-12.7,0-19.1,0c1.5,6.9-7.7,7.6-6.4,14.1
	c0,0-0.2,0.1-0.4,0.1c-4,1.2-2.5,4-2,6.9c1.8,0,3.7-0.5,5.1,0.1c1.6,0.7,3.9,2.1,4.1,3.5c0.2,1.4-2,3-3.1,4.5
	c-1,1.4-2.7,2.8-2.8,4.3c-0.2,8.7-0.1,17.5-0.1,26.2c0,48,0,95.9,0,143.9c0,1.5-0.3,3.1-0.4,4.8c-5,0-9.7-0.2-14.2,0.1
	c-3,0.2-4.1-0.9-4.1-3.9c0-27,0-54,0-81c0-2.2,0.5-3.8,2.9-3.8c2.9,0,3-1.8,3-4.1c-0.1-4.5,0-9.1,0-13.6c0-8.6,0-17.3,0-25.9
	c-2-0.1-3.7,0-5.3-0.3c-5.3-1-5.4-1.5-5.2-7.2c0.2-7,0.1-14.1,0.1-21.1c0-2.6-1.2-3.9-3.7-4.3c-1.6-0.3-3.3-1.2-4.4-2.4
	c-2.5-2.9-4.6-6.1-6.8-9.1c-5.7,3.7-6,13.5-15.3,12.1c0,10.9,0,21.2,0,31.7c-1.6,0-2.7,0-3.9,0c-6.3-0.3-7,0.4-6.9,7
	c0,6.3,0.3,12.6,0.3,18.9c0.1,5.9,0,11.8,0,17.5c5.6,1.4,5.6,1.4,5.7,6.6c0.1,6.3,0,12.6,0,18.9c0,6,0,11.9,0,18.3
	c-13.8,0-27,0-40.6,0c0,3.1,0,5.7,0,8.3c-2,0.5-3.8,1-5.9,1.5c0,8.1,0,16.1,0,24c-2.3,0-4.2,0-6.4,0c-0.2-1.7-0.4-3.1-0.5-4.5
	c-0.2-11.8-0.5-23.7-0.6-35.5c-0.1-20.8-0.1-41.7,0-62.5c0-2.9,0-5.9,0.4-8.8c1.1-7.7,2.5-15.4,3.8-23.3c-3-0.4-6.5-0.9-9.9-1.2
	c-6.2-0.6-12.4-1.1-12.7-9.2c-1.2,0.9-2.2,2.4-3.2,2.4c-7-0.7-14.4,2.1-21.3-1.7c-0.5,1.8-1.1,4.5-1.8,7.1c-0.9,0.1-1.6,0.1-2.3,0.2
	c-5.7,0.7-11.3,1.2-17,2.1c-1.8,0.3-3.4,1-3.2,4.1c1.5,21.7,3,43.4,3.9,65.2c0.5,11.8-0.1,23.7-0.5,35.6
	c-0.4,13.9-1.1,27.8-1.9,41.6c-0.1,1.2-1.4,2.4-2.1,3.6c-0.6-1.3-1.7-2.5-1.8-3.8c-0.4-9.8-0.7-19.6-1-29.4c-0.1-5.4,0-10.8,0-16.8
	c-7.1,2.3-13.5,4.3-20.6,6.6c0,5.5,0,11.4,0,17.4c-4.9,0-9.3,0-15,0c0-8.3,0.1-16.4-0.1-24.6c-0.1-2.4-0.1-5.6-1.5-7
	c-2.6-2.7-2.5-5.6-2.5-8.8c0-3.2-0.1-6.4-0.4-9.7c-0.1-1.2-0.7-2.4-1-3.6c-0.4,0.1-0.7,0.2-1.1,0.3c0,5.4,0,10.7,0,16.1
	c0,2.4-0.7,4.4-3.5,4.5c-2.8,0.1-3.5-1.9-3.5-4.3c0-6,0-12-0.1-18c0-0.8-0.4-1.7-0.6-2.5c-0.3,0-0.7,0.1-1,0.1
	c-0.5,8.1-1,16.2-1.5,24.8c-5.3-1.1-5.2,2.2-5.1,5.7c0.1,4.4,0.1,8.8,0,13.2c-0.1,3-0.5,5.9-0.8,8.9c-8.4-1.4-13.3-5.9-14.9-13
	c-2.5,0-5,0-7.4,0c-1.2,5.4,1.1,11.2-2.2,15.9c-0.6,0-1.1,0-1.7,0c-0.3-4.9-0.7-9.8-1-14.7c-5.7-0.3-11-0.5-16.9-0.8
	c0-4.6,0-8.8,0-12.9c-3.1,0-5.7,0-8.8,0c0,17.2,0,34.1,0,50.9c-3,0-5.5,0-8.3,0c0-4,0.1-7.8,0-11.5c-0.1-1.5-0.2-3.6-1.1-4.4
	c-3.8-3.5-3.1-6.4,0.8-9.6c-4.4-3.2-4.4-6.6,0-10.1c-5.7-3.1-2.4-6.5-0.4-9.8c-6-3.4-1.9-6.5,0-9.7c-4.2-3.1-3.9-6.2,0.1-9.1
	c-3.7-3.5-3.4-6.7,0-9.8c-3.9-3.4-3.2-6.8-0.1-10.1c-4.8-3.4-2.2-6.6,0.1-9.7c-5.1-3.2-2.7-6.4-0.3-9.5c-3.7-5-3.7-5.2,0.1-10
	c-4.4-3.2-2.3-6.6,0.4-10.2c-5.5-2.8-2.8-6-0.4-9.1c-0.9-1.3-1.6-2.3-2.3-3.4c-0.7-1.1-1.2-2.2-1.9-3.5c1.9-1,3.6-1.9,5.4-2.8
	c-2.6-2.3-3.9-8.2-2.2-11.2c2.1-3.8,0.3-5.4-2.7-6.5c-1.6-0.6-3.2-0.9-4.8-1.4c-4.6-1.2-9.2-2.3-14.8-3.8
	c11.5-6.5,21.9-12.5,32.4-18.4c-0.1-0.3-0.1-0.7-0.2-1c-7.3,0-14.6,0-22,0c-0.5-2.6-0.9-4.7-1.2-6.8c-19.8,0-39.4,0-59.1,0
	c-0.3,2.4-0.5,4.7-0.8,7.3c-7.2,0-14.1,0-21,0c-0.1,0.3-0.2,0.6-0.3,1c10.3,5.8,20.7,11.5,32,17.8c-2.6,0.7-3.9,1.1-5.2,1.4
	c-5.2,1.3-10.4,2.4-15.5,4c-2.8,0.9-5,2.8-2.2,6.1c2.4,2.8,1.4,4.6-0.2,6.3c-0.1,1.8-0.2,3.7-0.3,5.8c1,0.5,2.3,1.1,4.2,2
	c-1.7,2.6-3.2,5-4.8,7.6c4.5,2.9,2.5,6.3,0,9.7c3.9,3.2,3.5,6.3-0.3,9.4c4.2,3.2,3,6.6,0.1,10.1c5.1,3.1,2.3,6.4,0.2,9.9
	c5.7,3.1,1.9,6.4,0.1,9.4c3.3,4.2,3.3,4.2,0.1,10c3.7,2.9,3.6,6.1-0.7,9.1c4.8,3.4,3.2,6.7,0.3,10c4.1,3.2,3.2,6.4,0,9.7
	c4.1,3.2,3.3,6.5,0,9.8c4.3,3.3,3.2,6.5-0.2,9.6c2.9,2.5,5.1,5,1.4,8.6c-0.5,0.5-0.1,2.5,0.5,3.5c2.3,4,0.1,5.4-3.8,6.8
	c0-4.7,0-9,0-13.8c-8.9,0-17.2,0-26,0c0-7.8,0-15.1,0-22.4c-9.3-0.7-4-9.1-7-13.3c-1.3,3.5-2.8,6.8-3.8,10.2
	c-0.6,2.2-1.5,2.9-3.5,2.6c-2-0.3-3.4-0.9-3.3-3.5c0.1-2.6-0.2-5.2-0.3-7.8c-0.5-0.1-0.9-0.2-1.4-0.3c-1.6,3.6-3.1,7.2-4.9,11.3
	c-4-0.4-4.4,2.6-4.2,6.6c0.2,5.4,0,10.9,0,16.3c0,11.4,0,22.8,0,34.4c-1.7,0-3,0-5.4,0c0-7.6-0.2-15.1,0.1-22.5
	c0.2-4.6-2.8-7.5-5.9-7.8c-7.6-0.8-15.3-0.3-23.3-0.3c0,8.7,0,16.9,0,24.8c-6.5,0-12.5,0-18.9,0c0-20,0-39.4,0-59.2
	c-4.6,0.6-5.1-2-5-5.8c0.2-13.1,0-26.1,0.1-39.2c0-3.5-0.8-7-4.1-7.8c-4.7-1.2-5.5-4.2-5.2-8.4c0.2-3.2,0.7-6.4,0.4-9.6
	c-0.8-9.4,1.6-19.5-5.1-27.8c-0.7-0.9-1-2.5-1.1-3.7c-0.9-10.6-1.7-21.2-2.7-31.8c-0.5-6.1-1.3-12.2-1.9-18.2
	c-1.1,0.5-1.4,1-1.4,1.5c-1.2,15.6-2.3,31.2-3.5,46.8c-0.3,3.7,0,7.5-4.2,9.6c-1.2,0.6-1.8,3.2-1.9,5c-0.2,5.1,0.3,10.3-0.1,15.4
	c-0.6,7.4,2.6,15.7-3.9,22.1c-0.5,0.5-0.5,1.7-0.5,2.5c0.1,9.8,0.3,19.6,0.4,29.4c0.1,6.6,0,13.1,0,19.6c-4.4,0.3-5.2,2.2-5,7.6
	c0.2,9.3,0.4,18.7-0.2,28c-0.2,2.5-2.8,5.5-5,7.1c-2.7,2.1-5.5,0.7-7.2-2.7c-2.8,3.3-5.4,6.3-8.1,9.6c-0.7-1.3-0.9-1.5-1-1.8
	c-0.1-0.6-0.1-1.2-0.1-1.8c-0.4-8.5,1.6-17.3-3.2-25.3c-0.6-1-0.2-2.6-0.2-3.9c0-8.1,0-16.1-0.1-24.2c0-1.3-0.6-3.5-1.3-3.7
	c-4.2-1.1-4.9-4.2-4.6-8.3c-5.6,0-11,0-16.7,0c0.3,4.7-0.5,8.7-6.1,8.6c0,10.3,0,20.3,0,30.3c0,1.2,0.3,2.9-0.3,3.4
	c-3.7,3.3-3,7.6-3,11.8c0,2.9-1.2,3.9-3.9,3.8c-0.3,0-0.5,0-0.8,0C-940-96.5-892.6-27.8-781.8,36.3
	c166.6,96.3,436.6,250.2,504.3,288.7h16.7l45.5-449.4C-215.9-125.8-217-127.1-217.9-127.3z"/>
<linearGradient id="SVGID_43_" gradientUnits="userSpaceOnUse" x1="-136.005" y1="58.147" x2="339.785" y2="58.147" gradientTransform="matrix(1 0 0 -1 0 768)">
	<stop  offset="1.331947e-07" style="stop-color:#00421B"/>
	<stop  offset="1" style="stop-color:#446B14"/>
	<stop  offset="1" style="stop-color:#00421B"/>
</linearGradient>
<ellipse class="st38" cx="101.9" cy="709.9" rx="237.9" ry="261"/>
<path class="st39" d="M1194.9-48c0,0-129,121.8-156,196.8s-15,144,99,159s381-111,381-111l18-320.7L1194.9-48z"/>
<linearGradient id="SVGID_44_" gradientUnits="userSpaceOnUse" x1="-269.4827" y1="1193.2084" x2="83.6883" y2="840.0374" gradientTransform="matrix(1 0 0 -1 0 768)">
	<stop  offset="1.331947e-07" style="stop-color:#00421B"/>
	<stop  offset="1" style="stop-color:#446B14"/>
	<stop  offset="1" style="stop-color:#00421B"/>
</linearGradient>
<ellipse class="st40" cx="-92.9" cy="-248.6" rx="237.9" ry="261"/>
</svg>
