<?xml version="1.0" encoding="utf-8"?>
<!-- Generator: Adobe Illustrator 23.0.2, SVG Export Plug-In . SVG Version: 6.00 Build 0)  -->
<svg version="1.1" id="Layer_1" xmlns="http://www.w3.org/2000/svg" xmlns:xlink="http://www.w3.org/1999/xlink" x="0px" y="0px"
	 viewBox="0 0 1366 768" style="enable-background:new 0 0 1366 768;" xml:space="preserve">
<style type="text/css">
	.st0{fill:url(#SVGID_1_);}
	.st1{clip-path:url(#SVGID_6_);}
	.st2{clip-path:url(#SVGID_7_);}
	.st3{fill-rule:evenodd;clip-rule:evenodd;}
	.st4{fill-rule:evenodd;clip-rule:evenodd;fill:#EB7D10;}
	.st5{fill-rule:evenodd;clip-rule:evenodd;fill:#E4710C;}
	.st6{fill-rule:evenodd;clip-rule:evenodd;fill:#ED7E12;}
	.st7{fill-rule:evenodd;clip-rule:evenodd;fill:#E26C0C;}
	.st8{fill-rule:evenodd;clip-rule:evenodd;fill:#E6770D;}
	.st9{fill-rule:evenodd;clip-rule:evenodd;fill:#EA7D0E;}
	.st10{fill-rule:evenodd;clip-rule:evenodd;fill:#E97B0D;}
	.st11{fill-rule:evenodd;clip-rule:evenodd;fill:#E5740C;}
	.st12{fill-rule:evenodd;clip-rule:evenodd;fill:#EC7E11;}
	.st13{fill-rule:evenodd;clip-rule:evenodd;fill:#E16A0B;}
	.st14{fill-rule:evenodd;clip-rule:evenodd;fill:#DF670B;}
	.st15{fill-rule:evenodd;clip-rule:evenodd;fill:#E0690B;}
	.st16{clip-path:url(#SVGID_9_);}
	.st17{clip-path:url(#SVGID_11_);}
	.st18{clip-path:url(#SVGID_13_);}
	.st19{clip-path:url(#SVGID_18_);}
	.st20{clip-path:url(#SVGID_19_);}
	.st21{clip-path:url(#SVGID_24_);}
	.st22{clip-path:url(#SVGID_25_);}
	.st23{clip-path:url(#SVGID_30_);}
	.st24{clip-path:url(#SVGID_31_);}
	.st25{clip-path:url(#SVGID_36_);}
	.st26{clip-path:url(#SVGID_37_);}
	.st27{fill:none;}
	.st28{fill:#EC7D12;}
	.st29{fill:url(#SVGID_38_);}
	.st30{fill:url(#SVGID_39_);}
	.st31{fill:none;stroke:#FFFFFF;stroke-width:6;stroke-miterlimit:10;}
	.st32{opacity:0.5;fill:none;stroke:#FFFFFF;stroke-width:2;stroke-miterlimit:10;enable-background:new    ;}
	.st33{fill:none;stroke:#FFFFFF;stroke-width:2;stroke-miterlimit:10;}
	.st34{opacity:0.5;fill:url(#SVGID_40_);}
	.st35{fill:none;stroke:url(#SVGID_41_);stroke-width:6;stroke-miterlimit:10;}
	.st36{fill:#F29D2A;stroke:url(#SVGID_42_);stroke-miterlimit:10;}
	.st37{fill:none;stroke:url(#SVGID_43_);stroke-width:6;stroke-miterlimit:10;}
	.st38{opacity:0.37;fill:#00421B;}
	.st39{fill:url(#SVGID_44_);}
	.st40{fill:url(#SVGID_45_);}
	.st41{fill:url(#SVGID_46_);}
	.st42{opacity:0.17;fill:url(#SVGID_47_);}
	.st43{opacity:4.000000e-02;fill:url(#SVGID_48_);}
	.st44{opacity:0.22;fill:url(#SVGID_49_);}
	.st45{opacity:0.18;fill:url(#SVGID_50_);}
	.st46{fill:#FDFDFC;}
	.st47{fill:#FBDA04;}
	.st48{fill:#02441E;}
	.st49{fill:#A03018;}
	.st50{fill:#957A39;}
	.st51{fill:#434243;}
	.st52{fill:#77787B;}
	.st53{fill:#43A845;}
	.st54{fill:#FAFAF8;}
	.st55{fill:#645711;}
	.st56{fill:#9C842A;}
	.st57{fill:#AD9330;}
	.st58{fill:#7E6C1E;}
	.st59{fill:#EEF3F7;}
	.st60{fill:#1264AE;}
</style>
<linearGradient id="SVGID_1_" gradientUnits="userSpaceOnUse" x1="-3.3671" y1="385.0004" x2="1392.5239" y2="385.0004" gradientTransform="matrix(1 0 0 -1 0 768)">
	<stop  offset="1.331947e-07" style="stop-color:#00421B"/>
	<stop  offset="1" style="stop-color:#446B14"/>
	<stop  offset="1" style="stop-color:#00421B"/>
</linearGradient>
<rect x="-3.4" y="-9.8" class="st0" width="1395.9" height="785.7"/>
<g>
	<g>
		<g>
			<defs>
				<path id="SVGID_2_" d="M-974.6-427.9v180.7c0,0-10.5,64.8,62,115.9C-840.1-80.1-256.2,357-256.2,357l21-789.1L-880.6-453
					L-974.6-427.9L-974.6-427.9z"/>
			</defs>
			<clipPath id="SVGID_3_">
				<use xlink:href="#SVGID_2_"  style="overflow:visible;"/>
			</clipPath>
		</g>
		<g>
			<defs>
				<path id="SVGID_4_" d="M-974.6-427.9v180.7c0,0-10.5,64.8,62,115.9C-840.1-80.1-256.2,357-256.2,357l21-789.1L-880.6-453
					L-974.6-427.9L-974.6-427.9z"/>
			</defs>
			<defs>
				<rect id="SVGID_5_" x="-1644.2" y="-456" width="1366.1" height="792"/>
			</defs>
			<clipPath id="SVGID_6_">
				<use xlink:href="#SVGID_4_"  style="overflow:visible;"/>
			</clipPath>
			<clipPath id="SVGID_7_" class="st1">
				<use xlink:href="#SVGID_5_"  style="overflow:visible;"/>
			</clipPath>
			<g class="st2">
				<path class="st3" d="M-987.2,337c-217.2,0-434.3,0-651.5,0.1c-3.7,0-4.6-0.8-4.6-4.6c0.1-253,0.1-506,0-759
					c0-3.7,0.8-4.6,4.6-4.6c217.2,0.1,434.3,0.1,651.5,0.1c0.1,35.7,0.1,71.3,0.2,107c0,28.7,0,57.3,0,86c0,22.7,0,45.3,0,68
					c-0.1,7-0.2,13.9-0.2,20.9c0,35.7,0.1,71.4,0.2,107.1c0,2.3,0,4.7,0,7c0.2,6.4-1.3,12.8,0.8,19.1c0.1,0.6,0.2,1.3,0.2,1.9
					c-0.8,1.1-1.2,2.2-1.2,3.7c0.1,14.5,0.1,28.9,0.2,43.4c0,12,0,24,0,36c-0.1,1.5-0.2,3-0.2,4.5
					C-987.2,161.3-987.2,249.2-987.2,337z"/>
				<path class="st4" d="M-277.2,124c0,69.7,0,139.3,0.1,209c0,3.4-0.7,4.1-4.1,4.1c-56.3-0.1-112.7-0.1-169-0.1
					c-0.1-3.3-2.4-4.9-4.6-6.7c-14.1-12.2-28.1-24.4-42.2-36.5c-11.6-10-23.1-20-34.7-30c-5.8-5-11.7-9.8-17.5-14.7
					c-1.2-4.7-5.7-6.4-8.8-9.2c-11.1-10-22.5-19.7-33.8-29.5c-14.2-12.3-28.4-24.6-42.5-36.9c-13.8-12-27.6-24-41.4-36
					c-16.3-14.2-32.7-28.2-49-42.4c-13.9-12.1-27.8-24.3-41.7-36.4c-14-12.2-28.2-24.3-42.2-36.5c-9.4-8.3-19.6-15.7-29.7-23.1
					c-5.2-3.8-11-6.9-16.2-10.8c-9.4-6.9-17.9-14.9-26.6-22.6c-2.5-2.2-4.8-4.2-8.4-2.4c-1.5,0.8-2.9,0.8-3.7-1.1
					c1.4-1.2,2.6-2.5,3.3-4.3c2-5.1,4.2-10.1,6.3-15.1c2.2-5.2,4.3-10.4,6.4-15.6c3.2-4,4.2-9,6.2-13.5c3.2-7.3,2.3-13.8-3.7-19.5
					c-8.1-7.8-11.1-17.4-9.2-28.6c0.8-4.4,1.1-8.9,1.6-13.3c1.2-1.7,2.4-3.5,3.8-5.2c0.6-0.7,1.3-1.8,2.4-1.3
					c1.1,0.4,0.8,1.7,0.8,2.6c0.1,3.3,0,6.6,0,9.9c-0.6,10.6,2.2,20,10,27.6c3.1,3,6.9,4.3,11,2.9c3.7-1.3,3.7-5.1,4-8.4
					c0.5-1.2,0.9-2.5,1.5-3.7c1.4-3.2,3.4-6,7.5-5c4.1,1,6,3.9,5.9,8.1c0,1.5-0.5,2.9-0.7,4.4c-0.8,4.4,0.5,7.4,5.2,8.5
					c3.6,0.9,7,2.4,8.7,6c1.7,3.7,2.1,7.6,2,11.6c0.6,8.2,2.8,15.9,7,23l0,0c-2,0.2-2.9,1.3-2.9,3.3c0,3.5,1.4,6.4,2.8,9.5
					c1.5,3.1,6.3,6.9-1.4,8.7c-0.5,0.1-0.8,1-1.3,1.5c-1.3,1.5-2.9,2.3-4.9,1.7c-2-0.6-2.2-2.3-2.4-4c-0.6-4.1-1.6-8.2-3.6-11.9
					c-0.5-0.8-0.9-1.9-2.2-1.6c-0.9,0.3-1,1.3-1.1,2.1c-0.1,1.3-0.2,2.7,0,4c1.8,11.8,0.5,23.6,1,35.4c0.2,6.5,0.7,12.9,1.2,19.4
					c0.1,1.8,0.7,4.2,2.8,4.2c2.7,0,1.9-2.7,1.9-4.3c0.1-9.3,0-18.6,0.1-28c0.1-12-1.6-10.9,11.4-11c4.7,0,6.6,2,6.6,6.6
					c-0.1,9.1,0,18.3,0,27.5c0,2.4-0.1,4.9,1.6,6.7c1.2-0.4,1.3-1.1,1.3-1.7c0-12.5,0.3-25-0.1-37.4c-0.2-7.6-0.7-7.6,7.2-7.6
					c0.3,0,0.7,0,1,0c1.4,0,2.5-0.5,3-2c0.1-1.6,0.7-2.5,2.4-1.6c1.6,0.8,3,1.8,4.6,2.6c0.3,0,0.7,0,1,0c2.1-6.6,0.5-13.3,1-20
					c0-15,0-30,0.1-45c5.3-2.3,9.9-5.4,11.5-11.4c0.1-0.3,0.3-0.6,0.5-0.9c1.9-3,3.8-2.8,5.8-0.1c3.2,4.4,5.7,9.1,6.1,14.5
					c0.4,6.6,1.7,13.2,1.2,19.8c0,14.6,0.1,29.3-0.1,43.9c-0.1,4.5,1.3,6.3,6,6.1c9.8-0.3,19.6-0.1,29.5-0.1c1.9,0,4.6-0.6,5.3,1.7
					c1.6,4.7,5.2,4.4,8.9,4.3c2.3-0.1,4.7,0.1,7,0c3.2-0.1,4.5,1.5,4.4,4.6c-0.1,1.8,0,3.7,0,5.5c0,2.7,1.4,3.9,4,3.9
					c1.7,0,3.3,0,5,0c6.9,0,6.9,0,6.9-7c0.1-12.8,0.1-12.8,13-13c0.3,0,0.7,0,1,0c4.1,0.1,6.3-1.5,6.1-5.9c-0.1-2.2-0.2-4.5,1-6.3
					c3.8-5.7,3-12.1,3-18.4c0-6.2,0-12.3,0-18.5c0-1.8-0.2-3.9,1.9-4.7c3-1.1,4.4-3.3,5-6.3c0.2-1.2,0.7-2.5,2-2.5
					c4.8-0.2,9.6-0.4,14.4-0.1c3.4,0.2,2.2,4,3.7,5.9c0.3,0.4,0.5,1,0.9,1.2c5.6,2.7,4.8,7.7,4.9,12.5c0.2,7.8-1.6,16,0.7,23.3
					c2.6,8.3,3.5,16.5,3.3,25c0,1.6-0.8,3.8,1,4.6c2.2,0.9,3-1.5,4-2.9c2.3-3.2,4.5-5.9,8.8-2.5c1.5,1.2,3.5,0.4,5.1-0.9
					c3.2-2.7,4.9-5.8,5.3-10.2c0.9-9.3,0.7-18.6-0.1-27.8c-0.2-2.7,0-5.7,2.8-7c2.9-1.3,3.1-3.5,3.1-6.1c0-11.2,0-22.3,0-33.5
					c0.3-8-1.4-16.3,3.9-23.6c1.4-1.8,1.1-4.5,1.1-6.8c0-8.2,0.1-16.3,0-24.5c0-3.9,0-7.6,4-10.1c1.6-1,1.9-3.1,2.1-4.9
					c1-12.3,2-24.5,3-36.8c0.5-5.8,1-11.5,1.6-17.5c1.9,0.9,2.1,1.9,2.2,2.9c1.1,11.6,1.9,23.2,3.3,34.7c0.8,6.8-0.7,14.2,3.5,20.4
					c3.2,4.8,4.3,10.1,4.3,15.6c0.1,8.3,0.1,16.7,0,25c0,3.4,1,6,4.3,7c4.6,1.5,5.8,4.8,5.7,9.3c-0.2,13.7,0,27.3-0.1,41
					c0,2.7,0,5.6,2.7,7.1c3,1.7,3.4,4.1,3.3,7.1c-0.1,17.5,0.1,35-0.1,52.5c0,4.1,1.5,5.7,5.6,5.5c4.2-0.2,8.3,0,12.5,0
					c0.5,1.6,1.7,2.5,3.1,3c14.8,5.2,28.5,12.8,42.8,19.1c13.4,5.9,27.4,10.1,41.2,15.1c18.7,6.8,37,14.8,55,23.5
					c13.2,6.3,26.2,12.1,37.8,21.5c17.4,14.1,34.1,29.1,51.3,43.4C-289.2,115.3-284.6,121.6-277.2,124z"/>
				<path class="st5" d="M-526.2-15c-4.2,0-8.3-0.2-12.5,0c-4.1,0.2-5.6-1.4-5.6-5.5c0.1-17.5,0-35,0.1-52.5c0-3-0.3-5.5-3.3-7.1
					c-2.7-1.5-2.7-4.3-2.7-7.1c0-13.7-0.1-27.3,0.1-41c0.1-4.5-1.1-7.8-5.7-9.3c-3.3-1.1-4.4-3.7-4.3-7c0.1-8.3,0.1-16.7,0-25
					c-0.1-5.6-1.1-10.9-4.3-15.6c-4.2-6.2-2.7-13.5-3.5-20.4c-1.4-11.5-2.2-23.2-3.3-34.7c-0.1-1-0.3-2-2.2-2.9
					c-0.5,6-1.1,11.8-1.6,17.5c-1,12.3-2,24.5-3,36.8c-0.2,1.9-0.5,3.9-2.1,4.9c-3.9,2.4-4,6.1-4,10.1c0.1,8.2,0,16.3,0,24.5
					c0,2.4,0.3,5-1.1,6.8c-5.3,7.3-3.7,15.5-3.9,23.6c-0.9-0.5-1.7-1.2-1.8-2.3c-0.3-5.3-0.9-10.6-0.8-15.9c0-2.3-0.5-3.7-2.1-5.1
					c-14.5-12.7-29-25.5-43.5-38.1c-14-12.2-28.2-24.3-42.3-36.5c-13.7-11.9-27.4-23.8-41-35.7c-14.2-12.3-28.4-24.6-42.6-36.9
					c-11.2-9.7-22.3-19.4-33.5-29.1c-14.2-12.3-28.4-24.6-42.6-36.9c-13.8-12-27.6-24-41.4-36c-13.6-11.8-27.2-23.5-40.8-35.2
					c-1.3-1.1-2.3-2.4-2.7-4.1c89,0,178,0,267,0c0,2.1,1.5,3.2,2.9,4.4c14.9,12.9,29.9,25.9,44.8,38.9
					c14.5,12.7,28.9,25.5,43.5,38.1c13.9,12.1,27.9,24.1,41.9,36.2c14,12.2,28,24.6,42,36.7c18.2,15.8,36.5,31.5,54.7,47.2
					c1.2,1,2.4,2.2,0.6,3.7c-4.5,3.8-1.5,6,1.8,7.8c5.8,3.2,11.8,6.2,17.6,9.4c1.8,1,4.9,1.3,4.5,4c-0.4,2.5-3.5,1.9-5.4,2.6
					c-3.5,1.3-7.8,0.8-9.8,5c-1.2,2.3-0.9,4.5,0.4,6.6c0.7,1.1,1.8,2.5,1,3.7c-4.1,6.3,4.3,13.2-1.1,19.4c-0.1,0.1,0.1,0.7,0.3,0.9
					c1.6,2.6,1.3,5-0.3,7.5c-0.7,1-1,2.2-0.2,3.3c3.4,4.8,1.6,10.9,0.7,15c-1.3,5.5,1.1,10.3,0.2,15.6c-1,6.3-0.4,13.3-0.4,20
					c0,3.8,1.6,7.6-0.9,11.3c-0.2,0.3,0.6,1.5,1,2.1c0.8,1.2,1.6,2.7,0.8,3.7c-4.2,5.1,1.7,10.5-0.8,16c-1,2.2,1.8,6.1-0.9,9.2
					c-0.9,1,0.2,2.2,0.9,3.1c0.8,1.1,1,2.3,0.9,3.8c-0.5,6.5-1.6,13-0.2,19.5c0.5,2.4-1.1,4-3.1,4.4c-3.1,0.5-2.1-2.2-2.3-3.8
					c-0.2-1.5-0.2-3,0-4.5c0.4-4.4-1.5-6-5.8-5.8c-6.2,0.2-12.3,0-18.5,0.1c-3.4,0.1-4.9-1.4-4.8-4.8c0.1-4.3-0.1-8.7,0.1-13
					c0.1-3.4-0.4-6.1-3.8-7.9c-2.3-1.2-3-3.8-3.2-6.4c-0.1-1.6,0.6-3.3-1.2-4.9c-2.1,2.6-2.7,5.7-3.8,8.5c-0.9,2.2-2.4,3.6-5,3.3
					c-2.6-0.4-2.9-2.4-2.9-4.5c0-1.3,0-2.7-0.1-4c0-0.8,0-1.8-0.9-2.1c-1.3-0.5-1.7,0.6-2.2,1.5c-1.8,2.8-2.2,6.8-5,8.5
					c-3.6,2.1-3.8,5-3.7,8.4c0,16.3,0,32.7,0,49c0,2.4,0.4,5.5-3.4,5.3c-3.6-0.1-3.6-2.9-3.5-5.5c0.1-5.5-0.3-11,0.6-16.4
					c1-6.3-3.2-10.8-9.8-10.9c-6-0.1-12,0.2-18-0.1c-4.2-0.2-6.1,1.3-5.9,5.7c0.3,5.5,0.1,11,0.1,16.5
					C-523.2-17.6-523.1-15.4-526.2-15z"/>
				<path class="st6" d="M-987.2,337c0-87.8,0-175.7,0-263.5c0-1.5,0.1-3,0.2-4.5c1.6,0.5,3.2,0.8,4.7,1.4
					c35.1,14.9,71,27.6,106.2,42.2c17.1,7,34.6,13.1,49.8,23.9c3.2,2.3,7,3.8,9.1,7.5c-1.2,2.9,1.4,3.9,2.8,5.2
					c8.4,7.5,17,14.9,25.5,22.3c16.2,14,32.5,28,48.7,42c14.1,12.2,28,24.6,42,36.8c13.9,12.1,27.9,24.1,41.9,36.1
					c14.7,12.7,29.5,25.3,43.9,38.3c4.2,3.8,9.9,6.4,12.1,12.2C-729.2,337-858.2,337-987.2,337z"/>
				<path class="st7" d="M-924.2-431c0.3,1.7,1.4,3,2.7,4.1c13.6,11.7,27.2,23.4,40.8,35.2c13.8,12,27.6,24,41.4,36
					c14.2,12.3,28.4,24.6,42.6,36.9c11.2,9.7,22.3,19.4,33.5,29.1c14.2,12.3,28.4,24.6,42.6,36.9c13.7,11.9,27.3,23.8,41,35.7
					c14.1,12.2,28.2,24.3,42.3,36.5c14.5,12.7,29,25.4,43.5,38.1c1.6,1.4,2.2,2.9,2.1,5.1c-0.1,5.3,0.4,10.6,0.8,15.9
					c0.1,1.1,0.9,1.8,1.8,2.3c0,11.2,0,22.3,0,33.5c0,2.6-0.2,4.8-3.1,6.1c-2.8,1.3-3,4.3-2.8,7c0.8,9.3,1,18.5,0.1,27.8
					c-0.4,4.4-2.1,7.6-5.3,10.2c-1.5,1.3-3.6,2.1-5.1,0.9c-4.3-3.4-6.5-0.7-8.8,2.5c-1,1.4-1.8,3.8-4,2.9c-1.7-0.7-1-3-1-4.6
					c0.2-8.5-0.8-16.7-3.3-25c-2.3-7.4-0.5-15.5-0.7-23.3c-0.1-4.8,0.6-9.9-4.9-12.5c-0.4-0.2-0.6-0.8-0.9-1.2
					c-1.5-1.8-0.4-5.7-3.7-5.9c-4.8-0.3-9.6-0.1-14.4,0.1c-1.3,0-1.8,1.3-2,2.5c-0.6,3-2.1,5.2-5,6.3c-2.2,0.8-1.9,2.9-1.9,4.7
					c0,6.2,0,12.3,0,18.5c0,6.3,0.8,12.6-3,18.4c-1.2,1.8-1.1,4.2-1,6.3c0.3,4.4-2,6-6.1,5.9c-0.3,0-0.7,0-1,0
					c-12.9,0.3-12.9,0.3-13,13c-4.9-3.1-2.8-8.4-3.8-12.7c-0.8-3.3,1.1-5.3,4.8-5.3c3.8,0.1,7.7,0,11.5-0.1c1.2,0,2.5,0,2.9-1.4
					c0.3-1.1-0.5-1.8-1.3-2.5c-7.5-6.6-15-13.2-22.5-19.7c-14.3-12.4-28.6-24.8-42.9-37.3c-8.1-7.1-16.3-14.2-24.4-21.3
					c-0.9-0.7-1.9-1.9-3-1c-1.3,1,0.1,2.1,0.6,3c5.8,9.7,5.4,20.4,5.1,31.1c-0.1,2.6-1.3,4-3.9,4.2c0.5-6.7-0.8-13.2-1.2-19.8
					c-0.4-5.4-2.9-10.2-6.1-14.5c-2-2.7-3.9-2.9-5.8,0.1c-0.2,0.3-0.4,0.6-0.5,0.9c-1.6,6-6.1,9.1-11.5,11.4
					c-2.8-1.9-2.9-4.9-0.2-5.9c4.1-1.5,5.6-5.1,8-7.9c3.2-3.8,3.8-13.9,1.1-16.2c-7.3-6.5-14.7-13-22.1-19.4
					c-13.6-11.7-27.3-23.4-40.8-35.1c-14.1-12.2-28-24.6-42.1-36.8c-16.6-14.4-33.2-28.7-49.8-43.1c-16.3-14.2-32.5-28.6-48.9-42.5
					c-3-2.6-5.3-6.6-10-7c-0.1-35.7-0.1-71.3-0.2-107C-966.2-431-945.2-431-924.2-431z"/>
				<path class="st8" d="M-418.2-197c2-4.2,6.4-3.7,9.8-5c1.9-0.7,5-0.1,5.4-2.6c0.4-2.6-2.7-3-4.5-4c-5.8-3.2-11.8-6.2-17.6-9.4
					c-3.3-1.8-6.3-4-1.8-7.8c1.7-1.5,0.6-2.6-0.6-3.7c-18.2-15.7-36.5-31.4-54.7-47.2c-14.1-12.2-28-24.5-42-36.7
					c-13.9-12.1-28-24.1-41.9-36.2c-14.5-12.7-29-25.4-43.5-38.1c-14.9-13-29.9-25.9-44.8-38.9c-1.4-1.2-2.9-2.3-2.9-4.4
					c66,0,132,0,198,0c0.3,1.8,1.5,2.8,2.9,3.9c3.7,3.1,7.4,6.2,11,9.4c14,12.3,28,24.6,42,36.8c18.8,16.3,37.8,32.5,56.6,48.9
					c18.7,16.2,37.2,32.7,56.1,48.8c4.2,3.6,7.6,8.5,13.4,10.2c0,51,0,102,0,153c-1.6-0.1-2.9-0.6-4.1-1.6
					c-8.2-7.2-16.3-14.7-24.8-21.6c-4.9-3.9-8.4-10.4-16.1-9.8c1.4-2.4,1.6-4.6,0.7-7.5c-1.3-4.4,1.7-9.4-1.4-13.7
					c-0.2-0.3,0.3-1.4,0.7-1.7c2.9-1.9,2.3-4.3,1.4-7c-0.8-2.5-0.6-5.3,0.1-7.9c1.2-4.2-0.7-6.3-4.6-7.3c-4.7-1.2-9.4-2.2-14.1-3.4
					c-1.5-0.4-3.8-0.1-3.9-2.3c-0.1-1.8,2-2,3.2-2.7c8.3-4.5,16.7-9,25-13.5c1.1-0.6,3-1,2.7-2.5c-0.4-1.9-2.4-1.3-3.8-1.3
					c-4.5-0.1-9-0.1-13.5-0.1c-2.8,0-4.9-1-5.6-4c-0.7-3.3-2.9-4-5.9-4c-19,0.1-37.9,0.1-56.9,0c-3.1,0-5.2,0.7-5.7,4.1
					c-0.5,3.4-2.8,4.1-5.8,4c-4.3-0.1-8.7-0.1-13,0c-1.3,0-3.1-0.5-3.5,1c-0.5,1.9,1.6,2.2,2.8,2.9c8.6,4.7,17.3,9.3,25.9,14
					c1,0.5,2.4,0.9,2.2,2.4c-0.2,1.4-1.6,1.5-2.7,1.8C-404.6-200.2-411.4-198.6-418.2-197z"/>
				<path class="st9" d="M-418.2-197c6.8-1.6,13.6-3.2,20.4-4.9c1.1-0.3,2.5-0.4,2.7-1.8c0.2-1.5-1.2-1.8-2.2-2.4
					c-8.6-4.7-17.3-9.3-25.9-14c-1.2-0.7-3.3-0.9-2.8-2.9c0.4-1.5,2.3-1,3.5-1c4.3-0.1,8.7-0.1,13,0c3,0.1,5.3-0.6,5.8-4
					c0.5-3.4,2.7-4.1,5.7-4.1c19,0.1,37.9,0.1,56.9,0c3,0,5.2,0.7,5.9,4c0.6,2.9,2.8,4,5.6,4c4.5,0,9,0,13.5,0.1
					c1.4,0,3.4-0.6,3.8,1.3c0.3,1.5-1.6,1.9-2.7,2.5c-8.3,4.5-16.7,9-25,13.5c-1.3,0.7-3.3,0.9-3.2,2.7c0.1,2.2,2.4,1.9,3.9,2.3
					c4.7,1.2,9.4,2.3,14.1,3.4c3.8,1,5.7,3.1,4.6,7.3c-0.7,2.6-0.9,5.4-0.1,7.9c0.9,2.7,1.5,5.1-1.4,7c-0.5,0.3-0.9,1.4-0.7,1.7
					c3.1,4.4,0.2,9.4,1.4,13.7c0.8,2.9,0.6,5.1-0.7,7.5c2.4,5.9,0.9,12.3,0.8,18.2c-0.1,5.2,0.5,10.5-0.2,15.9
					c-0.8,6.3,0.6,13.1-0.4,19.6c-0.2,1.1,0.1,2.4,0.6,3.3c0.9,1.9,0.9,3.5-0.5,5.1c-0.8,0.9-1.6,2.2-0.8,3.2c2.5,3.1,2.3,6,0.1,9.1
					c-0.4,0.5-0.3,1.8,0.1,2.3c3.5,4.9,0.7,10.5,0.8,15.5c0.1,5.1,2.3,10.7-0.3,15.8c-0.2,0.3,0.1,1,0.4,1.4
					c3.7,4.5,3.6,9.9,3.4,15.2c-0.1,3.2,1.5,4.3,4.6,4.4c4.1,0.1,4.4-2.5,4.4-5.6c0-14.8,0-29.6,0-44.4c0-3.6,1.4-5,5-5
					c3.6,0,5.2,1.4,5,5c-0.1,1.8,0,3.7,0.1,5.5c0.1,2.2,1.2,3.3,3.4,3.5c3.5,0.3,6.9,1,10.4,1c4.6-0.1,6.1,2.1,6.2,6.4
					c0,2.6-1.2,5.8,1.9,7.7c0,58,0,116,0,174c-7.5-2.4-12.1-8.7-17.7-13.4c-17.2-14.3-33.9-29.3-51.3-43.4
					c-11.6-9.4-24.6-15.2-37.8-21.5c-18-8.6-36.3-16.6-55-23.5c-13.7-5-27.8-9.2-41.2-15.1c-14.3-6.3-28-13.9-42.8-19.1
					c-1.4-0.5-2.6-1.4-3.1-3c3-0.4,3-2.6,3-4.9c0-5.5,0.2-11-0.1-16.5c-0.2-4.4,1.7-5.9,5.9-5.7c6,0.2,12,0,18,0.1
					c6.6,0.1,10.8,4.5,9.8,10.9c-0.9,5.5-0.5,11-0.6,16.4c-0.1,2.6,0,5.4,3.5,5.5c3.9,0.1,3.4-2.9,3.4-5.3c0-16.3,0-32.7,0-49
					c0-3.4,0.1-6.3,3.7-8.4c2.8-1.7,3.3-5.7,5-8.5c0.5-0.8,1-1.9,2.2-1.5c0.9,0.3,0.9,1.3,0.9,2.1c0.1,1.3,0,2.7,0.1,4
					c0.1,2.1,0.3,4.1,2.9,4.5c2.5,0.4,4.1-1,5-3.3c1.1-2.8,1.8-5.9,3.8-8.5c1.8,1.6,1.1,3.4,1.2,4.9c0.2,2.6,0.9,5.2,3.2,6.4
					c3.4,1.8,3.9,4.6,3.8,7.9c-0.1,4.3,0.1,8.7-0.1,13c-0.1,3.4,1.4,4.8,4.8,4.8c6.2-0.1,12.3,0.2,18.5-0.1c4.3-0.2,6.2,1.4,5.8,5.8
					c-0.1,1.5-0.2,3,0,4.5c0.2,1.6-0.8,4.3,2.3,3.8c2.1-0.3,3.7-2,3.1-4.4c-1.4-6.5-0.3-13,0.2-19.5c0.1-1.4-0.1-2.6-0.9-3.8
					c-0.7-0.9-1.8-2.1-0.9-3.1c2.7-3.1-0.1-7,0.9-9.2c2.6-5.5-3.3-10.9,0.8-16c0.8-1,0-2.5-0.8-3.7c-0.5-0.7-1.3-1.8-1-2.1
					c2.5-3.7,0.9-7.5,0.9-11.3c0-6.7-0.6-13.7,0.4-20c0.9-5.3-1.5-10.1-0.2-15.6c0.9-4,2.7-10.2-0.7-15c-0.8-1.1-0.5-2.2,0.2-3.3
					c1.7-2.4,2-4.9,0.3-7.5c-0.2-0.3-0.4-0.8-0.3-0.9c5.3-6.2-3.1-13.1,1.1-19.4c0.8-1.2-0.3-2.6-1-3.7
					C-419.1-192.5-419.4-194.7-418.2-197z"/>
				<path class="st10" d="M-277.2-273c-5.8-1.7-9.1-6.6-13.4-10.2c-18.9-16-37.4-32.5-56.1-48.8c-18.8-16.3-37.8-32.5-56.6-48.9
					c-14.1-12.2-28-24.5-42-36.8c-3.6-3.2-7.3-6.3-11-9.4c-1.3-1.1-2.5-2.2-2.9-3.9c59.3,0,118.7,0,178-0.1c3.4,0,4.1,0.7,4.1,4.1
					C-277.2-375.7-277.2-324.3-277.2-273z"/>
				<path class="st11" d="M-277.2-50c-3.2-1.9-1.9-5.1-1.9-7.7c-0.1-4.3-1.6-6.5-6.2-6.4c-3.5,0.1-6.9-0.7-10.4-1
					c-2.2-0.2-3.3-1.3-3.4-3.5c0-1.8-0.2-3.7-0.1-5.5c0.2-3.6-1.4-5-5-5c-3.6,0-5.1,1.4-5,5c0.1,14.8,0,29.6,0,44.4
					c0,3.1-0.3,5.7-4.4,5.6c-3.1,0-4.7-1.1-4.6-4.4c0.1-5.3,0.3-10.7-3.4-15.2c-0.3-0.3-0.6-1.1-0.4-1.4c2.7-5.2,0.4-10.7,0.3-15.8
					c-0.1-5,2.7-10.6-0.8-15.5c-0.4-0.6-0.4-1.8-0.1-2.3c2.2-3.1,2.4-6-0.1-9.1c-0.8-1,0-2.3,0.8-3.2c1.4-1.6,1.4-3.2,0.5-5.1
					c-0.5-1-0.8-2.3-0.6-3.3c1-6.6-0.4-13.3,0.4-19.6c0.7-5.4,0-10.7,0.2-15.9c0.1-5.9,1.6-12.3-0.8-18.2c7.7-0.7,11.2,5.9,16.1,9.8
					c8.6,6.9,16.6,14.4,24.8,21.6c1.2,1,2.5,1.6,4.1,1.6C-277.2-96.7-277.2-73.3-277.2-50z"/>
				<path class="st12" d="M-703.2,189c-15.4-6.2-30.8-12.5-46.2-18.7c-21-8.4-42-16.8-63-25.2c-1.6-0.6-3.1-1.1-4.8-1.1
					c-2-3.7-5.9-5.2-9.1-7.5c-15.2-10.8-32.7-16.9-49.8-23.9c-35.2-14.5-71.1-27.3-106.2-42.2c-1.5-0.6-3.2-1-4.7-1.4
					c0-12,0-24,0-36c7.5,0,15,0,22.5-0.1c1.7,0,4.6,0.1,3.6-2.6c-1-2.5,0-8.1-6-6c-1,0.3-2-0.5-2.5-1.4c-1.7-2.8-3.7-3.1-6.1-1
					c-2.2,2-3.4,1.2-4.3-1.3c-0.7-1.9-1.7-3.6-2.3-5.5c-1.7-4.9,0.1-8.8,5.2-9.9c5.4-1.1,9.8-3.4,13.7-7.4c3.6-3.8,8.3-2.5,10.6,2.1
					c0.4,0.7,0.8,1.5,1.4,2.1c0.8,0.8,1.7,1.9,3,1.2c1.4-0.7,0.8-2,0.5-3.1c-1.1-4-2-8.1-3.4-12c-1.5-4.4-3-4.7-6.2-1.3
					c-5.8,6.2-5.9,6.2-8.8-2c-0.2-0.6-0.5-1.2-0.7-1.9c-1.1-3.9-3.4-4.4-6.8-2.7c-4,2-8.1,3.8-12.2,5.7c-0.1-0.6-0.2-1.3-0.2-1.9
					c2.1-4.2,2.4-8.8,3-13.3c0.4-2.9-0.5-5.2-3.8-5.8c0-2.3,0-4.7,0-7c6.3-6.4,13.7-8.3,22.4-5.6c3.4,1.1,6.3,0.7,8.7-2.7
					c7.1-10,15.2-12.2,26.4-7.5c2.3,1,3.6,2.3,1.1,4.3c-3.3,2.6-1.8,4.8,0.3,7.1c2.4,2.6,4.6,5.3,6.9,7.9c1.9,2.2,1.5,3.8-1.4,4
					c-2.7,0.1-5.2,1.3-7.8,1.3c-5.2,0-6.3,2.7-5.7,7c0.2,1.2,0.3,2.3,0.5,3.5c0.8,5.2,0.2,5.9-5,4.6c-2.6-0.6-3.6,0-2.9,2.6
					c2.1,7.4,4.2,14.7,6.5,22c1,3.2,3.2,3.9,6.3,2.8c3.2-1.2,4.6-3.3,4.6-6.8c0.1-9.5-0.4-18.9,0.4-28.4c0.3-3.3,1.3-4.1,4-4
					c3.9,0.3,6.7-0.7,8-5c0.8-2.6,3.8-2.6,6-2.7c4.8-0.4,9.6-0.2,14.5-0.3c0.8,1.9,2.2,1.9,3.7,1.1c3.6-1.8,5.9,0.2,8.4,2.4
					c8.7,7.7,17.2,15.7,26.6,22.6c5.2,3.8,11,6.9,16.2,10.8c10.1,7.4,20.3,14.8,29.7,23.1c14,12.3,28.2,24.3,42.2,36.5
					c13.9,12.1,27.8,24.3,41.7,36.4c16.3,14.2,32.7,28.2,49,42.4c13.8,12,27.6,24,41.4,36c14.2,12.3,28.4,24.6,42.5,36.9
					c11.3,9.8,22.7,19.5,33.8,29.5c3.1,2.8,7.6,4.5,8.8,9.2c-11.3-3.9-22.8-7.4-32.1-15.5c-2.5-2.2-5.4-3.9-8.5-5.2
					c-36-14.5-71.9-29-107.9-43.5c-1.5-0.6-3.2-2-4.6-0.7c-1.4,1.4,0.6,2.6,1.1,3.9C-701.8,188.3-702.5,188.7-703.2,189z"/>
				<path class="st13" d="M-987-324c4.7,0.4,7,4.5,10,7c16.5,14,32.6,28.4,48.9,42.5c16.6,14.4,33.2,28.7,49.8,43.1
					c14.1,12.2,28,24.6,42.1,36.8c13.6,11.8,27.2,23.4,40.8,35.1c7.4,6.4,14.8,12.9,22.1,19.4c2.6,2.3,2.1,12.4-1.1,16.2
					c-2.4,2.8-3.9,6.3-8,7.9c-2.7,1-2.6,4,0.2,5.9c0,15,0,30-0.1,45c-2.3-0.6-4.2-2-5.9-3.5c-7.7-6.6-15.5-13.1-22.8-20
					c-3.1-2.9-5.7-3.5-9.2-1.4c0.1-4-0.3-8-2-11.6c-1.7-3.7-5.1-5.2-8.7-6c-4.7-1.1-6-4.2-5.2-8.5c0.3-1.5,0.7-2.9,0.7-4.4
					c0.1-4.2-1.8-7.1-5.9-8.1c-4.1-1-6,1.8-7.5,5c-0.5,1.2-1,2.4-1.5,3.7c-2.2-3.9-4.3-7.9-8.1-10.5c-5.6-3.9-9.4-10.5-16.9-11.5
					c0-3.3,0-6.6,0-9.9c0-0.9,0.3-2.2-0.8-2.6c-1.1-0.4-1.8,0.6-2.4,1.3c-1.3,1.7-2.5,3.5-3.8,5.2c-1.8-1.9-3.6-3.9-5.6-5.7
					c-13.8-12-27.7-23.9-41.5-35.9c-16.3-14.2-32.5-28.5-48.9-42.5c-2.7-2.3-4.8-5.7-8.9-6C-987-266.7-987-295.3-987-324z"/>
				<path class="st14" d="M-893.2-38c-4.8,0.1-9.7,0-14.5,0.3c-2.2,0.2-5.2,0.1-6,2.7c-1.3,4.3-4.1,5.2-8,5c-2.8-0.2-3.8,0.7-4,4
					c-0.8,9.5-0.3,19-0.4,28.4c0,3.5-1.4,5.6-4.6,6.8c-3.1,1.1-5.3,0.4-6.3-2.8c-2.2-7.3-4.4-14.7-6.5-22c-0.8-2.7,0.3-3.2,2.9-2.6
					c5.2,1.3,5.8,0.6,5-4.6c-0.2-1.1-0.3-2.3-0.5-3.5c-0.6-4.3,0.5-7.1,5.7-7c2.6,0,5.1-1.1,7.8-1.3c2.9-0.1,3.3-1.8,1.4-4
					c-2.3-2.6-4.5-5.3-6.9-7.9c-2.1-2.3-3.6-4.5-0.3-7.1c2.5-2,1.2-3.3-1.1-4.3c-11.2-4.7-19.2-2.5-26.4,7.5
					c-2.4,3.4-5.3,3.7-8.7,2.7c-8.6-2.7-16.1-0.8-22.4,5.6c-0.1-35.7-0.1-71.4-0.2-107.1c0-7,0.1-13.9,0.2-20.9
					c0.7,0.4,1.6,0.6,2.2,1.1c16,13.9,32,27.9,48,41.9c14.4,12.5,28.9,24.9,43.2,37.6c5.8,5.1,12.6,9.3,16.4,16.5
					c-2.1,5.2-4.3,10.4-6.4,15.6c-2.1,5-4.3,10.1-6.3,15.1C-890.6-40.5-891.8-39.2-893.2-38z"/>
				<path class="st15" d="M-877.2-73c-3.8-7.2-10.6-11.4-16.4-16.5c-14.3-12.7-28.8-25.1-43.2-37.6c-16-13.9-32-27.9-48-41.9
					c-0.6-0.5-1.5-0.7-2.2-1.1c0-22.7,0-45.3,0-68c4.1,0.2,6.3,3.7,8.9,6c16.4,14,32.6,28.3,48.9,42.5c13.8,12,27.7,23.9,41.5,35.9
					c2,1.7,3.7,3.8,5.6,5.7c-0.5,4.4-0.9,8.9-1.6,13.3c-1.9,11.2,1,20.8,9.2,28.6c6,5.8,6.9,12.2,3.7,19.5C-873-82-874-77-877.2-73z
					"/>
				<path class="st14" d="M-986-14c4.1-1.9,8.2-3.7,12.2-5.7c3.4-1.7,5.7-1.2,6.8,2.7c0.2,0.6,0.4,1.3,0.7,1.9c2.9,8.2,3,8.2,8.8,2
					c3.2-3.4,4.7-3.1,6.2,1.3c1.3,3.9,2.3,8,3.4,12c0.3,1.1,1,2.4-0.5,3.1c-1.3,0.6-2.2-0.4-3-1.2c-0.6-0.6-1-1.3-1.4-2.1
					c-2.2-4.6-6.9-5.9-10.6-2.1c-3.9,4-8.2,6.3-13.7,7.4c-5.1,1.1-6.9,5-5.2,9.9c0.6,1.9,1.6,3.6,2.3,5.5c0.9,2.4,2.1,3.3,4.3,1.3
					c2.4-2.2,4.4-1.8,6.1,1c0.5,0.9,1.5,1.7,2.5,1.4c6-2,5,3.5,6,6c1,2.6-1.8,2.5-3.6,2.6C-972,33-979.5,33-987,33
					c-0.1-14.5-0.1-28.9-0.2-43.4C-987.2-11.8-986.8-12.9-986-14z"/>
				<path class="st14" d="M-987-35c3.3,0.6,4.2,2.9,3.8,5.8c-0.6,4.5-0.9,9.1-3,13.3C-988.3-22.2-986.8-28.6-987-35z"/>
				<path class="st13" d="M-757.2-88c2.6-0.1,3.9-1.6,3.9-4.2c0.3-10.7,0.7-21.4-5.1-31.1c-0.5-0.9-1.9-2-0.6-3c1.1-0.9,2.1,0.3,3,1
					c8.1,7.1,16.2,14.2,24.4,21.3c14.3,12.4,28.6,24.8,42.9,37.3c7.5,6.5,15,13.1,22.5,19.7c0.8,0.7,1.6,1.4,1.3,2.5
					c-0.4,1.4-1.7,1.4-2.9,1.4c-3.8,0.1-7.7,0.1-11.5,0.1c-3.7-0.1-5.6,1.9-4.8,5.3c1,4.3-1,9.6,3.8,12.7c-0.1,6.9-0.1,7-6.9,7
					c-1.7,0-3.3,0-5,0c-2.6,0-4-1.2-4-3.9c0-1.8-0.1-3.7,0-5.5c0.1-3.1-1.2-4.7-4.4-4.6c-2.3,0.1-4.7-0.1-7,0
					c-3.7,0.1-7.3,0.4-8.9-4.3c-0.8-2.2-3.4-1.7-5.3-1.7c-9.8,0-19.6-0.2-29.5,0.1c-4.7,0.1-6.1-1.7-6-6.1
					C-757-58.7-757.2-73.4-757.2-88z"/>
				<path class="st15" d="M-820.1-90c3.5-2.1,6.1-1.5,9.2,1.4c7.4,6.9,15.2,13.4,22.8,20c1.8,1.5,3.6,2.9,5.9,3.5
					c-0.4,6.7,1.1,13.4-1,20c-0.3,0-0.7,0-1,0c-1.5-0.9-3-1.8-4.6-2.6c-1.7-0.9-2.3,0.1-2.4,1.6c-1.4,0.1-2.5,0.6-3,2
					c-0.3,0-0.7,0-1,0c-7.9,0.1-7.4,0-7.2,7.6c0.4,12.5,0.1,25,0.1,37.4c0,0.6-0.1,1.3-1.3,1.7c-1.8-1.9-1.6-4.4-1.6-6.7
					c0-9.2-0.1-18.3,0-27.5c0.1-4.6-1.9-6.7-6.6-6.6c-13,0.1-11.4-1-11.4,11c-0.1,9.3,0,18.6-0.1,28c0,1.6,0.8,4.3-1.9,4.3
					c-2.1,0-2.7-2.4-2.8-4.2c-0.5-6.5-0.9-12.9-1.2-19.4c-0.4-11.8,0.8-23.6-1-35.4c-0.2-1.3,0-2.7,0-4c0.1-0.8,0.2-1.8,1.1-2.1
					c1.3-0.4,1.7,0.7,2.2,1.6c2,3.7,2.9,7.8,3.6,11.9c0.3,1.7,0.4,3.4,2.4,4c2,0.6,3.6-0.2,4.9-1.7c0.4-0.5,0.8-1.4,1.3-1.5
					c7.6-1.8,2.8-5.5,1.4-8.7c-1.4-3-2.9-6-2.8-9.5c0-2,0.9-3.1,2.9-3.3l0,0C-817.4-74.1-819.6-81.8-820.1-90z"/>
				<path class="st15" d="M-875.1-142c7.5,1.1,11.4,7.6,16.9,11.5c3.7,2.6,5.8,6.6,8.1,10.5c-0.3,3.3-0.3,7.1-4,8.4
					c-4,1.4-7.8,0.1-11-2.9C-873-122-875.7-131.4-875.1-142z"/>
				<path class="st13" d="M-794.2-44c0.5-1.4,1.6-1.9,3-2C-791.6-44.5-792.8-44.1-794.2-44z"/>
				<path class="st13" d="M-784.2-45c0.3,0,0.7,0,1,0C-783.5-45-783.8-45-784.2-45z"/>
				<path class="st6" d="M-703.2,189c0.7-0.3,1.3-0.7,2-1C-701.5,189-702,189.7-703.2,189z"/>
				<path class="st4" d="M-813.2-67L-813.2-67L-813.2-67z"/>
			</g>
		</g>
	</g>
	<g>
		<g>
			<defs>
				<polyline id="SVGID_8_" points="-483.6,-101.9 -429.6,-65.9 -426.8,-70.1 -480.8,-106.1 				"/>
			</defs>
			<clipPath id="SVGID_9_">
				<use xlink:href="#SVGID_8_"  style="overflow:visible;"/>
			</clipPath>
			<g class="st16">
				
					<image style="overflow:visible;enable-background:new    ;" width="1367" height="769" xlink:href="DBABCC2A.jpg"  transform="matrix(0.9991 0 0 0.9991 -1644.0706 -432.1657)">
				</image>
			</g>
		</g>
	</g>
	<g>
		<g>
			<defs>
				<polyline id="SVGID_10_" points="-438.1,-105.6 -476.1,-59.6 -472.2,-56.4 -434.2,-102.4 				"/>
			</defs>
			<clipPath id="SVGID_11_">
				<use xlink:href="#SVGID_10_"  style="overflow:visible;"/>
			</clipPath>
			<g class="st17">
				
					<image style="overflow:visible;enable-background:new    ;" width="1367" height="769" xlink:href="DBABCC28.jpg"  transform="matrix(0.9991 0 0 0.9991 -1644.0706 -432.1657)">
				</image>
			</g>
		</g>
	</g>
	<g>
		<g>
			<defs>
				<path id="SVGID_12_" d="M-908.7-314v2.5c7.7,0,14,6.4,14,14.5c0,8.1-6.3,14.5-14,14.5c-7.7,0-14-6.4-14-14.5
					c0-8.1,6.3-14.5,14-14.5V-314v-2.5c-10.6,0-19,8.8-19,19.5c0,10.7,8.4,19.5,19,19.5c10.6,0,19-8.8,19-19.5
					c0-10.7-8.4-19.5-19-19.5V-314L-908.7-314L-908.7-314z"/>
			</defs>
			<clipPath id="SVGID_13_">
				<use xlink:href="#SVGID_12_"  style="overflow:visible;"/>
			</clipPath>
			<g class="st18">
				
					<image style="overflow:visible;enable-background:new    ;" width="1367" height="769" xlink:href="DBABCC29.jpg"  transform="matrix(0.9991 0 0 0.9991 -1644.0706 -432.1657)">
				</image>
			</g>
		</g>
	</g>
	<g>
		<g>
			<defs>
				<path id="SVGID_14_" d="M-974.6-427.9v180.7c0,0-10.5,64.8,62,115.9C-840.1-80.1-256.2,357-256.2,357l21-789.1L-880.6-453
					L-974.6-427.9L-974.6-427.9z"/>
			</defs>
			<clipPath id="SVGID_15_">
				<use xlink:href="#SVGID_14_"  style="overflow:visible;"/>
			</clipPath>
		</g>
		<g>
			<defs>
				<path id="SVGID_16_" d="M-974.6-427.9v180.7c0,0-10.5,64.8,62,115.9C-840.1-80.1-256.2,357-256.2,357l21-789.1L-880.6-453
					L-974.6-427.9L-974.6-427.9z"/>
			</defs>
			<defs>
				<path id="SVGID_17_" d="M-893.7-300c10.8,0,19.5,9.4,19.5,21c0,11.6-8.7,21-19.5,21c-10.8,0-19.5-9.4-19.5-21
					C-913.2-290.6-904.4-300-893.7-300L-893.7-300z"/>
			</defs>
			<clipPath id="SVGID_18_">
				<use xlink:href="#SVGID_16_"  style="overflow:visible;"/>
			</clipPath>
			<clipPath id="SVGID_19_" class="st19">
				<use xlink:href="#SVGID_17_"  style="overflow:visible;"/>
			</clipPath>
			<g class="st20">
				
					<image style="overflow:visible;enable-background:new    ;" width="1367" height="769" xlink:href="DBABCC36.jpg"  transform="matrix(0.9991 0 0 0.9991 -1644.0706 -432.1657)">
				</image>
			</g>
		</g>
	</g>
	<g>
		<g>
			<defs>
				<path id="SVGID_20_" d="M-908.7-314v2.5c7.7,0,14,6.4,14,14.5c0,8.1-6.3,14.5-14,14.5c-7.7,0-14-6.4-14-14.5
					c0-8.1,6.3-14.5,14-14.5V-314v-2.5c-10.6,0-19,8.8-19,19.5c0,10.7,8.4,19.5,19,19.5c10.6,0,19-8.8,19-19.5
					c0-10.7-8.4-19.5-19-19.5V-314L-908.7-314L-908.7-314z"/>
			</defs>
			<clipPath id="SVGID_21_">
				<use xlink:href="#SVGID_20_"  style="overflow:visible;"/>
			</clipPath>
		</g>
		<g>
			<defs>
				<path id="SVGID_22_" d="M-908.7-314v2.5c7.7,0,14,6.4,14,14.5c0,8.1-6.3,14.5-14,14.5c-7.7,0-14-6.4-14-14.5
					c0-8.1,6.3-14.5,14-14.5V-314v-2.5c-10.6,0-19,8.8-19,19.5c0,10.7,8.4,19.5,19,19.5c10.6,0,19-8.8,19-19.5
					c0-10.7-8.4-19.5-19-19.5V-314L-908.7-314L-908.7-314z"/>
			</defs>
			<defs>
				<path id="SVGID_23_" d="M-893.7-300c10.8,0,19.5,9.4,19.5,21c0,11.6-8.7,21-19.5,21c-10.8,0-19.5-9.4-19.5-21
					C-913.2-290.6-904.4-300-893.7-300L-893.7-300z"/>
			</defs>
			<clipPath id="SVGID_24_">
				<use xlink:href="#SVGID_22_"  style="overflow:visible;"/>
			</clipPath>
			<clipPath id="SVGID_25_" class="st21">
				<use xlink:href="#SVGID_23_"  style="overflow:visible;"/>
			</clipPath>
			<g class="st22">
				
					<image style="overflow:visible;enable-background:new    ;" width="1367" height="769" xlink:href="DBABCC37.jpg"  transform="matrix(0.9991 0 0 0.9991 -1644.0706 -432.1657)">
				</image>
			</g>
		</g>
	</g>
	<g>
		<g>
			<defs>
				<path id="SVGID_26_" d="M-974.6-427.9v180.7c0,0-10.5,64.8,62,115.9C-840.1-80.1-256.2,357-256.2,357l21-789.1L-880.6-453
					L-974.6-427.9L-974.6-427.9z"/>
			</defs>
			<clipPath id="SVGID_27_">
				<use xlink:href="#SVGID_26_"  style="overflow:visible;"/>
			</clipPath>
		</g>
		<g>
			<defs>
				<path id="SVGID_28_" d="M-974.6-427.9v180.7c0,0-10.5,64.8,62,115.9C-840.1-80.1-256.2,357-256.2,357l21-789.1L-880.6-453
					L-974.6-427.9L-974.6-427.9z"/>
			</defs>
			<defs>
				<path id="SVGID_29_" d="M-893.7-300v2.5c9.2,0,17,8.1,17,18.5c0,10.4-7.8,18.5-17,18.5c-9.2,0-17-8.1-17-18.5
					c0-10.4,7.8-18.5,17-18.5V-300v-2.5c-12.3,0-22,10.7-22,23.5c0,12.8,9.7,23.5,22,23.5c12.3,0,22-10.7,22-23.5
					c0-12.8-9.7-23.5-22-23.5V-300L-893.7-300L-893.7-300z"/>
			</defs>
			<clipPath id="SVGID_30_">
				<use xlink:href="#SVGID_28_"  style="overflow:visible;"/>
			</clipPath>
			<clipPath id="SVGID_31_" class="st23">
				<use xlink:href="#SVGID_29_"  style="overflow:visible;"/>
			</clipPath>
			<g class="st24">
				
					<image style="overflow:visible;enable-background:new    ;" width="1367" height="769" xlink:href="DBABCC3B.jpg"  transform="matrix(0.9991 0 0 0.9991 -1644.0706 -432.1657)">
				</image>
			</g>
		</g>
	</g>
	<g>
		<g>
			<defs>
				<path id="SVGID_32_" d="M-908.7-314v2.5c7.7,0,14,6.4,14,14.5c0,8.1-6.3,14.5-14,14.5c-7.7,0-14-6.4-14-14.5
					c0-8.1,6.3-14.5,14-14.5V-314v-2.5c-10.6,0-19,8.8-19,19.5c0,10.7,8.4,19.5,19,19.5c10.6,0,19-8.8,19-19.5
					c0-10.7-8.4-19.5-19-19.5V-314L-908.7-314L-908.7-314z"/>
			</defs>
			<clipPath id="SVGID_33_">
				<use xlink:href="#SVGID_32_"  style="overflow:visible;"/>
			</clipPath>
		</g>
		<g>
			<defs>
				<path id="SVGID_34_" d="M-908.7-314v2.5c7.7,0,14,6.4,14,14.5c0,8.1-6.3,14.5-14,14.5c-7.7,0-14-6.4-14-14.5
					c0-8.1,6.3-14.5,14-14.5V-314v-2.5c-10.6,0-19,8.8-19,19.5c0,10.7,8.4,19.5,19,19.5c10.6,0,19-8.8,19-19.5
					c0-10.7-8.4-19.5-19-19.5V-314L-908.7-314L-908.7-314z"/>
			</defs>
			<defs>
				<path id="SVGID_35_" d="M-893.7-300v2.5c9.2,0,17,8.1,17,18.5c0,10.4-7.8,18.5-17,18.5c-9.2,0-17-8.1-17-18.5
					c0-10.4,7.8-18.5,17-18.5V-300v-2.5c-12.3,0-22,10.7-22,23.5c0,12.8,9.7,23.5,22,23.5c12.3,0,22-10.7,22-23.5
					c0-12.8-9.7-23.5-22-23.5V-300L-893.7-300L-893.7-300z"/>
			</defs>
			<clipPath id="SVGID_36_">
				<use xlink:href="#SVGID_34_"  style="overflow:visible;"/>
			</clipPath>
			<clipPath id="SVGID_37_" class="st25">
				<use xlink:href="#SVGID_35_"  style="overflow:visible;"/>
			</clipPath>
			<g class="st26">
				
					<image style="overflow:visible;enable-background:new    ;" width="1367" height="769" xlink:href="DBABCC3D.jpg"  transform="matrix(0.9991 0 0 0.9991 -1644.0706 -432.1657)">
				</image>
			</g>
		</g>
	</g>
</g>
<image style="overflow:visible;enable-background:new    ;" width="1366" height="769" xlink:href="DBABCC3E.jpg"  transform="matrix(0.9997 0 0 0.9997 -1450.7864 163.6193)">
</image>
<g>
	<path class="st27" d="M-214.7-122.7c0.5,4.1,0.1,8.4,0.1,12.6c0.5,0.1,1,0.2,1.6,0.3c3.3-11.5,6.5-23.1,10.1-35.6
		c-3.2,1.2-5.7,2.1-8.7,3.3c0.5-5.3,1-10.2,1.6-15.7c-0.6-0.1-1.2-0.1-1.8-0.2l-3.4,33.6C-215-123.8-214.8-123.2-214.7-122.7z"/>
	<path class="st27" d="M-1086-149.7c-0.1-0.1-0.1-0.5-0.1-0.7c-1.7-0.5-3.3-1.1-5.1-1.6c-0.9,1.6-1.6,3.3-2.8,4.5
		c-0.9,0.9-2.5,1.6-3.7,1.5c-0.7-0.1-1.5-1.8-1.8-2.9c-0.5-2.3-0.4-4.7-1-6.9c-0.9-2.9-2.3-5.7-3.5-8.6c-0.4,0.2-0.8,0.4-1.3,0.5
		c-0.1,0.5-0.3,1.1-0.3,1.6l1,40.8c0.1,4.7,0.3,9.3,0.8,14c0.2,2.3,0,5.4,4.2,5.5c0-13.6,0-27,0-40.6c4,0,7.5,0.2,11,0
		c4-0.3,5.1,1.6,5,5.5c-0.2,9.4-0.1,18.8,0,28.1c0,1.7,0.6,3.3,0.9,5c0.5,0,0.9-0.1,1.4-0.1c0.2-1.6,0.5-3.3,0.5-4.9
		c0.1-7.9-0.2-15.8,0.1-23.7C-1080.4-139.3-1080.2-145.5-1086-149.7z"/>
	<path class="st28" d="M-261.6,334l0.9-9h-16.7C-267.2,330.8-261.6,334-261.6,334z"/>
	<path class="st28" d="M-955.7-146.9c-0.1-4.2-0.7-8.5,3-11.8c0.6-0.5,0.3-2.2,0.3-3.4c0-10,0-19.9,0-30.3c5.5,0.1,6.4-3.9,6.1-8.6
		c5.7,0,11.1,0,16.7,0c-0.3,4.1,0.4,7.2,4.6,8.3c0.7,0.2,1.2,2.4,1.3,3.7c0.1,8.1,0,16.1,0.1,24.2c0,1.3-0.3,2.9,0.2,3.9
		c4.8,8,2.8,16.8,3.2,25.3c0,0.6,0,1.2,0.1,1.8c0,0.3,0.2,0.5,1,1.8c2.8-3.3,5.3-6.3,8.1-9.6c1.7,3.4,4.5,4.8,7.2,2.7
		c2.2-1.7,4.9-4.6,5-7.1c0.6-9.3,0.5-18.7,0.2-28c-0.1-5.5,0.7-7.4,5-7.6c0-6.5,0.1-13.1,0-19.6c-0.1-9.8-0.3-19.6-0.4-29.4
		c0-0.9,0-2,0.5-2.5c6.5-6.4,3.3-14.6,3.9-22.1c0.4-5.1-0.1-10.3,0.1-15.4c0.1-1.7,0.7-4.4,1.9-5c4.2-2.1,3.9-5.9,4.2-9.6
		c1.1-15.6,2.3-31.2,3.5-46.8c0-0.5,0.4-1,1.4-1.5c0.6,6.1,1.4,12.2,1.9,18.2c0.9,10.6,1.7,21.2,2.7,31.8c0.1,1.3,0.3,2.8,1.1,3.7
		c6.7,8.3,4.3,18.4,5.1,27.8c0.3,3.2-0.2,6.4-0.4,9.6c-0.3,4.2,0.5,7.2,5.2,8.4c3.3,0.9,4.1,4.3,4.1,7.8
		c-0.1,13.1,0.1,26.1-0.1,39.2c-0.1,3.8,0.4,6.4,5,5.8c0,19.7,0,39.2,0,59.2c6.3,0,12.4,0,18.9,0c0-7.9,0-16.1,0-24.8
		c8,0,15.7-0.5,23.3,0.3c3.1,0.3,6.1,3.2,5.9,7.8c-0.2,7.4-0.1,14.9-0.1,22.5c2.3,0,3.6,0,5.4,0c0-11.6,0-23,0-34.4
		c0-5.4,0.2-10.9,0-16.3c-0.2-4,0.2-7.1,4.2-6.6c1.8-4.1,3.4-7.7,4.9-11.3c0.5,0.1,0.9,0.2,1.4,0.3c0.1,2.6,0.4,5.2,0.3,7.8
		c-0.1,2.6,1.3,3.2,3.3,3.5c2,0.3,2.9-0.4,3.5-2.6c1-3.4,2.5-6.7,3.8-10.2c3,4.1-2.2,12.5,7,13.3c0,7.3,0,14.6,0,22.4
		c8.8,0,17.1,0,26,0c0,4.8,0,9.1,0,13.8c3.8-1.4,6-2.8,3.8-6.8c-0.5-1-1-3-0.5-3.5c3.7-3.6,1.5-6.1-1.4-8.6c3.4-3.2,4.5-6.3,0.2-9.6
		c3.3-3.2,4.1-6.5,0-9.8c3.2-3.3,4.1-6.5,0-9.7c2.9-3.3,4.5-6.6-0.3-10c4.3-3,4.4-6.2,0.7-9.1c3.2-5.8,3.2-5.8-0.1-10
		c1.9-2.9,5.6-6.3-0.1-9.4c2.1-3.5,4.9-6.9-0.2-9.9c2.9-3.5,4.1-6.9-0.1-10.1c3.7-3.1,4.2-6.2,0.3-9.4c2.6-3.4,4.5-6.8,0-9.7
		c1.6-2.6,3.1-4.9,4.8-7.6c-1.9-0.9-3.2-1.5-4.2-2c0.1-2.1,0.2-4,0.3-5.8c1.6-1.7,2.6-3.5,0.2-6.3c-2.9-3.3-0.6-5.2,2.2-6.1
		c5.1-1.6,10.3-2.7,15.5-4c1.3-0.3,2.6-0.7,5.2-1.4c-11.4-6.3-21.7-12.1-32-17.8c0.1-0.3,0.2-0.6,0.3-1c6.9,0,13.8,0,21,0
		c0.3-2.7,0.6-4.9,0.8-7.3c19.7,0,39.3,0,59.1,0c0.4,2.1,0.8,4.2,1.2,6.8c7.3,0,14.7,0,22,0c0.1,0.3,0.1,0.7,0.2,1
		c-10.5,6-20.9,11.9-32.4,18.4c5.6,1.4,10.2,2.6,14.8,3.8c1.6,0.4,3.3,0.8,4.8,1.4c3,1.1,4.8,2.8,2.7,6.5c-1.7,3-0.4,8.9,2.2,11.2
		c-1.7,0.9-3.5,1.8-5.4,2.8c0.7,1.2,1.2,2.4,1.9,3.5c0.7,1.1,1.4,2.2,2.3,3.4c-2.4,3-5.1,6.2,0.4,9.1c-2.7,3.6-4.8,7-0.4,10.2
		c-3.8,4.8-3.8,5-0.1,10c-2.3,3.1-4.8,6.3,0.3,9.5c-2.4,3.2-5,6.4-0.1,9.7c-3.1,3.4-3.8,6.7,0.1,10.1c-3.4,3.1-3.7,6.3,0,9.8
		c-4,2.9-4.2,6.1-0.1,9.1c-1.9,3.2-6.1,6.4,0,9.7c-2,3.3-5.3,6.7,0.4,9.8c-4.4,3.5-4.4,6.9,0,10.1c-3.9,3.1-4.6,6.1-0.8,9.6
		c0.9,0.8,1.1,2.9,1.1,4.4c0.2,3.8,0,7.6,0,11.5c2.9,0,5.4,0,8.3,0c0-16.8,0-33.7,0-50.9c3.1,0,5.7,0,8.8,0c0,4.1,0,8.3,0,12.9
		c5.9,0.3,11.2,0.6,16.9,0.8c0.3,4.9,0.7,9.8,1,14.7c0.6,0,1.1,0,1.7,0c3.3-4.7,1-10.5,2.2-15.9c2.5,0,4.9,0,7.4,0
		c1.6,7.1,6.5,11.6,14.9,13c0.3-3,0.7-5.9,0.8-8.9c0.1-4.4,0.1-8.8,0-13.2c-0.1-3.5-0.1-6.8,5.1-5.7c0.5-8.6,1-16.7,1.5-24.8
		c0.3,0,0.7-0.1,1-0.1c0.2,0.8,0.5,1.7,0.6,2.5c0.1,6,0.1,12,0.1,18c0,2.5,0.7,4.4,3.5,4.3c2.8-0.1,3.5-2.1,3.5-4.5
		c0-5.4,0-10.7,0-16.1c0.4-0.1,0.7-0.2,1.1-0.3c0.4,1.2,0.9,2.4,1,3.6c0.2,3.2,0.3,6.4,0.4,9.7c0,3.2-0.1,6.1,2.5,8.8
		c1.4,1.4,1.5,4.6,1.5,7c0.2,8.1,0.1,16.2,0.1,24.6c5.7,0,10.1,0,15,0c0-6,0-12,0-17.4c7-2.2,13.5-4.3,20.6-6.6
		c0,6.1-0.1,11.5,0,16.8c0.2,9.8,0.5,19.6,1,29.4c0.1,1.3,1.2,2.5,1.8,3.8c0.7-1.2,2-2.3,2.1-3.6c0.7-13.9,1.4-27.7,1.9-41.6
		c0.4-11.9,0.9-23.7,0.5-35.6c-0.9-21.7-2.4-43.5-3.9-65.2c-0.2-3.1,1.3-3.8,3.2-4.1c5.6-0.9,11.3-1.5,17-2.1
		c0.7-0.1,1.4-0.1,2.3-0.2c0.7-2.7,1.3-5.3,1.8-7.1c6.9,3.7,14.3,1,21.3,1.7c0.9,0.1,2-1.5,3.2-2.4c0.4,8.1,6.5,8.7,12.7,9.2
		c3.5,0.3,6.9,0.8,9.9,1.2c-1.3,8-2.7,15.6-3.8,23.3c-0.4,2.9-0.4,5.8-0.4,8.8c0,20.8-0.1,41.7,0,62.5c0.1,11.9,0.4,23.7,0.6,35.5
		c0,1.4,0.3,2.9,0.5,4.5c2.1,0,4,0,6.4,0c0-8,0-15.9,0-24c2.1-0.6,3.8-1,5.9-1.5c0-2.6,0-5.2,0-8.3c13.6,0,26.8,0,40.6,0
		c0-6.4,0-12.4,0-18.3c0-6.3,0-12.6,0-18.9c0-5.2-0.1-5.2-5.7-6.6c0-5.7,0-11.6,0-17.5c-0.1-6.3-0.3-12.6-0.3-18.9
		c-0.1-6.7,0.7-7.3,6.9-7c1.1,0.1,2.2,0,3.9,0c0-10.5,0-20.9,0-31.7c9.3,1.4,9.6-8.4,15.3-12.1c2.2,3,4.3,6.2,6.8,9.1
		c1,1.2,2.8,2.2,4.4,2.4c2.5,0.4,3.8,1.7,3.7,4.3c0,7,0.1,14.1-0.1,21.1c-0.2,5.7,0,6.2,5.2,7.2c1.6,0.3,3.3,0.2,5.3,0.3
		c0,8.6,0,17.3,0,25.9c0,4.5-0.1,9.1,0,13.6c0,2.3-0.1,4.1-3,4.1c-2.4,0-2.9,1.6-2.9,3.8c0,27,0,54,0,81c0,3,1.1,4.1,4.1,3.9
		c4.6-0.3,9.2-0.1,14.2-0.1c0.2-1.7,0.4-3.3,0.4-4.8c0-48,0-95.9,0-143.9c0-8.7-0.2-17.5,0.1-26.2c0-1.5,1.8-2.9,2.8-4.3
		c1.1-1.5,3.2-3.2,3.1-4.5c-0.2-1.4-2.4-2.8-4.1-3.5c-1.5-0.6-3.3-0.1-5.1-0.1c-0.6-2.9-2-5.7,2-6.9c0.1,0,0.4-0.1,0.4-0.1
		c-1.3-6.5,8-7.2,6.4-14.1c6.4,0,12.5,0,19.1,0c0-5.8,0-11.1,0-16.6c2.6-0.5,4.8-0.9,6.9-1.3c0.3-2.2,0.6-4.4,1-6.6
		c0.2,0,0.4,0,0.7,0c0.4,2.2,0.7,4.4,1.1,7c2.6-0.8,6.3,1.8,7.3-4.7c1.2,6.6,5.3,4.5,8.1,4.5c4.4-0.1,0.9-4.9,2.9-6.8
		c0.2,0.2,0.5,0.3,0.5,0.4c0.5,6.4,0.5,6.4,6.6,6.4c6.4,0,12.8,0,19.5,0c0.3-1.7,0.5-3,0.7-4.4c0.6,5.8,5.3,4.5,9,5.3
		c0,5.4,0,10.6,0,16.4c5.1,0,9.9,0.1,14.6,0c2.9-0.1,4.2,1.2,5.5,4.1c1.8,3.9,5,7.1,7.3,10.8c0.7,1.2,1.1,2.9,1,4.3
		c0,0.8-1.2,1.8-2.1,2.1c-1.4,0.5-3.1,0.3-4.5,0.9c-1.4,0.7-3.1,1.8-3.6,3.1c-0.8,2.2,0.3,3.7,2.9,4.1c3.4,0.6,3.6,3.6,3.6,6.5
		c0,12.9,0,25.8,0,38.7c0,50.2,0,100.3,0,150.5c0,1.4-0.7,3-0.3,4.3c0.3,1.2,1.6,2.1,2.5,3.1c0.7-1,2-2,2.1-3
		c0.3-3.4,0.1-6.9,0.1-10.7c1.5-0.4,3.3-0.9,5.4-1.5c0-2.7,0-5.3,0-8.4c4.2,0,8.2-0.4,11.9,0.2c0.9,0.1,2,1.5,2.6,2.9l3.4-33.6
		c-4.1-0.4-8.2-0.8-12.7-1.3c1.3-6.5,5.7-10.3,10.5-14.1c-1.6-1.8-3-3.3-4.4-4.9c3-2.4,6-4,9-4.4l27.2-269.3h-793.5v252.6
		c0,0,0.4,22.2,15.2,56.3c0.3,0,0.5,0,0.8,0C-956.9-143.1-955.7-144.1-955.7-146.9z"/>
	<path class="st28" d="M-214-173.4c-4.9,3.8-9.2,7.6-10.5,14.1c4.5,0.5,8.6,0.9,12.7,1.3l2.5-24.7c-3,0.5-6,2-9,4.4
		C-217-176.7-215.6-175.2-214-173.4z"/>
	
		<linearGradient id="SVGID_38_" gradientUnits="userSpaceOnUse" x1="-1249.124" y1="938.3805" x2="-156.1123" y2="938.3805" gradientTransform="matrix(1 0 0 -1 0 768)">
		<stop  offset="0" style="stop-color:#F3761D"/>
		<stop  offset="1" style="stop-color:#F08D0E"/>
	</linearGradient>
	<path class="st29" d="M-214-173.4c-4.9,3.8-9.2,7.6-10.5,14.1c4.5,0.5,8.6,0.9,12.7,1.3l2.5-24.7c-3,0.5-6,2-9,4.4
		C-217-176.7-215.6-175.2-214-173.4z"/>
	<path class="st28" d="M-217.9-127.3c-3.8-0.6-7.7-0.2-11.9-0.2c0,3.1,0,5.6,0,8.4c-2.1,0.6-3.9,1.1-5.4,1.5c0,3.8,0.2,7.3-0.1,10.7
		c-0.1,1.1-1.4,2-2.1,3c-0.9-1-2.2-1.9-2.5-3.1c-0.4-1.3,0.3-2.8,0.3-4.3c0-50.2,0-100.3,0-150.5c0-12.9,0-25.8,0-38.7
		c0-2.9-0.1-5.9-3.6-6.5c-2.6-0.4-3.7-1.9-2.9-4.1c0.5-1.3,2.2-2.5,3.6-3.1c1.3-0.6,3.1-0.4,4.5-0.9c0.9-0.3,2.1-1.3,2.1-2.1
		c0.1-1.4-0.3-3.1-1-4.3c-2.4-3.7-5.5-6.9-7.3-10.8c-1.3-2.9-2.6-4.2-5.5-4.1c-4.7,0.1-9.4,0-14.6,0c0-5.8,0-11,0-16.4
		c-3.8-0.8-8.4,0.4-9-5.3c-0.2,1.4-0.5,2.8-0.7,4.4c-6.6,0-13,0-19.5,0c-6.1,0-6.1,0-6.6-6.4c0-0.2-0.3-0.3-0.5-0.4
		c-2,1.9,1.5,6.6-2.9,6.8c-2.8,0.1-6.9,2.2-8.1-4.5c-1,6.4-4.7,3.9-7.3,4.7c-0.4-2.6-0.8-4.8-1.1-7c-0.2,0-0.4,0-0.7,0
		c-0.3,2.2-0.6,4.4-1,6.6c-2.2,0.4-4.3,0.8-6.9,1.3c0,5.4,0,10.8,0,16.6c-6.6,0-12.7,0-19.1,0c1.5,6.9-7.7,7.6-6.4,14.1
		c0,0-0.2,0.1-0.4,0.1c-4,1.2-2.5,4-2,6.9c1.8,0,3.7-0.5,5.1,0.1c1.6,0.7,3.9,2.1,4.1,3.5c0.2,1.4-2,3-3.1,4.5
		c-1,1.4-2.7,2.8-2.8,4.3c-0.2,8.7-0.1,17.5-0.1,26.2c0,48,0,95.9,0,143.9c0,1.5-0.3,3.1-0.4,4.8c-5,0-9.7-0.2-14.2,0.1
		c-3,0.2-4.1-0.9-4.1-3.9c0-27,0-54,0-81c0-2.2,0.5-3.8,2.9-3.8c2.9,0,3-1.8,3-4.1c-0.1-4.5,0-9.1,0-13.6c0-8.6,0-17.3,0-25.9
		c-2-0.1-3.7,0-5.3-0.3c-5.3-1-5.4-1.5-5.2-7.2c0.2-7,0.1-14.1,0.1-21.1c0-2.6-1.2-3.9-3.7-4.3c-1.6-0.3-3.3-1.2-4.4-2.4
		c-2.5-2.9-4.6-6.1-6.8-9.1c-5.7,3.7-6,13.5-15.3,12.1c0,10.9,0,21.2,0,31.7c-1.6,0-2.7,0-3.9,0c-6.3-0.3-7,0.4-6.9,7
		c0,6.3,0.3,12.6,0.3,18.9c0.1,5.9,0,11.8,0,17.5c5.6,1.4,5.6,1.4,5.7,6.6c0.1,6.3,0,12.6,0,18.9c0,6,0,11.9,0,18.3
		c-13.8,0-27,0-40.6,0c0,3.1,0,5.7,0,8.3c-2,0.5-3.8,1-5.9,1.5c0,8.1,0,16.1,0,24c-2.3,0-4.2,0-6.4,0c-0.2-1.7-0.4-3.1-0.5-4.5
		c-0.2-11.8-0.5-23.7-0.6-35.5c-0.1-20.8-0.1-41.7,0-62.5c0-2.9,0-5.9,0.4-8.8c1.1-7.7,2.5-15.4,3.8-23.3c-3-0.4-6.5-0.9-9.9-1.2
		c-6.2-0.6-12.4-1.1-12.7-9.2c-1.2,0.9-2.2,2.4-3.2,2.4c-7-0.7-14.4,2.1-21.3-1.7c-0.5,1.8-1.1,4.5-1.8,7.1
		c-0.9,0.1-1.6,0.1-2.3,0.2c-5.7,0.7-11.3,1.2-17,2.1c-1.8,0.3-3.4,1-3.2,4.1c1.5,21.7,3,43.4,3.9,65.2c0.5,11.8-0.1,23.7-0.5,35.6
		c-0.4,13.9-1.1,27.8-1.9,41.6c-0.1,1.2-1.4,2.4-2.1,3.6c-0.6-1.3-1.7-2.5-1.8-3.8c-0.4-9.8-0.7-19.6-1-29.4c-0.1-5.4,0-10.8,0-16.8
		c-7.1,2.3-13.5,4.3-20.6,6.6c0,5.5,0,11.4,0,17.4c-4.9,0-9.3,0-15,0c0-8.3,0.1-16.4-0.1-24.6c-0.1-2.4-0.1-5.6-1.5-7
		c-2.6-2.7-2.5-5.6-2.5-8.8c0-3.2-0.1-6.4-0.4-9.7c-0.1-1.2-0.7-2.4-1-3.6c-0.4,0.1-0.7,0.2-1.1,0.3c0,5.4,0,10.7,0,16.1
		c0,2.4-0.7,4.4-3.5,4.5c-2.8,0.1-3.5-1.9-3.5-4.3c0-6,0-12-0.1-18c0-0.8-0.4-1.7-0.6-2.5c-0.3,0-0.7,0.1-1,0.1
		c-0.5,8.1-1,16.2-1.5,24.8c-5.3-1.1-5.2,2.2-5.1,5.7c0.1,4.4,0.1,8.8,0,13.2c-0.1,3-0.5,5.9-0.8,8.9c-8.4-1.4-13.3-5.9-14.9-13
		c-2.5,0-5,0-7.4,0c-1.2,5.4,1.1,11.2-2.2,15.9c-0.6,0-1.1,0-1.7,0c-0.3-4.9-0.7-9.8-1-14.7c-5.7-0.3-11-0.5-16.9-0.8
		c0-4.6,0-8.8,0-12.9c-3.1,0-5.7,0-8.8,0c0,17.2,0,34.1,0,50.9c-3,0-5.5,0-8.3,0c0-4,0.1-7.8,0-11.5c-0.1-1.5-0.2-3.6-1.1-4.4
		c-3.8-3.5-3.1-6.4,0.8-9.6c-4.4-3.2-4.4-6.6,0-10.1c-5.7-3.1-2.4-6.5-0.4-9.8c-6-3.4-1.9-6.5,0-9.7c-4.2-3.1-3.9-6.2,0.1-9.1
		c-3.7-3.5-3.4-6.7,0-9.8c-3.9-3.4-3.2-6.8-0.1-10.1c-4.8-3.4-2.2-6.6,0.1-9.7c-5.1-3.2-2.7-6.4-0.3-9.5c-3.7-5-3.7-5.2,0.1-10
		c-4.4-3.2-2.3-6.6,0.4-10.2c-5.5-2.8-2.8-6-0.4-9.1c-0.9-1.3-1.6-2.3-2.3-3.4c-0.7-1.1-1.2-2.2-1.9-3.5c1.9-1,3.6-1.9,5.4-2.8
		c-2.6-2.3-3.9-8.2-2.2-11.2c2.1-3.8,0.3-5.4-2.7-6.5c-1.6-0.6-3.2-0.9-4.8-1.4c-4.6-1.2-9.2-2.3-14.8-3.8
		c11.5-6.5,21.9-12.5,32.4-18.4c-0.1-0.3-0.1-0.7-0.2-1c-7.3,0-14.6,0-22,0c-0.5-2.6-0.9-4.7-1.2-6.8c-19.8,0-39.4,0-59.1,0
		c-0.3,2.4-0.5,4.7-0.8,7.3c-7.2,0-14.1,0-21,0c-0.1,0.3-0.2,0.6-0.3,1c10.3,5.8,20.7,11.5,32,17.8c-2.6,0.7-3.9,1.1-5.2,1.4
		c-5.2,1.3-10.4,2.4-15.5,4c-2.8,0.9-5,2.8-2.2,6.1c2.4,2.8,1.4,4.6-0.2,6.3c-0.1,1.8-0.2,3.7-0.3,5.8c1,0.5,2.3,1.1,4.2,2
		c-1.7,2.6-3.2,5-4.8,7.6c4.5,2.9,2.5,6.3,0,9.7c3.9,3.2,3.5,6.3-0.3,9.4c4.2,3.2,3,6.6,0.1,10.1c5.1,3.1,2.3,6.4,0.2,9.9
		c5.7,3.1,1.9,6.4,0.1,9.4c3.3,4.2,3.3,4.2,0.1,10c3.7,2.9,3.6,6.1-0.7,9.1c4.8,3.4,3.2,6.7,0.3,10c4.1,3.2,3.2,6.4,0,9.7
		c4.1,3.2,3.3,6.5,0,9.8c4.3,3.3,3.2,6.5-0.2,9.6c2.9,2.5,5.1,5,1.4,8.6c-0.5,0.5-0.1,2.5,0.5,3.5c2.3,4,0.1,5.4-3.8,6.8
		c0-4.7,0-9,0-13.8c-8.9,0-17.2,0-26,0c0-7.8,0-15.1,0-22.4c-9.3-0.7-4-9.1-7-13.3c-1.3,3.5-2.8,6.8-3.8,10.2
		c-0.6,2.2-1.5,2.9-3.5,2.6c-2-0.3-3.4-0.9-3.3-3.5c0.1-2.6-0.2-5.2-0.3-7.8c-0.5-0.1-0.9-0.2-1.4-0.3c-1.6,3.6-3.1,7.2-4.9,11.3
		c-4-0.4-4.4,2.6-4.2,6.6c0.2,5.4,0,10.9,0,16.3c0,11.4,0,22.8,0,34.4c-1.7,0-3,0-5.4,0c0-7.6-0.2-15.1,0.1-22.5
		c0.2-4.6-2.8-7.5-5.9-7.8c-7.6-0.8-15.3-0.3-23.3-0.3c0,8.7,0,16.9,0,24.8c-6.5,0-12.5,0-18.9,0c0-20,0-39.4,0-59.2
		c-4.6,0.6-5.1-2-5-5.8c0.2-13.1,0-26.1,0.1-39.2c0-3.5-0.8-7-4.1-7.8c-4.7-1.2-5.5-4.2-5.2-8.4c0.2-3.2,0.7-6.4,0.4-9.6
		c-0.8-9.4,1.6-19.5-5.1-27.8c-0.7-0.9-1-2.5-1.1-3.7c-0.9-10.6-1.7-21.2-2.7-31.8c-0.5-6.1-1.3-12.2-1.9-18.2
		c-1.1,0.5-1.4,1-1.4,1.5c-1.2,15.6-2.3,31.2-3.5,46.8c-0.3,3.7,0,7.5-4.2,9.6c-1.2,0.6-1.8,3.2-1.9,5c-0.2,5.1,0.3,10.3-0.1,15.4
		c-0.6,7.4,2.6,15.7-3.9,22.1c-0.5,0.5-0.5,1.7-0.5,2.5c0.1,9.8,0.3,19.6,0.4,29.4c0.1,6.6,0,13.1,0,19.6c-4.4,0.3-5.2,2.2-5,7.6
		c0.2,9.3,0.4,18.7-0.2,28c-0.2,2.5-2.8,5.5-5,7.1c-2.7,2.1-5.5,0.7-7.2-2.7c-2.8,3.3-5.4,6.3-8.1,9.6c-0.7-1.3-0.9-1.5-1-1.8
		c-0.1-0.6-0.1-1.2-0.1-1.8c-0.4-8.5,1.6-17.3-3.2-25.3c-0.6-1-0.2-2.6-0.2-3.9c0-8.1,0-16.1-0.1-24.2c0-1.3-0.6-3.5-1.3-3.7
		c-4.2-1.1-4.9-4.2-4.6-8.3c-5.6,0-11,0-16.7,0c0.3,4.7-0.5,8.7-6.1,8.6c0,10.3,0,20.3,0,30.3c0,1.2,0.3,2.9-0.3,3.4
		c-3.7,3.3-3,7.6-3,11.8c0,2.9-1.2,3.9-3.9,3.8c-0.3,0-0.5,0-0.8,0C-940-96.5-892.6-27.8-781.8,36.3
		c166.6,96.3,436.6,250.2,504.3,288.7h16.7l45.5-449.4C-215.9-125.8-217-127.1-217.9-127.3z"/>
	
		<linearGradient id="SVGID_39_" gradientUnits="userSpaceOnUse" x1="-1249.124" y1="785.6809" x2="-156.1123" y2="785.6809" gradientTransform="matrix(1 0 0 -1 0 768)">
		<stop  offset="0" style="stop-color:#F3761D"/>
		<stop  offset="1" style="stop-color:#F08D0E"/>
	</linearGradient>
	<path class="st30" d="M-217.9-127.3c-3.8-0.6-7.7-0.2-11.9-0.2c0,3.1,0,5.6,0,8.4c-2.1,0.6-3.9,1.1-5.4,1.5c0,3.8,0.2,7.3-0.1,10.7
		c-0.1,1.1-1.4,2-2.1,3c-0.9-1-2.2-1.9-2.5-3.1c-0.4-1.3,0.3-2.8,0.3-4.3c0-50.2,0-100.3,0-150.5c0-12.9,0-25.8,0-38.7
		c0-2.9-0.1-5.9-3.6-6.5c-2.6-0.4-3.7-1.9-2.9-4.1c0.5-1.3,2.2-2.5,3.6-3.1c1.3-0.6,3.1-0.4,4.5-0.9c0.9-0.3,2.1-1.3,2.1-2.1
		c0.1-1.4-0.3-3.1-1-4.3c-2.4-3.7-5.5-6.9-7.3-10.8c-1.3-2.9-2.6-4.2-5.5-4.1c-4.7,0.1-9.4,0-14.6,0c0-5.8,0-11,0-16.4
		c-3.8-0.8-8.4,0.4-9-5.3c-0.2,1.4-0.5,2.8-0.7,4.4c-6.6,0-13,0-19.5,0c-6.1,0-6.1,0-6.6-6.4c0-0.2-0.3-0.3-0.5-0.4
		c-2,1.9,1.5,6.6-2.9,6.8c-2.8,0.1-6.9,2.2-8.1-4.5c-1,6.4-4.7,3.9-7.3,4.7c-0.4-2.6-0.8-4.8-1.1-7c-0.2,0-0.4,0-0.7,0
		c-0.3,2.2-0.6,4.4-1,6.6c-2.2,0.4-4.3,0.8-6.9,1.3c0,5.4,0,10.8,0,16.6c-6.6,0-12.7,0-19.1,0c1.5,6.9-7.7,7.6-6.4,14.1
		c0,0-0.2,0.1-0.4,0.1c-4,1.2-2.5,4-2,6.9c1.8,0,3.7-0.5,5.1,0.1c1.6,0.7,3.9,2.1,4.1,3.5c0.2,1.4-2,3-3.1,4.5
		c-1,1.4-2.7,2.8-2.8,4.3c-0.2,8.7-0.1,17.5-0.1,26.2c0,48,0,95.9,0,143.9c0,1.5-0.3,3.1-0.4,4.8c-5,0-9.7-0.2-14.2,0.1
		c-3,0.2-4.1-0.9-4.1-3.9c0-27,0-54,0-81c0-2.2,0.5-3.8,2.9-3.8c2.9,0,3-1.8,3-4.1c-0.1-4.5,0-9.1,0-13.6c0-8.6,0-17.3,0-25.9
		c-2-0.1-3.7,0-5.3-0.3c-5.3-1-5.4-1.5-5.2-7.2c0.2-7,0.1-14.1,0.1-21.1c0-2.6-1.2-3.9-3.7-4.3c-1.6-0.3-3.3-1.2-4.4-2.4
		c-2.5-2.9-4.6-6.1-6.8-9.1c-5.7,3.7-6,13.5-15.3,12.1c0,10.9,0,21.2,0,31.7c-1.6,0-2.7,0-3.9,0c-6.3-0.3-7,0.4-6.9,7
		c0,6.3,0.3,12.6,0.3,18.9c0.1,5.9,0,11.8,0,17.5c5.6,1.4,5.6,1.4,5.7,6.6c0.1,6.3,0,12.6,0,18.9c0,6,0,11.9,0,18.3
		c-13.8,0-27,0-40.6,0c0,3.1,0,5.7,0,8.3c-2,0.5-3.8,1-5.9,1.5c0,8.1,0,16.1,0,24c-2.3,0-4.2,0-6.4,0c-0.2-1.7-0.4-3.1-0.5-4.5
		c-0.2-11.8-0.5-23.7-0.6-35.5c-0.1-20.8-0.1-41.7,0-62.5c0-2.9,0-5.9,0.4-8.8c1.1-7.7,2.5-15.4,3.8-23.3c-3-0.4-6.5-0.9-9.9-1.2
		c-6.2-0.6-12.4-1.1-12.7-9.2c-1.2,0.9-2.2,2.4-3.2,2.4c-7-0.7-14.4,2.1-21.3-1.7c-0.5,1.8-1.1,4.5-1.8,7.1
		c-0.9,0.1-1.6,0.1-2.3,0.2c-5.7,0.7-11.3,1.2-17,2.1c-1.8,0.3-3.4,1-3.2,4.1c1.5,21.7,3,43.4,3.9,65.2c0.5,11.8-0.1,23.7-0.5,35.6
		c-0.4,13.9-1.1,27.8-1.9,41.6c-0.1,1.2-1.4,2.4-2.1,3.6c-0.6-1.3-1.7-2.5-1.8-3.8c-0.4-9.8-0.7-19.6-1-29.4c-0.1-5.4,0-10.8,0-16.8
		c-7.1,2.3-13.5,4.3-20.6,6.6c0,5.5,0,11.4,0,17.4c-4.9,0-9.3,0-15,0c0-8.3,0.1-16.4-0.1-24.6c-0.1-2.4-0.1-5.6-1.5-7
		c-2.6-2.7-2.5-5.6-2.5-8.8c0-3.2-0.1-6.4-0.4-9.7c-0.1-1.2-0.7-2.4-1-3.6c-0.4,0.1-0.7,0.2-1.1,0.3c0,5.4,0,10.7,0,16.1
		c0,2.4-0.7,4.4-3.5,4.5c-2.8,0.1-3.5-1.9-3.5-4.3c0-6,0-12-0.1-18c0-0.8-0.4-1.7-0.6-2.5c-0.3,0-0.7,0.1-1,0.1
		c-0.5,8.1-1,16.2-1.5,24.8c-5.3-1.1-5.2,2.2-5.1,5.7c0.1,4.4,0.1,8.8,0,13.2c-0.1,3-0.5,5.9-0.8,8.9c-8.4-1.4-13.3-5.9-14.9-13
		c-2.5,0-5,0-7.4,0c-1.2,5.4,1.1,11.2-2.2,15.9c-0.6,0-1.1,0-1.7,0c-0.3-4.9-0.7-9.8-1-14.7c-5.7-0.3-11-0.5-16.9-0.8
		c0-4.6,0-8.8,0-12.9c-3.1,0-5.7,0-8.8,0c0,17.2,0,34.1,0,50.9c-3,0-5.5,0-8.3,0c0-4,0.1-7.8,0-11.5c-0.1-1.5-0.2-3.6-1.1-4.4
		c-3.8-3.5-3.1-6.4,0.8-9.6c-4.4-3.2-4.4-6.6,0-10.1c-5.7-3.1-2.4-6.5-0.4-9.8c-6-3.4-1.9-6.5,0-9.7c-4.2-3.1-3.9-6.2,0.1-9.1
		c-3.7-3.5-3.4-6.7,0-9.8c-3.9-3.4-3.2-6.8-0.1-10.1c-4.8-3.4-2.2-6.6,0.1-9.7c-5.1-3.2-2.7-6.4-0.3-9.5c-3.7-5-3.7-5.2,0.1-10
		c-4.4-3.2-2.3-6.6,0.4-10.2c-5.5-2.8-2.8-6-0.4-9.1c-0.9-1.3-1.6-2.3-2.3-3.4c-0.7-1.1-1.2-2.2-1.9-3.5c1.9-1,3.6-1.9,5.4-2.8
		c-2.6-2.3-3.9-8.2-2.2-11.2c2.1-3.8,0.3-5.4-2.7-6.5c-1.6-0.6-3.2-0.9-4.8-1.4c-4.6-1.2-9.2-2.3-14.8-3.8
		c11.5-6.5,21.9-12.5,32.4-18.4c-0.1-0.3-0.1-0.7-0.2-1c-7.3,0-14.6,0-22,0c-0.5-2.6-0.9-4.7-1.2-6.8c-19.8,0-39.4,0-59.1,0
		c-0.3,2.4-0.5,4.7-0.8,7.3c-7.2,0-14.1,0-21,0c-0.1,0.3-0.2,0.6-0.3,1c10.3,5.8,20.7,11.5,32,17.8c-2.6,0.7-3.9,1.1-5.2,1.4
		c-5.2,1.3-10.4,2.4-15.5,4c-2.8,0.9-5,2.8-2.2,6.1c2.4,2.8,1.4,4.6-0.2,6.3c-0.1,1.8-0.2,3.7-0.3,5.8c1,0.5,2.3,1.1,4.2,2
		c-1.7,2.6-3.2,5-4.8,7.6c4.5,2.9,2.5,6.3,0,9.7c3.9,3.2,3.5,6.3-0.3,9.4c4.2,3.2,3,6.6,0.1,10.1c5.1,3.1,2.3,6.4,0.2,9.9
		c5.7,3.1,1.9,6.4,0.1,9.4c3.3,4.2,3.3,4.2,0.1,10c3.7,2.9,3.6,6.1-0.7,9.1c4.8,3.4,3.2,6.7,0.3,10c4.1,3.2,3.2,6.4,0,9.7
		c4.1,3.2,3.3,6.5,0,9.8c4.3,3.3,3.2,6.5-0.2,9.6c2.9,2.5,5.1,5,1.4,8.6c-0.5,0.5-0.1,2.5,0.5,3.5c2.3,4,0.1,5.4-3.8,6.8
		c0-4.7,0-9,0-13.8c-8.9,0-17.2,0-26,0c0-7.8,0-15.1,0-22.4c-9.3-0.7-4-9.1-7-13.3c-1.3,3.5-2.8,6.8-3.8,10.2
		c-0.6,2.2-1.5,2.9-3.5,2.6c-2-0.3-3.4-0.9-3.3-3.5c0.1-2.6-0.2-5.2-0.3-7.8c-0.5-0.1-0.9-0.2-1.4-0.3c-1.6,3.6-3.1,7.2-4.9,11.3
		c-4-0.4-4.4,2.6-4.2,6.6c0.2,5.4,0,10.9,0,16.3c0,11.4,0,22.8,0,34.4c-1.7,0-3,0-5.4,0c0-7.6-0.2-15.1,0.1-22.5
		c0.2-4.6-2.8-7.5-5.9-7.8c-7.6-0.8-15.3-0.3-23.3-0.3c0,8.7,0,16.9,0,24.8c-6.5,0-12.5,0-18.9,0c0-20,0-39.4,0-59.2
		c-4.6,0.6-5.1-2-5-5.8c0.2-13.1,0-26.1,0.1-39.2c0-3.5-0.8-7-4.1-7.8c-4.7-1.2-5.5-4.2-5.2-8.4c0.2-3.2,0.7-6.4,0.4-9.6
		c-0.8-9.4,1.6-19.5-5.1-27.8c-0.7-0.9-1-2.5-1.1-3.7c-0.9-10.6-1.7-21.2-2.7-31.8c-0.5-6.1-1.3-12.2-1.9-18.2
		c-1.1,0.5-1.4,1-1.4,1.5c-1.2,15.6-2.3,31.2-3.5,46.8c-0.3,3.7,0,7.5-4.2,9.6c-1.2,0.6-1.8,3.2-1.9,5c-0.2,5.1,0.3,10.3-0.1,15.4
		c-0.6,7.4,2.6,15.7-3.9,22.1c-0.5,0.5-0.5,1.7-0.5,2.5c0.1,9.8,0.3,19.6,0.4,29.4c0.1,6.6,0,13.1,0,19.6c-4.4,0.3-5.2,2.2-5,7.6
		c0.2,9.3,0.4,18.7-0.2,28c-0.2,2.5-2.8,5.5-5,7.1c-2.7,2.1-5.5,0.7-7.2-2.7c-2.8,3.3-5.4,6.3-8.1,9.6c-0.7-1.3-0.9-1.5-1-1.8
		c-0.1-0.6-0.1-1.2-0.1-1.8c-0.4-8.5,1.6-17.3-3.2-25.3c-0.6-1-0.2-2.6-0.2-3.9c0-8.1,0-16.1-0.1-24.2c0-1.3-0.6-3.5-1.3-3.7
		c-4.2-1.1-4.9-4.2-4.6-8.3c-5.6,0-11,0-16.7,0c0.3,4.7-0.5,8.7-6.1,8.6c0,10.3,0,20.3,0,30.3c0,1.2,0.3,2.9-0.3,3.4
		c-3.7,3.3-3,7.6-3,11.8c0,2.9-1.2,3.9-3.9,3.8c-0.3,0-0.5,0-0.8,0C-940-96.5-892.6-27.8-781.8,36.3
		c166.6,96.3,436.6,250.2,504.3,288.7h16.7l45.5-449.4C-215.9-125.8-217-127.1-217.9-127.3z"/>
</g>
<circle class="st31" cx="-934.2" cy="-361.1" r="15.1"/>
<circle class="st32" cx="-923.7" cy="-348" r="15.1"/>
<line class="st33" x1="-426.8" y1="-207" x2="-402.2" y2="-191"/>
<linearGradient id="SVGID_40_" gradientUnits="userSpaceOnUse" x1="299.7993" y1="363.6723" x2="1132.5143" y2="363.6723">
	<stop  offset="1.331947e-07" style="stop-color:#00421B"/>
	<stop  offset="1" style="stop-color:#446B14"/>
	<stop  offset="1" style="stop-color:#00421B"/>
</linearGradient>
<polygon class="st34" points="966.4,-239.5 1132.5,-139.4 466,966.8 299.8,866.7 "/>
<line class="st33" x1="-401.4" y1="-206.5" x2="-426" y2="-190.5"/>
<linearGradient id="SVGID_41_" gradientUnits="userSpaceOnUse" x1="493.0506" y1="942.3613" x2="525.1373" y2="942.3613" gradientTransform="matrix(0.9957 -9.260000e-02 -9.260000e-02 -0.9957 52.1568 820.9388)">
	<stop  offset="0" style="stop-color:#F3761D"/>
	<stop  offset="1" style="stop-color:#F08D0E"/>
</linearGradient>
<line class="st35" x1="456.4" y1="-184.8" x2="487.2" y2="-144.2"/>
<linearGradient id="SVGID_42_" gradientUnits="userSpaceOnUse" x1="433.103" y1="891.884" x2="433.103" y2="891.884" gradientTransform="matrix(1 0 0 -1 0 768)">
	<stop  offset="0" style="stop-color:#F3761D"/>
	<stop  offset="1" style="stop-color:#F08D0E"/>
</linearGradient>
<path class="st36" d="M433.1-123.9"/>
<linearGradient id="SVGID_43_" gradientUnits="userSpaceOnUse" x1="520.5596" y1="939.803" x2="552.6462" y2="939.803" gradientTransform="matrix(-0.9957 -9.260000e-02 9.260000e-02 -0.9957 919.0688 820.9388)">
	<stop  offset="0" style="stop-color:#F3761D"/>
	<stop  offset="1" style="stop-color:#F08D0E"/>
</linearGradient>
<line class="st37" x1="487.2" y1="-184.8" x2="456.4" y2="-144.2"/>
<rect x="-72.2" y="342.4" transform="matrix(0.5161 -0.8565 0.8565 0.5161 -160.9061 655.484)" class="st38" width="1143.6" height="255.5"/>
<linearGradient id="SVGID_44_" gradientUnits="userSpaceOnUse" x1="-1249.124" y1="785.6809" x2="-156.1123" y2="785.6809" gradientTransform="matrix(1 0 0 -1 0 768)">
	<stop  offset="0" style="stop-color:#F3761D"/>
	<stop  offset="1" style="stop-color:#F08D0E"/>
</linearGradient>
<path class="st39" d="M-217.9-127.3c-3.8-0.6-7.7-0.2-11.9-0.2c0,3.1,0,5.6,0,8.4c-2.1,0.6-3.9,1.1-5.4,1.5c0,3.8,0.2,7.3-0.1,10.7
	c-0.1,1.1-1.4,2-2.1,3c-0.9-1-2.2-1.9-2.5-3.1c-0.4-1.3,0.3-2.8,0.3-4.3c0-50.2,0-100.3,0-150.5c0-12.9,0-25.8,0-38.7
	c0-2.9-0.1-5.9-3.6-6.5c-2.6-0.4-3.7-1.9-2.9-4.1c0.5-1.3,2.2-2.5,3.6-3.1c1.3-0.6,3.1-0.4,4.5-0.9c0.9-0.3,2.1-1.3,2.1-2.1
	c0.1-1.4-0.3-3.1-1-4.3c-2.4-3.7-5.5-6.9-7.3-10.8c-1.3-2.9-2.6-4.2-5.5-4.1c-4.7,0.1-9.4,0-14.6,0c0-5.8,0-11,0-16.4
	c-3.8-0.8-8.4,0.4-9-5.3c-0.2,1.4-0.5,2.8-0.7,4.4c-6.6,0-13,0-19.5,0c-6.1,0-6.1,0-6.6-6.4c0-0.2-0.3-0.3-0.5-0.4
	c-2,1.9,1.5,6.6-2.9,6.8c-2.8,0.1-6.9,2.2-8.1-4.5c-1,6.4-4.7,3.9-7.3,4.7c-0.4-2.6-0.8-4.8-1.1-7c-0.2,0-0.4,0-0.7,0
	c-0.3,2.2-0.6,4.4-1,6.6c-2.2,0.4-4.3,0.8-6.9,1.3c0,5.4,0,10.8,0,16.6c-6.6,0-12.7,0-19.1,0c1.5,6.9-7.7,7.6-6.4,14.1
	c0,0-0.2,0.1-0.4,0.1c-4,1.2-2.5,4-2,6.9c1.8,0,3.7-0.5,5.1,0.1c1.6,0.7,3.9,2.1,4.1,3.5c0.2,1.4-2,3-3.1,4.5
	c-1,1.4-2.7,2.8-2.8,4.3c-0.2,8.7-0.1,17.5-0.1,26.2c0,48,0,95.9,0,143.9c0,1.5-0.3,3.1-0.4,4.8c-5,0-9.7-0.2-14.2,0.1
	c-3,0.2-4.1-0.9-4.1-3.9c0-27,0-54,0-81c0-2.2,0.5-3.8,2.9-3.8c2.9,0,3-1.8,3-4.1c-0.1-4.5,0-9.1,0-13.6c0-8.6,0-17.3,0-25.9
	c-2-0.1-3.7,0-5.3-0.3c-5.3-1-5.4-1.5-5.2-7.2c0.2-7,0.1-14.1,0.1-21.1c0-2.6-1.2-3.9-3.7-4.3c-1.6-0.3-3.3-1.2-4.4-2.4
	c-2.5-2.9-4.6-6.1-6.8-9.1c-5.7,3.7-6,13.5-15.3,12.1c0,10.9,0,21.2,0,31.7c-1.6,0-2.7,0-3.9,0c-6.3-0.3-7,0.4-6.9,7
	c0,6.3,0.3,12.6,0.3,18.9c0.1,5.9,0,11.8,0,17.5c5.6,1.4,5.6,1.4,5.7,6.6c0.1,6.3,0,12.6,0,18.9c0,6,0,11.9,0,18.3
	c-13.8,0-27,0-40.6,0c0,3.1,0,5.7,0,8.3c-2,0.5-3.8,1-5.9,1.5c0,8.1,0,16.1,0,24c-2.3,0-4.2,0-6.4,0c-0.2-1.7-0.4-3.1-0.5-4.5
	c-0.2-11.8-0.5-23.7-0.6-35.5c-0.1-20.8-0.1-41.7,0-62.5c0-2.9,0-5.9,0.4-8.8c1.1-7.7,2.5-15.4,3.8-23.3c-3-0.4-6.5-0.9-9.9-1.2
	c-6.2-0.6-12.4-1.1-12.7-9.2c-1.2,0.9-2.2,2.4-3.2,2.4c-7-0.7-14.4,2.1-21.3-1.7c-0.5,1.8-1.1,4.5-1.8,7.1c-0.9,0.1-1.6,0.1-2.3,0.2
	c-5.7,0.7-11.3,1.2-17,2.1c-1.8,0.3-3.4,1-3.2,4.1c1.5,21.7,3,43.4,3.9,65.2c0.5,11.8-0.1,23.7-0.5,35.6
	c-0.4,13.9-1.1,27.8-1.9,41.6c-0.1,1.2-1.4,2.4-2.1,3.6c-0.6-1.3-1.7-2.5-1.8-3.8c-0.4-9.8-0.7-19.6-1-29.4c-0.1-5.4,0-10.8,0-16.8
	c-7.1,2.3-13.5,4.3-20.6,6.6c0,5.5,0,11.4,0,17.4c-4.9,0-9.3,0-15,0c0-8.3,0.1-16.4-0.1-24.6c-0.1-2.4-0.1-5.6-1.5-7
	c-2.6-2.7-2.5-5.6-2.5-8.8c0-3.2-0.1-6.4-0.4-9.7c-0.1-1.2-0.7-2.4-1-3.6c-0.4,0.1-0.7,0.2-1.1,0.3c0,5.4,0,10.7,0,16.1
	c0,2.4-0.7,4.4-3.5,4.5c-2.8,0.1-3.5-1.9-3.5-4.3c0-6,0-12-0.1-18c0-0.8-0.4-1.7-0.6-2.5c-0.3,0-0.7,0.1-1,0.1
	c-0.5,8.1-1,16.2-1.5,24.8c-5.3-1.1-5.2,2.2-5.1,5.7c0.1,4.4,0.1,8.8,0,13.2c-0.1,3-0.5,5.9-0.8,8.9c-8.4-1.4-13.3-5.9-14.9-13
	c-2.5,0-5,0-7.4,0c-1.2,5.4,1.1,11.2-2.2,15.9c-0.6,0-1.1,0-1.7,0c-0.3-4.9-0.7-9.8-1-14.7c-5.7-0.3-11-0.5-16.9-0.8
	c0-4.6,0-8.8,0-12.9c-3.1,0-5.7,0-8.8,0c0,17.2,0,34.1,0,50.9c-3,0-5.5,0-8.3,0c0-4,0.1-7.8,0-11.5c-0.1-1.5-0.2-3.6-1.1-4.4
	c-3.8-3.5-3.1-6.4,0.8-9.6c-4.4-3.2-4.4-6.6,0-10.1c-5.7-3.1-2.4-6.5-0.4-9.8c-6-3.4-1.9-6.5,0-9.7c-4.2-3.1-3.9-6.2,0.1-9.1
	c-3.7-3.5-3.4-6.7,0-9.8c-3.9-3.4-3.2-6.8-0.1-10.1c-4.8-3.4-2.2-6.6,0.1-9.7c-5.1-3.2-2.7-6.4-0.3-9.5c-3.7-5-3.7-5.2,0.1-10
	c-4.4-3.2-2.3-6.6,0.4-10.2c-5.5-2.8-2.8-6-0.4-9.1c-0.9-1.3-1.6-2.3-2.3-3.4c-0.7-1.1-1.2-2.2-1.9-3.5c1.9-1,3.6-1.9,5.4-2.8
	c-2.6-2.3-3.9-8.2-2.2-11.2c2.1-3.8,0.3-5.4-2.7-6.5c-1.6-0.6-3.2-0.9-4.8-1.4c-4.6-1.2-9.2-2.3-14.8-3.8
	c11.5-6.5,21.9-12.5,32.4-18.4c-0.1-0.3-0.1-0.7-0.2-1c-7.3,0-14.6,0-22,0c-0.5-2.6-0.9-4.7-1.2-6.8c-19.8,0-39.4,0-59.1,0
	c-0.3,2.4-0.5,4.7-0.8,7.3c-7.2,0-14.1,0-21,0c-0.1,0.3-0.2,0.6-0.3,1c10.3,5.8,20.7,11.5,32,17.8c-2.6,0.7-3.9,1.1-5.2,1.4
	c-5.2,1.3-10.4,2.4-15.5,4c-2.8,0.9-5,2.8-2.2,6.1c2.4,2.8,1.4,4.6-0.2,6.3c-0.1,1.8-0.2,3.7-0.3,5.8c1,0.5,2.3,1.1,4.2,2
	c-1.7,2.6-3.2,5-4.8,7.6c4.5,2.9,2.5,6.3,0,9.7c3.9,3.2,3.5,6.3-0.3,9.4c4.2,3.2,3,6.6,0.1,10.1c5.1,3.1,2.3,6.4,0.2,9.9
	c5.7,3.1,1.9,6.4,0.1,9.4c3.3,4.2,3.3,4.2,0.1,10c3.7,2.9,3.6,6.1-0.7,9.1c4.8,3.4,3.2,6.7,0.3,10c4.1,3.2,3.2,6.4,0,9.7
	c4.1,3.2,3.3,6.5,0,9.8c4.3,3.3,3.2,6.5-0.2,9.6c2.9,2.5,5.1,5,1.4,8.6c-0.5,0.5-0.1,2.5,0.5,3.5c2.3,4,0.1,5.4-3.8,6.8
	c0-4.7,0-9,0-13.8c-8.9,0-17.2,0-26,0c0-7.8,0-15.1,0-22.4c-9.3-0.7-4-9.1-7-13.3c-1.3,3.5-2.8,6.8-3.8,10.2
	c-0.6,2.2-1.5,2.9-3.5,2.6c-2-0.3-3.4-0.9-3.3-3.5c0.1-2.6-0.2-5.2-0.3-7.8c-0.5-0.1-0.9-0.2-1.4-0.3c-1.6,3.6-3.1,7.2-4.9,11.3
	c-4-0.4-4.4,2.6-4.2,6.6c0.2,5.4,0,10.9,0,16.3c0,11.4,0,22.8,0,34.4c-1.7,0-3,0-5.4,0c0-7.6-0.2-15.1,0.1-22.5
	c0.2-4.6-2.8-7.5-5.9-7.8c-7.6-0.8-15.3-0.3-23.3-0.3c0,8.7,0,16.9,0,24.8c-6.5,0-12.5,0-18.9,0c0-20,0-39.4,0-59.2
	c-4.6,0.6-5.1-2-5-5.8c0.2-13.1,0-26.1,0.1-39.2c0-3.5-0.8-7-4.1-7.8c-4.7-1.2-5.5-4.2-5.2-8.4c0.2-3.2,0.7-6.4,0.4-9.6
	c-0.8-9.4,1.6-19.5-5.1-27.8c-0.7-0.9-1-2.5-1.1-3.7c-0.9-10.6-1.7-21.2-2.7-31.8c-0.5-6.1-1.3-12.2-1.9-18.2
	c-1.1,0.5-1.4,1-1.4,1.5c-1.2,15.6-2.3,31.2-3.5,46.8c-0.3,3.7,0,7.5-4.2,9.6c-1.2,0.6-1.8,3.2-1.9,5c-0.2,5.1,0.3,10.3-0.1,15.4
	c-0.6,7.4,2.6,15.7-3.9,22.1c-0.5,0.5-0.5,1.7-0.5,2.5c0.1,9.8,0.3,19.6,0.4,29.4c0.1,6.6,0,13.1,0,19.6c-4.4,0.3-5.2,2.2-5,7.6
	c0.2,9.3,0.4,18.7-0.2,28c-0.2,2.5-2.8,5.5-5,7.1c-2.7,2.1-5.5,0.7-7.2-2.7c-2.8,3.3-5.4,6.3-8.1,9.6c-0.7-1.3-0.9-1.5-1-1.8
	c-0.1-0.6-0.1-1.2-0.1-1.8c-0.4-8.5,1.6-17.3-3.2-25.3c-0.6-1-0.2-2.6-0.2-3.9c0-8.1,0-16.1-0.1-24.2c0-1.3-0.6-3.5-1.3-3.7
	c-4.2-1.1-4.9-4.2-4.6-8.3c-5.6,0-11,0-16.7,0c0.3,4.7-0.5,8.7-6.1,8.6c0,10.3,0,20.3,0,30.3c0,1.2,0.3,2.9-0.3,3.4
	c-3.7,3.3-3,7.6-3,11.8c0,2.9-1.2,3.9-3.9,3.8c-0.3,0-0.5,0-0.8,0C-940-96.5-892.6-27.8-781.8,36.3
	c166.6,96.3,436.6,250.2,504.3,288.7h16.7l45.5-449.4C-215.9-125.8-217-127.1-217.9-127.3z"/>
<linearGradient id="SVGID_45_" gradientUnits="userSpaceOnUse" x1="-74.6955" y1="234.7325" x2="278.4755" y2="-118.4385" gradientTransform="matrix(1 0 0 -1 0 768)">
	<stop  offset="1.331947e-07" style="stop-color:#00421B"/>
	<stop  offset="1" style="stop-color:#446B14"/>
	<stop  offset="1" style="stop-color:#00421B"/>
</linearGradient>
<ellipse class="st40" cx="101.9" cy="709.9" rx="237.9" ry="261"/>
<linearGradient id="SVGID_46_" gradientUnits="userSpaceOnUse" x1="1026.7288" y1="675.4158" x2="1536.9049" y2="675.4158" gradientTransform="matrix(1 0 0 -1 0 768)">
	<stop  offset="0" style="stop-color:#000000;stop-opacity:5.000000e-02"/>
	<stop  offset="1" style="stop-color:#2B1E21;stop-opacity:0"/>
</linearGradient>
<path class="st41" d="M1194.9-48c0,0-129,121.8-156,196.8s-15,144,99,159s381-111,381-111l18-320.7L1194.9-48z"/>
<linearGradient id="SVGID_47_" gradientUnits="userSpaceOnUse" x1="264.778" y1="689.7105" x2="321.784" y2="689.7105" gradientTransform="matrix(1 0 0 -1 0 768)">
	<stop  offset="1.331947e-07" style="stop-color:#00421B"/>
	<stop  offset="1" style="stop-color:#446B14"/>
	<stop  offset="1" style="stop-color:#00421B"/>
</linearGradient>
<rect x="264.8" y="43.8" class="st42" width="57" height="69"/>
<linearGradient id="SVGID_48_" gradientUnits="userSpaceOnUse" x1="399.792" y1="523.195" x2="487.241" y2="523.195" gradientTransform="matrix(1 0 0 -1 0 768)">
	<stop  offset="1.331947e-07" style="stop-color:#00421B"/>
	<stop  offset="1" style="stop-color:#446B14"/>
	<stop  offset="1" style="stop-color:#00421B"/>
</linearGradient>
<rect x="399.8" y="202.8" class="st43" width="87.4" height="84"/>
<linearGradient id="SVGID_49_" gradientUnits="userSpaceOnUse" x1="529.121" y1="69.7465" x2="615.813" y2="69.7465" gradientTransform="matrix(1 0 0 -1 0 768)">
	<stop  offset="1.331947e-07" style="stop-color:#00421B"/>
	<stop  offset="1" style="stop-color:#446B14"/>
	<stop  offset="1" style="stop-color:#00421B"/>
</linearGradient>
<polygon class="st44" points="529.1,668.7 570.8,727.9 615.8,668.7 "/>
<linearGradient id="SVGID_50_" gradientUnits="userSpaceOnUse" x1="192.771" y1="402.089" x2="293.281" y2="402.089" gradientTransform="matrix(1 0 0 -1 0 768)">
	<stop  offset="1.331947e-07" style="stop-color:#00421B"/>
	<stop  offset="1" style="stop-color:#446B14"/>
	<stop  offset="1" style="stop-color:#00421B"/>
</linearGradient>
<polygon class="st45" points="192.8,334 264.8,397.8 293.3,336 "/>
<image style="overflow:visible;" width="500" height="263" xlink:href="4810C39B.jpg"  transform="matrix(1 0 0 1 -28.201 -348.5419)">
</image>
<circle class="st46" cx="299.8" cy="374.6" r="243"/>
<g>
	<path class="st47" d="M517,374.5c0,120.1-97.2,217.2-217.4,217.2c-119.8,0-217-97.3-217-217.1c0-120,97.3-217.3,217.4-217.2
		C419.8,157.5,516.9,254.7,517,374.5z M506.7,374.4c0-113.9-92.8-206.7-206.6-206.8c-114.2-0.1-207.2,92.6-207.3,206.6
		C92.8,488.7,185.5,581.5,300,581.5C414.1,581.5,506.8,488.6,506.7,374.4z"/>
	<path class="st48" d="M506.7,374.4c0,114.3-92.6,207.1-206.7,207.1c-114.5,0-207.2-92.8-207.1-207.2
		c0.1-114,93.1-206.7,207.3-206.6C414,167.7,506.7,260.5,506.7,374.4z M177.9,484.5c1.2,2.8,6.9,3.9,2.9,8.7c-1,1.3,1,2.9,2.4,3.9
		c2.7,1.9,5.4,3.7,8.3,5.7c-1.9,1.6-3.9,1.6-5.8,2.1c-1.9,0.5-4.3,0.7-4.5,3.2c-0.2,2.6,2.1,3.5,4.1,4.4c6.5,2.9,13.2,3.5,19.9,1.3
		c3.9-1.2,7.1-0.3,10.6,1.7c52,29.5,105,31,158.9,5.2c11.4-5.4,22.8-5.6,33.2,2.8c1.3,1,2.6,1.7,4.1,0.9c1.5-0.8,1.7-2.3,1.7-3.9
		c-0.1-3.5-1.5-6.7-2.8-9.9c2.7-1.1,6.2,1.6,7.7-2.2c1.3-3.1-1.4-4.9-3.1-6.8c-1.6-1.8-4.8-3.5-4.8-5.2c0-1.8,3-3.6,4.7-5.4
		c0.3-0.3,0.2-0.9,0.3-1.4c9.3-7.4,16-16.9,22.2-26.9c0.6-0.8,1.3-1.5,1.8-2.4c22.2-36.8,29-76.4,21-118.5
		C444.3,255.7,357.3,196.5,271,212.8c-94.9,18-153.7,109.5-130.2,202.7c4.7,18.5,12.1,35.9,23.6,51.3
		C167.9,473.4,173.1,478.8,177.9,484.5z"/>
	<path class="st49" d="M164.4,466.8c6.4-5.7,14.5-7.5,22.4-9.6c1.9-0.5,3.8-1,5.7-1.4c1.1,0.6,2.3,1.2,3.5,1.8
		c-0.7,1.2-3,1.1-2.4,2.5c0.5,1.3,2.3,1.9,3.8,1.2c2.7-1.2,5.5-0.6,8.2-0.9c0.8,4.2-0.5,7.9-3,11.9c3.3-0.7,5.8-1.6,8.4-1.8
		c2.6-0.1,5.2,0.5,7.7,0.7c-1.9-1.7-4.1-3.4-6.3-3.5c-5-0.2-5.1-3.1-4.6-6.7c3.7,0.1,7.3,0.1,11,0.2c1,0,2.1,0.1,2.5-1.1
		c0.3-0.7,0.1-1.7-0.5-1.6c-5.1,1-8.3-3.9-13-4c0-0.5-0.1-1-0.1-1.5c8.5-1.1,17-0.2,25.5-0.4c2,0,2.6-1.1,2.2-3
		c3.4-0.4,6.9-0.8,10.3-1.2c0.5,2.5,1.9,3.6,4.5,2.6c1.7-0.7,3.5-0.7,5.4-0.6c4.8,0.3,9.7,0.5,14.5,0.6c2.3,0,4.6-0.2,3.2-3.6
		c3.1-0.2,6.1-0.4,9.2-0.6c1.3,3.6,4.8,2.1,6.6,1.9c3.5-0.4,8.1,3.3,10.5-2.2c1,0,2,0,3.1,0c0.3,0.1,0.9,0.2,0.9,0.2
		c-1.3,6.4,2.5,4.9,6,3.9c0.8-0.2,1.6-0.1,2.5,0c5,0.2,10,0.4,15,0.6c2.5,0.1,4.4-0.5,3.5-3.7c3-0.7,6.1,0,9.1,0.1l0.5,0.1l0.5-0.1
		c0.4,0,0.7,0,1.1,0.1c0,3,1.1,4.6,4.5,3.5c4.3-1.4,8.8-0.4,13.2-0.4c3.7,0,7.7,1.6,11.1-1.4c1.8,0.2,3.6,0.4,5.4,0.6
		c2.6,0.9,2.8,4.1,4.5,5.3c3.2,2.2,7.5,0.4,11.3,1.4c2.1,0.6,2.1-2.7,3.9-3.4c2,3.6,0.7,7.4,0.9,11.2c-2.5,0.7-5.6,0.8-7.1,2.4
		c-0.9,1-7.1,0.9-2.5,4.9c-0.7,0.8-1.5,1.7-2.2,2.5c6-2.2,11.3,0.1,16.9,1.6c-0.4-1.9-2.1-2.8-1.8-4.5c3.9,0,7.8,0.1,11.7,0.1
		c1,0,2.1-0.3,2.1-1.6c-0.1-1.4-1.2-1.3-2.2-1.2c-3.5,0.3-6.6-0.4-8.9-3.3c-1.1-1.4-2.4-0.4-3.6-0.3c0-2,0.1-3.9,0.1-5.9
		c1.6,0.7,3.1,2,5.1,1.3c4.6-1.7,9.2-0.1,13.7-0.2c3.5-0.1,7.1,1.4,10.4-1c3.5,0.6,6.6,2.3,9.9,3.6c-6.2,10-12.9,19.5-22.2,26.9
		c-4-0.7-7.4,2-11.2,2c-7.7,0.1-16.3,4.4-21.9-5.1c-1-1.8-3.4-2.5-5.5-3.3c-4.9-1.8-9.9-2.9-15.1-2.9c-22.7,0.1-45.1,3.2-67.7,5.5
		c-18.2,1.8-36.4,3.7-54.6,5.6c-2.9,0.3-4.2-0.1-4.2-3.5c0-4.1-2.9-6.2-6.8-6.6c-3.3-0.3-6.7-0.1-9.9,0.9
		c-5.5,1.8-11.1,3.4-16.6,5.5c-3.9,1.5-7.6,1.5-11.6,0.2c-4.2-1.4-8.2-3.8-12.9-3.6C173.1,478.8,167.9,473.4,164.4,466.8z
		 M366.7,458.5c-0.3-0.5-0.5-1.1-1.2-0.3C366,458.3,366.4,458.4,366.7,458.5c0.7,4.1,2.7,6.4,7.4,6.1c1.8-0.2,3.7-0.4,5.8,0.3
		c2.2,0.8,3.4-1.9,3.8-3.6c0.2-1-1.8-2.3-3.3-1.8C375.7,460.9,371.2,459.5,366.7,458.5z M300.8,456.4c-0.4-0.2-0.8-0.4-1.2-0.6
		c-0.1,0-0.2,0.2-0.3,0.3c0.5,0.2,0.9,0.3,1.4,0.5c1.6,1.8,2.4,3.9,0.7,7.3c6.8-3.4,14.8,4.1,19.9-4.9
		C314.5,456.3,307.2,459.4,300.8,456.4z M223.7,465.6l-0.2-0.3L223.7,465.6c0.5,0.4,1.3,0.9,1.3,1.4c-0.1,1.1-3.4,0.4-1.7,2.6
		c1.1,1.5,3,1.3,4.6,0.7c3-1.1,6.1-0.7,9.2-0.4c3.6,0.3,7.2,0.5,10.9,0.6c1.3,0.1,3.1-0.1,3-1.8c-0.1-2.1-2-0.7-3-1.1
		c-1.8-0.7-4.5,1.2-5.2-2l0.3-0.3l-0.2,0.3c-2.3,0.4-3.7-1.7-6.1-2C231.9,462.9,228.2,466.1,223.7,465.6z M277.1,464.1
		c-0.4-0.4-0.8-0.6-1.2-0.1c0,0.1,0.4,0.4,0.6,0.7c-2.2,1.7-4.5-0.6-6.7,0.1c-0.7,1.1,4.8,1.7,0.3,3.3c-0.2,0.1,0,1.9,0.4,2.6
		c0.6,1,1.7,0.9,2.7,0.4c4.2-1.8,8.5-1.2,12.9-0.6c3.9,0.5,7.8,0.5,11.7,0.5c1.4,0,3.4-0.3,3.4-2.2c0-2.1-1.8-1.2-3-1.1
		c-2,0.1-3.8-1.1-5.9-0.3c-0.7,0.2-1.2-0.2-1.2-1.1c0-1-2.6-3.6-3.3-3.4C284.4,464.1,280.7,463.2,277.1,464.1z M330.6,462.1
		c1.5,1.5,3.3,2,5.1,1.2c3.5-1.4,7.1-0.8,10.8-0.6c4.1,0.3,8.2,0.5,12.4,0.6c1.4,0,3.5,0.1,3.5-1.9c0-2.1-1.9-1-3.1-1.1
		c-3.1-0.2-6.1-0.9-8.3-3.1c-1.4-1.4-2.7-1.2-4.3-1.4c-5.5-0.8-10.3,2.5-16,1.6c1.2,1.4,2.9,1.1,3.4,2.5
		C332.8,460.4,331.5,460.6,330.6,462.1z M343.1,465.8c-2.9,0.6-5.6,1.5-8.3,1.6c-2.7,0.2-1.3,2.4-1.6,3.3c-0.6,1.7,0.6,2.8,2.9,2.2
		c4.6-1.3,9.3-1,14.1-0.2c2.8,0.5,5.8-0.1,8.7-0.4c0.9-0.1,1.5-0.8,1.5-1.7c-0.1-1.1-1-1.1-1.9-0.9c-3.3,1-6.3-0.4-8.2-2.5
		c-0.9-1.1-1.3-1.8-2.6-1.4C346,466.4,344.4,466.9,343.1,465.8z M278.2,452.6c-2.9,1-5.8,2.3-9,2c0.5,1.4-1.4,1.8-1,3.5
		c0.4,2.1,1.4,2.4,3,2.1c2.1-0.5,3.9-1.3,6.2-1c5.1,0.5,10.4,0.4,15.5,0.5c1.1,0,2.7,0.2,2.7-1.5c0-2-1.4-1-2.5-1
		c-1.8-0.1-4.8,0-5.1-0.8C286,451.3,281.3,454.3,278.2,452.6z M239.9,454.2c0.1,5.5,3.3,6.8,7.4,6.8c1.9,0,3.6-0.5,5.7,0.1
		c2.2,0.7,3.2-2.1,3.7-3.8c0.3-1.1-1.6-2.1-2.9-1.8C249,456.8,244.3,456.5,239.9,454.2z"/>
	<path class="st50" d="M251.1,390.5c-1.6-9.7-3.7-19.2-3.5-29.1c0.1-5.2,1.3-10.2,1.5-15.4c0.1-2.4,1.6-3.8,3.5-2
		c2.7,2.8,5.2,0.6,7.2-0.2c2.3-1,0.8-3.4,0.1-5.2c-0.3-0.7-0.2-2,0.3-2.3c3.6-2.6,2-5.7,1.2-8.9c-0.6-2.3-1.4-3.4-4-4.1
		c-6.9-1.8-8.7-8.9-3.8-14.3c-0.4-0.2-0.9-0.4-1.3-0.7c-2.8-1.7-5.7-3.7-3.5-7.4c2-3.5,5.1-2.5,7.8-0.7c2.5,1.7,2.9,6.6,0.9,9
		c-0.5,0.6-1.2,1.2-1.9,1.6c-3.2,1.8-3.4,4.2-1.7,7.1c1.7,3,4.2,4.3,7.5,3.2c3.2-1.1,3.5-4.2,3.9-6.9c0.2-1.2-1.4-1.7-2-2.4
		c-0.9-1.3-3.6-2.5-1.4-5c1.1-1.2,0.5-3.3-0.4-4c-2.6-1.9-1.4-4.1-0.3-5.6c1.2-1.7-0.1-5.3,2.8-5.1c3.3,0.2,6.7,1.2,9.8,2.6
		c1.7,0.8-0.2,2.9-0.1,4.5c0,0.9-2.8,1.1-0.7,2.4c1.3,0.8,2.6,0.2,3.3-1.2c1.3-2.7,3.1-3.9,6-2.4c1.1,0.5,2,1.3,1.7,2.7
		c-0.3,1.1-1.1,1.8-2.2,1.6c-3.8-0.5-2.4,1.6-1.5,3.1c1.2,2,7,2.2,8.4,0.4c6.5-8.7,17.2-7.1,23.5,3.9c1.1-2.1,2.5-3.5,4.9-3.1
		c2.4,0.5,2.3-1.7,2.7-2.8c0.6-1.7-1.1-1.5-2.2-1.6c-1.3-0.1-2.2-0.8-2.1-2.2c0.2-1.9,1.8-2.3,3.2-2.7c1.7-0.5,2.9,0.4,3.7,1.8
		c1,1.6,1.9,3.7,4.1,2.4c2.4-1.5-1.3-1.7-1.1-3.3c0.3-2.1-0.8-4.5,2.7-4.4c0.7,0,1.3,0,2-0.2c2.3-0.6,5.5-3.6,6.5-1
		c1.2,3,5.4,6.6,1.1,10.6c-0.4,0.4-1.2,2.4,0,3.6c2,2.1-0.2,3.7-1.1,4.9c-2.3,2.9-2.7,6.7,0,8.7c2.8,2,5.7,1.7,8-0.9
		c2.9-3.3,2.6-5.7-0.9-8.7c-3.7-3.1-3.8-8.8-0.1-10.9c2.5-1.4,5.1-1.9,7.1,0.9c1.9,2.7,0.2,4.8-1.6,6.5c-0.9,0.9-2.3,1.3-3.4,1.9
		c5.1,5,3.4,12.2-3.3,14.4c-4.5,1.5-6.9,8.1-3.9,11.9c1.3,1.6,1.5,2.8,0.7,4.4c-0.8,1.6-1.2,3.6,0.6,4.3c1.8,0.7,4.2,2.4,6.1,0.9
		c4.7-3.8,4.2-0.2,4.5,2.8c2,19.4,0.1,38.3-8,56.3c-0.4,0.8-0.7,1.5,0.3,2.1c0,0,0.1-0.1,0.1-0.1c-3.3-0.2-2,4.5-5,4.6
		c0.6-4.6,4.6-7.9,4.9-12.7c6.4-15.5,8.2-31.5,6.1-48.1c-0.3-2.5-1.9-2.2-3.5-2.5c-12.3-2.8-24.3-6.4-35.5-12.4
		c-2.1-1.1-5.1-1.6-5.6-4.7c2.7,0.4,4.4,3.1,7,3.5c3.1,0.5,6.5,7.3,9.6-0.1c0.1-0.2,0.6-0.2,0.9-0.2c3.7,0.6,1.8-1.4,1.2-2.7
		c-0.9-2.2-3.2-3.9-1.6-6.8c1.4-2.4,3.4-3.7,6.5-3.7c-2-2.7-4-4.4-5.4-6.7c-2-3.2-9.3-2.6-10.1,0.9c-1.6,6.5-5.6,10.1-12,11.7
		c1.5,1.6,2.7,2.8,3.8,4c-1.5,1-2.6-0.6-3.9-0.7c-0.7,0.3-1.4,0.7-2,1c-13.5,7.6-27.7,13.5-43,16.4c-3.9,0.7-5,2.6-5.2,5.7
		c-1,15.7-0.1,31.2,6.5,45.8c0,2.1,1.2,3.7,2,5.6c1.6,4.1,5.1,7.3,6.2,11.7c-3.8-1.9-4.4-6.2-6.9-9.1
		C254.5,401.6,253.1,395.9,251.1,390.5z M299.4,326.2c-7.1-1.4-11.1-4.8-12.8-11.2c-1-3.8-7.5-4.9-9.5-1.5c-1.4,2.5-3.8,4.1-5.2,6.5
		c7.2,1.8,7.7,3.3,3.7,13.6c3.3-0.8,5.3,0,3.4,4.3C286.6,335,293,331.6,299.4,326.2z M323.2,339.1c2.7,0.9,5,2,7.3,2.4
		c1.5,0.3,3.8,0.2,4.7-0.7c1.1-1.2-0.2-3.1-1-4.5c-1.3-2.1-3.2-3.8-3.9-6.3c-0.3-0.9-1.1-1.1-2-0.6c-0.6,0.3-1.5,0.7-0.9,1.3
		C331.8,335.9,325.3,336,323.2,339.1z M276.3,338.8c-2-2.7-8.6-3.1-4-8.4c0.5-0.5-0.6-0.9-1.2-1.3c-0.6-0.4-1.4-0.5-1.6,0.3
		c-0.9,4.2-5.8,6.6-5.3,11.3C268.6,342.6,272.2,340.6,276.3,338.8z M343.1,303.9c1.6-0.2,2.5-1.3,3.7-0.5c0.6,0.4,0.8,2.3,2.1,0.9
		c0.4-0.4,0.6-1.2,0.4-1.8c-0.3-1.1-1.3-1.5-2.3-1.6C345.4,300.9,344.1,301.6,343.1,303.9z"/>
	<path class="st51" d="M342.8,406c0,0-0.1,0.1-0.1,0.1c5.6-4.2,6.5-10.5,8-16.8c0.3,2.8,1.4,5.8,0.8,8.3c-0.9,3.9,1.2,6.2,3.7,7.2
		c8.7,3.8,16.6,9,25.2,12.9c5.5,2.5,5.9,2.4,7-3.7c0.9-5.2,1.6-10.5,2.3-15.8c0.3-1.7,0-3.1-1.5-4.4c-7.5-6.7-13.3-14.9-18.4-23.4
		c-0.8-3.1,4.7-3.4,2.9-7c-2.5-5.1,0.6-4.8,4.1-4.1c0.1,10.1,2.7,19,11.5,25c0.7,0.5,1.1,2.6,2.9,0.6c3.2-3.5,3.4-0.2,3.9,2
		c1.9,5.3,4.5,10.1,10,12.5c4.4,1.9,8.9,3.5,13.3,5.3c4.1,1.6,8.1,3.5,12.3,5c1.9,0.7,4,0.2,4.9-1.8c0.8-1.8,0.9-3.8,1.4-5.8
		c2.2-12.3-2.6-22.3-10.4-31.3c-0.9-1.1-2.3-1.9-4-0.8c-1.1,0.7-2.1,0.4-3.2-0.3c-2.6-1.6-5.2-1.5-7.1,1.4c-1.7-5-1.9-5.5-6.6-4
		c-2.8,0.9-3.6-0.1-5.1-1.6c-1.6-1.7-2.4-7-6-1.6c-0.4,0.6-0.8-0.2-1.1-0.4c-2.9-2.1-7.6-1.4-9.1-5.9c-0.1-0.4-1.1-1.5-1.4-0.6
		c-1.7,4.2-4.1-0.8-6,0.6c-2.5-0.7-4.5-2.7-4-4.9c0.6-3,2.9,1,4.5-0.4c-0.3-1.5-0.9-3.1-0.7-4.6c0.2-2-2.1-5.9,3.4-4.7
		c0.9,0.2,3-2.6,5.4-1.9c-0.9-3.4,3.9-4.7,3.2-8.1c6.8,4.1,13.6,8.1,20.3,12.2c9,5.5,17.1,12.1,22.7,21.3c7.4,12.1,8.3,25.4,7.5,39
		c-0.3,5-0.7,9.9-2,14.8c-0.8,3.2-2.4,3.5-4.3,1.1c-2-2.5-3.5-5.7-7.6-4c-0.1,0-0.4,0-0.5-0.1c-4.7-5.9-13-5.8-18-11.1
		c-1-1.1-2.3-2-3.5-2.8c-2.7-1.8-4.5-1.9-4.4,2.2c0.1,8.6-0.8,17.2,0.6,25.9c0.9,5.5-1.2,11.2-1,16.9c0.1,3.2,0.8,5.4,4.1,6.2
		c-1.8,1.1-2.9,2.7-3.8,4.5c0,2-0.1,3.9-0.1,5.9c-0.2,2.2-0.4,4.4,1,6.3c-0.3,1.7,1.4,2.5,1.8,4.5c-5.6-1.5-11-3.8-16.9-1.6
		c0.7-0.8,1.5-1.7,2.2-2.5c9.1-1.2,9.5-1.5,9.6-7.3c-0.1-3.7,1.2-7.6-0.9-11.2c0-0.6,0-1.1-0.1-1.7c0.4-17.6,0.9-35.1-1.7-52.6
		c-2.1,7-4.3,13.8-4.3,21c0,1.9,1.2,4.2-1.2,5.3c-2.1,0.9-3.7-0.7-5.4-1.7c-8.4-4.9-16.9-9.8-25.3-14.9c-4.3-2.6-8.3-5.8-13.5-2.3
		C343.9,406.5,343.3,406.2,342.8,406z"/>
	<path class="st51" d="M251.1,390.5c2,5.4,3.4,11.1,6.6,16c-4.7-1.7-8.7-0.7-12.9,2c-8.2,5.3-16.8,10-25.2,15
		c-1.5,0.9-2.9,1.7-4.6,0.8c-1.2-0.6-1.2-1.8-1.1-3c0.6-7.6-1.9-14.6-3.6-21.7c-0.5,0-0.9,0-1.4,0.1c-0.3,15.9-0.7,31.9-1,47.8
		c0,1.8,0,3.6,0,5.5c0,0.5,0.1,1,0.1,1.6c0,2.2,0,4.4,0,6.6c-0.5,3.6-0.4,6.5,4.6,6.7c2.2,0.1,4.4,1.9,6.3,3.5
		c-2.6-0.3-5.2-0.9-7.7-0.7c-2.6,0.1-5.1,1-8.4,1.8c2.4-4,3.7-7.8,3-11.9c0-2.3,0.6-4.7-1-6.8c2-3.2,1.2-6.8,0.8-10
		c-1.8-12.3,1.2-24.6-0.4-36.8c-0.2-1.3-0.2-2.6-0.3-4c-2.5,0-4.2,1.3-5.8,2.7c-3.4,3-6.9,5.7-11.5,6.7c-1.9,0.4-3.2,1.8-4.5,3
		c-0.9,0.8-2.1,2.2-2.7,2c-4.2-1.4-5.6,1.8-7.6,4.1c-2.2,2.5-3.4,1-3.9-1.5c-1.2-5.7-2-11.5-1.9-17.3c1.8,0.9,2.5,2.4,2.9,4.3
		c0.6,3,2.9,4,5.6,2.9c7.2-2.7,14.3-5.7,21.4-8.5c6.1-2.4,10.2-6.4,11.8-12.9c1.5-3.4,1.8-3.8,3.9-1.9c1.6,1.4,2,0.1,2.7-0.4
		c8.1-5.6,11.4-13.6,10.7-23.2c0-0.8-0.4-1.5-0.6-2.3c-2.1,2.6-5.8-2.7-7.6,1.7c-1.5,3.6-6.5,1.5-8.4,4.7c-4.2-6.3-4.3,1-6.3,1.9
		c-1.1,0.5-1.4,1.8-3.3,0.9c-3.7-1.8-6.7-1.1-7.1,4.2c-2.9-3.7-12.2-3-15.1,0.7c-4.8,6.1-8.3,12.8-8.8,20.7c-0.6,0-1.2,0.1-1.8,0.1
		c0.3-20,9.6-34.7,26.2-45.1c7.1-4.5,14.5-8.7,21.7-13c1.2,1.7,0.9,3.8,3.1,5.6c1.7,1.4,5.2,3.8,5.4,3.7c6.2-2.9,2.9,2.5,3.4,4
		c0.4,1.5-1.3,3.1-0.5,5c1.4,0.3,2.9-2.5,4.2-0.5c1.1,1.6-0.8,2.6-1.6,3.8c-0.8,1.1-1.1,2.1,0.7,2.5c1.6,0.4,1.8,1.8,1.3,2.7
		c-1.9,3.6,0.3,5.9,2.2,8.4c-4.6,8.4-10.3,15.9-17.4,22.3c-1.1,1-1.6,1.8-1.4,3.3c0.9,5.9,1.8,11.8,2.7,17.7
		c0.4,2.8,1.9,3.7,4.4,2.4c9.1-4.8,18.2-9.6,27.3-14.4c1.6-0.9,2.5-2.4,2.1-4.2C249.9,396.6,250.9,393.6,251.1,390.5z"/>
	<path class="st52" d="M388.8,333.2c0.8,3.4-4,4.6-3.2,8.1c-2.4-0.7-4.5,2.1-5.4,1.9c-5.5-1.3-3.2,2.7-3.4,4.7
		c-0.1,1.6,0.5,3.2,0.7,4.6c-1.7,1.4-3.9-2.6-4.5,0.4c-0.5,2.2,1.6,4.2,4,4.9c-0.1,0.6-0.2,1.2-0.3,1.8c-3.4-0.7-6.6-1-4.1,4.1
		c1.8,3.6-3.7,3.9-2.9,7c-0.5,0.8-1,1.5-2,2.9c-2.1-12.6-6.9-24.2-3.6-36.8c0.4-1.4,0.6-2.9,0.6-4.4c0-6.5,1.8-12.4,6.3-17.3
		c3.6-4,5.6-8.9,7.7-13.8c1-2.2,0.8-4-1-5.7c5.4,0.9,8.7-1.6,10.7-6.4c1.7,1.1,1,2.9,1.3,4.4c-3.1,6.5-6.3,13-9.1,19.6
		c-3.6,8.5-2.5,11.9,4.8,17.4C386.5,331.4,387.6,332.3,388.8,333.2z"/>
	<path class="st52" d="M232.9,372.7c-1.9-2.5-4.1-4.8-2.2-8.4c0.5-0.9,0.3-2.3-1.3-2.7c-1.8-0.4-1.5-1.4-0.7-2.5
		c0.8-1.1,2.7-2.1,1.6-3.8c-1.3-2-2.8,0.8-4.2,0.5c-0.8-1.9,0.9-3.5,0.5-5c-0.4-1.5,2.8-6.9-3.4-4c-0.2,0.1-3.6-2.3-5.4-3.7
		c-2.2-1.8-1.9-3.9-3.1-5.6c11.9-9,12.4-10.4,5.1-25.7c-1.9-4-4.6-7.7-5.2-12.3c0.3-2-0.7-4.2,0.9-6c1,6.4,3,8.1,9.5,8
		c-1.9,3.6,0.9,6.6,1.6,9.8c0.4,1.7,1.4,3.4,2.5,4.8c12.4,15.6,11.8,33.1,7.3,51.2c-0.3,1.3-0.4,2.6-0.5,3.9
		c-0.2,1.3-0.1,2.6-1.2,3.7C234,374.1,233.4,373.4,232.9,372.7z"/>
	<path class="st49" d="M389.7,293.5c-0.3-1.5,0.4-3.3-1.3-4.4c-0.1-4.2-3-5.2-6.4-5.5c-0.5-0.4-1-0.8-1.5-1.2c0-4.5,0-8.9,0-13.3
		c1.4,0.6,7.5-0.2,9.5-1.6c-3.4,3.7,1.6,4.3,2,6.8c0.2,1.3,1.3-0.5,2.1-0.6c2.9-0.4,1,1.4,1,2.3c0,0.4-0.1,0.8-0.1,1.2
		c0.3-0.1,0.7-0.3,1-0.4c2.8-0.7,0.6,3.9,3.4,3.2c-1.4,4.4,2.9,1.2,3.5,3.1c-0.7,1.1-2.4,1-3.7,2c1.2,0.5,2.3,1,4,1.8
		c-1.5,0.4-2.5,0.7-3.5,1c3,1.9-3.4,3.7,0,5.8c0.4,0.2-0.7,1.1-1.3,0.9C395.5,293.6,392.3,295.8,389.7,293.5z"/>
	<path class="st49" d="M215.5,293.5c-1.6,1.8-0.6,4-0.9,6c-2.6,2-5.6,0.4-8.4,0.8c-1.5,0.2-0.9-1.3-1.3-1.6
		c-1.4-1.6,0.6-4.8-2.7-5.3c-0.1,0-1,0.2-0.4-0.7c1.2-1.8,0.9-2.3-0.8-3.6c4-0.5,8-5.6,7-9.4c1.4-0.4,3.6,4.4,4.4-0.8
		c0.3-2,5.6-3,7.6-1.8c1.4,0.9,1.7-1.5,2.9-0.8c0,4.4,0,8.7,0,13c-1,0.3-2.2-0.2-3,0.8C218,290.9,216.5,291.8,215.5,293.5z
		 M206.1,296.8l-0.2,0.3l0.4,0L206.1,296.8z"/>
	<path class="st49" d="M208.7,388.5c-1.6,6.4-5.8,10.5-11.8,12.9c-7.2,2.8-14.2,5.8-21.4,8.5c-2.7,1-4.9,0.1-5.6-2.9
		c-0.4-1.9-1.1-3.5-2.9-4.3c0,0,0-0.1,0-0.1c0.7,0,1.3-0.1,2-0.1c1.8-0.5,1.7-5,3.9-3.1c2.7,2.4,3.4,0.2,4.7-0.8
		c1.5-1.1,2.2-3.2,4.3-3.5c1.2,1.9-0.9,3.8,0.8,5.8c3.4-2.2,6.8-4.5,10.3-6.7c1.2-0.8,2.8-2.2,4-1.1c3.1,2.6,4.7,0.1,6.7-1.5
		C205.1,390.2,206.5,388.7,208.7,388.5z"/>
	<path class="st53" d="M398.9,459.1c0.9-1.8,2.1-3.4,3.8-4.5c5.4-1.1,10.7-2.1,15.8,0.9c2.2,1.3,4.5,1.8,7,1.9
		c1.2,0,2.9-0.5,2.6,1.7c-3.2,2.4-6.9,0.9-10.4,1c-4.6,0.1-9.2-1.5-13.7,0.2C401.9,461.2,400.5,459.8,398.9,459.1z"/>
	<path class="st52" d="M380.5,282.4c0.5,0.4,1,0.8,1.5,1.2c-1.2,4.1-5,7-4.9,11.6c-4.2-1.6-8.8,0.1-13.8-1.9
		c2.1-1.2,3.8-1.7,5.6-1.9c1.5-0.1,3.5-0.7,3.5-2.1C372.4,283.6,377.1,283.8,380.5,282.4z"/>
	<path class="st52" d="M219.8,290.3c0.8-1,2-0.5,3-0.8c3.8,0.4,6.9,1.1,7.9,5.9c0.8,3.8,5.6,1.7,8,4.1c-4,2.3-8.6,0-12.5,1.9
		C224.5,297.4,223.9,292.8,219.8,290.3z"/>
	<path class="st54" d="M377.1,295.2c-0.1-4.6,3.7-7.5,4.9-11.6c3.4,0.3,6.3,1.3,6.4,5.5c-2,4.8-5.3,7.3-10.7,6.4
		C377.5,295.5,377.3,295.4,377.1,295.2z"/>
	<path class="st54" d="M219.8,290.3c4.1,2.5,4.7,7.1,6.5,11c-0.4,0.1-0.9,0.1-1.3,0.2c-6.5,0.1-8.5-1.6-9.5-8
		C216.5,291.8,218,290.9,219.8,290.3z"/>
	<path class="st53" d="M204.7,453.7c1.6,2.1,1,4.5,1,6.8c-2.7,0.3-5.5-0.4-8.2,0.9c-1.5,0.7-3.3,0.1-3.8-1.2
		c-0.6-1.4,1.8-1.3,2.4-2.5c-1.2-0.6-2.4-1.2-3.5-1.8c0.9-0.1,1.8-0.2,2.6-0.3c1.2-0.5,3.3,3.1,3.7-0.8
		C200.8,454.3,202.8,454,204.7,453.7z"/>
	<path class="st52" d="M166.9,395.6c0.6,0,1.2-0.1,1.8-0.1c0.1,2.3,0.2,4.6,0.3,6.9c-0.7,0-1.3,0.1-2,0.1
		C166.4,400.2,166.5,397.9,166.9,395.6z"/>
	<path class="st49" d="M198.9,454.7c-0.4,4-2.5,0.3-3.7,0.8C196.3,454.8,197.6,454.5,198.9,454.7z"/>
	<path class="st53" d="M277.1,464.1c3.5-0.9,7.3,0,10.8-1.3c0.7-0.3,3.2,2.4,3.3,3.4c0,0.9,0.5,1.3,1.2,1.1c2-0.8,3.9,0.4,5.9,0.3
		c1.1-0.1,3-0.9,3,1.1c0,1.9-2,2.2-3.4,2.2c-3.9,0-7.8,0-11.7-0.5c-4.4-0.5-8.7-1.1-12.9,0.6c-1,0.4-2.1,0.5-2.7-0.4
		c-0.4-0.7-0.6-2.6-0.4-2.6c4.5-1.6-1-2.2-0.3-3.3c2.3-0.7,4.5,1.6,6.7-0.1C276.7,464.5,276.9,464.3,277.1,464.1z"/>
	<path class="st53" d="M330.6,462.1c0.9-1.5,2.3-1.7,3.5-2.1c-0.5-1.4-2.2-1.1-3.4-2.5c5.8,0.9,10.6-2.4,16-1.6
		c1.7,0.3,2.9,0,4.3,1.4c2.2,2.2,5.2,2.9,8.3,3.1c1.1,0.1,3.1-1.1,3.1,1.1c0,2-2,2-3.5,1.9c-4.1-0.1-8.2-0.4-12.4-0.6
		c-3.6-0.2-7.2-0.8-10.8,0.6C333.8,464.1,332.1,463.7,330.6,462.1z"/>
	<path class="st53" d="M207.9,447.5c5.8-0.5,11.6-1,17.3-1.5c0.3,0,0.6-0.1,0.9-0.1c0,0,0-0.1,0-0.1c-0.4,0.3-0.8,0.5-1.2,0.8
		c1.3,1.2,1.9,3.2,4.3,3c2.1-0.2,4.3,0,6.4,0c0.4,1.8-0.3,2.9-2.2,3c-8.5,0.2-17-0.7-25.5,0.4C207.8,451.2,207.9,449.4,207.9,447.5z
		"/>
	<path class="st53" d="M245.8,448.5c5.8-5,13.2-5.4,20.4-1.3c2.2,1.2,4.7,1.3,7.2,0.2c1.4,3.4-1,3.7-3.2,3.6
		c-4.8-0.1-9.7-0.3-14.5-0.6c-1.9-0.1-3.6-0.1-5.4,0.6C247.8,452.1,246.4,451,245.8,448.5z"/>
	<path class="st53" d="M341.9,447.6c4.5-3.9,14.4-4.2,19.6-0.7c1.9,1.2,4,1.9,6.4,1.3c1.2-0.3,2.3-0.4,2.8,1.1
		c-3.4,3-7.4,1.5-11.1,1.4c-4.4-0.1-8.8-1-13.2,0.4C342.9,452.2,341.9,450.6,341.9,447.6z"/>
	<path class="st53" d="M302.8,446.4c6.8-1.2,13.6-3.7,20.4,0c-0.3,0.2-0.5,0.3-0.8,0.6c-0.1,0.1,0,0.4,0,0.4
		c2.8,0.6,5.5,1.8,8.3,0.1c0,0-0.1-0.1-0.1-0.1c0.8,3.2-1.1,3.8-3.5,3.7c-5-0.2-10-0.4-15-0.6c-0.8,0-1.7-0.2-2.5,0
		c-3.5,1-7.3,2.5-6-3.9C303.7,446.6,303.1,446.4,302.8,446.4z"/>
	<path class="st53" d="M343.1,465.8c1.3,1,2.8,0.6,4.5,0.1c1.3-0.4,1.7,0.3,2.6,1.4c1.9,2.2,4.9,3.5,8.2,2.5
		c0.8-0.3,1.7-0.3,1.9,0.9c0.1,0.9-0.6,1.6-1.5,1.7c-2.9,0.2-5.9,0.8-8.7,0.4c-4.8-0.8-9.4-1.1-14.1,0.2c-2.3,0.6-3.5-0.5-2.9-2.2
		c0.3-0.9-1.1-3.1,1.6-3.3C337.5,467.3,340.2,466.4,343.1,465.8z"/>
	<path class="st53" d="M278.2,452.6c3,1.7,7.8-1.3,9.8,3.7c0.3,0.8,3.3,0.7,5.1,0.8c1.1,0,2.5-1,2.5,1c0,1.6-1.6,1.5-2.7,1.5
		c-5.2-0.1-10.4,0-15.5-0.5c-2.3-0.2-4.2,0.6-6.2,1c-1.6,0.4-2.6,0-3-2.1c-0.4-1.7,1.5-2.1,1-3.5
		C272.4,454.9,275.3,453.6,278.2,452.6z"/>
	<path class="st53" d="M242.7,465.5c0.7,3.2,3.5,1.4,5.2,2c1,0.4,2.9-1,3,1.1c0.1,1.7-1.7,1.8-3,1.8c-3.6-0.2-7.2-0.4-10.9-0.6
		c-3.1-0.2-6.2-0.6-9.2,0.4c-1.6,0.6-3.5,0.8-4.6-0.7c-1.7-2.2,1.6-1.5,1.7-2.6c0-0.4-0.8-0.9-1.2-1.4l0,0c4.4,0.6,8.2-2.6,12.9-2
		C239,463.8,240.4,465.9,242.7,465.5L242.7,465.5z"/>
	<path class="st53" d="M300.8,456.4c6.4,3,13.7-0.1,20.5,2.6c-5.1,9.1-13,1.5-19.9,4.9c1.7-3.5,0.8-5.5-0.7-7.3L300.8,456.4z"/>
	<path class="st53" d="M282.6,446.7c0.7-1.7-0.1-2.8-2.5-4.6c6.5,1.5,11.8,2.8,17.3,1c0.8-0.3,3.3,0.8,2.4,3.2
		c-2.3,5.6-7,1.8-10.5,2.2C287.4,448.8,283.9,450.3,282.6,446.7z"/>
	<path class="st53" d="M376,449.9c6.5,1.3,13,1.5,19.6,1.6c0,0.6,0,1.1,0.1,1.7c-1.8,0.6-1.7,3.9-3.9,3.4c-3.8-1-8.1,0.8-11.3-1.4
		C378.8,454,378.6,450.7,376,449.9z"/>
	<path class="st53" d="M239.9,454.2c4.5,2.3,9.1,2.6,13.9,1.4c1.3-0.3,3.2,0.7,2.9,1.8c-0.5,1.7-1.5,4.5-3.7,3.8
		c-2.1-0.7-3.8-0.1-5.7-0.1C243.2,460.9,239.9,459.7,239.9,454.2z"/>
	<path class="st53" d="M366.7,458.5c4.5,1,9,2.4,13.7,1c1.5-0.5,3.5,0.8,3.3,1.8c-0.4,1.7-1.6,4.4-3.8,3.6c-2.1-0.7-3.9-0.5-5.8-0.3
		C369.5,465,367.5,462.6,366.7,458.5L366.7,458.5z"/>
	<path class="st53" d="M399.8,471.3c-1.4-1.9-1.2-4.1-1-6.3c1.2-0.1,2.4-1.1,3.6,0.3c2.3,2.9,5.4,3.6,8.9,3.3c1-0.1,2.1-0.2,2.2,1.2
		c0,1.3-1,1.6-2.1,1.6C407.5,471.4,403.7,471.4,399.8,471.3z"/>
	<path class="st53" d="M207.9,461.1c0-2.2,0-4.4,0-6.6c4.7,0.1,7.9,5,13,4c0.6-0.1,0.8,0.9,0.5,1.6c-0.5,1.2-1.6,1.1-2.5,1.1
		C215.2,461.3,211.6,461.2,207.9,461.1z"/>
	<path class="st53" d="M396.5,464.3c0,5.8-0.4,6.1-9.6,7.3c-4.6-4,1.6-4,2.5-4.9C390.8,465.1,394,465.1,396.5,464.3z"/>
	<path class="st53" d="M300.7,456.6c-0.5-0.2-0.9-0.3-1.4-0.5c0.1-0.1,0.3-0.3,0.3-0.3c0.4,0.2,0.8,0.4,1.2,0.6
		C300.8,456.4,300.7,456.6,300.7,456.6z"/>
	<path class="st53" d="M366.8,458.5c-0.4-0.1-0.8-0.2-1.2-0.3C366.2,457.4,366.4,458.1,366.8,458.5
		C366.7,458.5,366.8,458.5,366.8,458.5z"/>
	<path class="st53" d="M276.5,464.7c-0.2-0.2-0.6-0.6-0.6-0.7c0.4-0.6,0.8-0.3,1.2,0.1C276.9,464.3,276.7,464.5,276.5,464.7z"/>
	<polygon class="st53" points="223.8,465.5 223.5,465.3 223.7,465.6 	"/>
	<polygon class="st53" points="242.8,465.6 243,465.2 242.7,465.5 	"/>
	<path class="st50" d="M339.8,447.5c0.3,0,0.6,0,0.9,0.1c0,0-0.5,0.1-0.5,0.1L339.8,447.5z"/>
	<path class="st55" d="M288.7,507.1c-16.9,1.8-33.9,3.8-50.9,4.2c-2.4-4.7-0.6-8.9,1.1-13.2c0.4-1,0.6-2.2,0.9-3.3
		c16.6-1.7,33.3-3.4,49.9-5c0.3,1,0.8,2,0.7,2.9c-0.5,2.8-2.2,6.1,3.4,3.8c1.3-0.5,2.9,1.5,3.1,3.2c0.1,1-0.7,1.9-2,1.4
		C288.6,498.9,288.9,503.2,288.7,507.1z M286.7,501.6c0.2,0.1,0.3,0.3,0.5,0.4C287,501.8,286.9,501.6,286.7,501.6
		c-0.9-1.8-1.2-4.1-3.9-4c0,1.8-0.4,3.6,0.5,5.5C284.5,502.5,285.6,502,286.7,501.6z M252.8,504.5c1.8-0.7,2.8,1.3,5.3,1.5
		c-1.6-2.3-1.8-4.6-3.8-6C252.3,501.1,252.9,502.9,252.8,504.5c-0.3,0.3-0.5,0.7-0.8,1c0,0,0.2,0.2,0.4,0.3
		C252.5,505.4,252.6,505,252.8,504.5z M271.7,503.6c0.4,0.2,0.7,0.5,1.1,0.7c0,0,0.2-0.2,0.3-0.3c-0.4-0.2-0.8-0.3-1.3-0.5
		c0-0.5-0.1-1-0.1-1.5c0-2.3-0.1-4.6-3.2-4.3c-2.2,0.2-1.7,2-1.3,3.4c0.5,1.6,0.5,4.2,3.3,1.8C270.6,502.8,271.3,503.3,271.7,503.6z
		 M243.4,499.4c-0.7,3.1-0.9,5.3,0,7.7c2-0.6,0.8-3.1,2.8-3.4c1.8-0.3,1.2,2.9,3.3,2.1c0.3-1.9,0.7-3.8-0.8-6.4
		C247.2,504.9,245.3,502.1,243.4,499.4z"/>
	<path class="st56" d="M379.8,488.5c1.6,0.7,3.3,2.1,2.9,3.6c-1.4,4.9,1.6,3.6,4.1,3.3c10.5-1,20.3,0.4,27.4,9.4
		c0.5,0.6,0.9,1.3,1.8,2.6c-4.5-0.1-8.3-0.6-12.9,0.3c4.5,3.6,7.4,7.4,7.4,13.5c-9.5-8.1-20.4-7.6-31.5-6.1
		c-0.4-1.5,0.4-3.4-1.2-4.6c0.2-2.3,0.3-4.6-2.1-5.9c1.1-0.7,0.9-2,1.2-3C378,497.2,376.8,492.4,379.8,488.5z"/>
	<path class="st57" d="M379.8,488.5c-3,3.9-1.8,8.8-3,13.1c-0.3,1.1,0,2.3-1.2,3c-0.6,0-1.3-0.1-1.9-0.1c-1.1-1.4-2.6-0.8-4-1
		c-5.6-2.2-11.4-0.5-17-1c-4,0-8-0.1-12-0.1c0.2-1.3-0.4-2.9,1-3.9c1.5-0.3,0.5-5.8,4-2c0.4,0.8,0.9,1.7,2,1.6
		c1-0.1,0.9-1.1,0.9-1.8c-0.3-1.8,0.5-3.8-1.1-5.3c-1.5,0.6,0,2.5-1.6,2.9c-1.1-0.8-2.1-1.5-3.2-2.3c0-2.3,0-4.7,0-7
		c10.4-1.2,20.7-2.2,31,0.8C375.9,486.1,378.2,486.7,379.8,488.5z"/>
	<path class="st56" d="M216.7,507.9c-4.7,1.2-9.3,2.5-14,3.4c-5.8,1.2-11.6,0.8-17.2-2.4c3.6-2.5,8.6-1.9,11.5-6.2
		c-3.9-2.7-7.8-5.4-11.8-8.1c11.7,0.1,21.6-6.1,32.5-8.4c1.8,4.1-2.7,4.8-3.9,7.4c-1.1,1.7,0.1,3.1,0.8,4.5
		C216,501.2,217.1,504.4,216.7,507.9z"/>
	<path class="st56" d="M342.7,484.6c0,2.3,0,4.7,0,7c-4.3,1.7,0.1,4.7-1,6.9c-1.4,1-0.8,2.5-1,3.9c-9,1-18,2-27,2
		c0-1.3,0.1-2.6,0.1-3.9c0.7-0.1,1.5-0.1,1.8-1c3.7-1.1,2.2-3.9,1.5-6c-0.7-2.2-1.6-4.2-1.5-6.6C324.6,486,333.6,484.7,342.7,484.6z
		 M330.7,496.4c-0.3,0-0.5-0.1-0.8-0.1c-0.3-0.4-0.6-0.7-0.9-1.1c-0.3-0.9-0.8-2.6-1.6-1.9c-1.5,1.3-0.5,3.4-0.6,5.9
		c0.8-1.7,1.3-2.6,1.7-3.5c0.3,0.4,0.6,0.7,0.9,1.1c0.2,0.4,0.4,1.1,0.7,1.1c0.9,0,0.8-0.7,0.8-1.3c0.1-0.2,0.2-0.4,0.4-0.6
		C331.1,496.2,330.9,496.3,330.7,496.4z M323.4,497.8c0.3,0.5,0.2,1.6,1,1.1c0.6-0.4,0-1.1-0.5-1.5c-0.5-1.7-0.9-3.4-2.7-4.3
		C319.5,496.9,319.5,496.9,323.4,497.8z"/>
	<path class="st58" d="M315.6,487c-0.1,2.3,0.8,4.4,1.5,6.6c0.7,2.1,2.2,4.8-1.5,6c-1.2-0.1-2.5-0.1-3.7-0.2
		c-0.4-2.1,0.4-4.5-1.5-7.6c-0.8,3.6-0.6,5.8,1.3,7.8c0.5,0.9,1.3,0.9,2.1,1c0,1.3-0.1,2.6-0.1,3.9c-8.3,0.9-16.7,1.8-25,2.7
		c0.2-3.9,0-8.2,6.2-6.1c1.3,0.4,2.2-0.4,2-1.4c-0.2-1.7-1.8-3.7-3.1-3.2c-5.5,2.3-3.9-1-3.4-3.8c0.2-0.9-0.4-1.9-0.7-2.9
		C298.4,488.8,307,487.9,315.6,487z M300.8,499.5c1.8-0.7,2.8,1.3,4.8,1.6c-0.6-2.5-1.6-4.5-3.2-6.2
		C300.3,496.1,300.9,497.9,300.8,499.5c-0.3,0.3-0.5,0.7-0.8,1.1c0,0,0.2,0.2,0.4,0.3C300.5,500.4,300.6,500,300.8,499.5z"/>
	<path class="st56" d="M232.5,490.4c0.2,1.6,0.4,3.2,0.7,4.9c-6.9,4.6-8.7,4.7-4.1,13.2c0.5,0.8,0.5,1.9,0.7,2.8
		c-3.1,0.4-6.1,0-9-0.9c0-2.3,0.6-4.6,0.6-6.8c0-2.6,3-5.7-0.6-8.1c0.5-1.5-1.9-4.3,2-4.1C226.1,491.5,229.4,491.9,232.5,490.4z"/>
	<path class="st55" d="M369.7,516.5c-3.4,1-6.8,1.1-10.3,1.1c-5.9-0.1-7.5-2-6.6-8c5.6-1.8,11.2-1.4,16.9-0.1
		C369.7,511.8,369.7,514.1,369.7,516.5z"/>
	<path class="st58" d="M229.8,511.4c-0.2-0.9-0.2-2-0.7-2.8c-4.7-8.5-2.9-8.7,4.1-13.2c2.2-0.2,4.4-0.3,6.7-0.5
		c-0.3,1.1-0.4,2.2-0.9,3.3c-1.8,4.3-3.5,8.6-1.1,13.2C235.1,511.3,232.4,511.3,229.8,511.4z M233,500.1c-0.2,2.3-0.3,4.6-0.6,7.7
		C235,505,235.2,502.7,233,500.1z"/>
	<path class="st56" d="M369.7,509.5c-5.6-1.3-11.3-1.7-16.9,0.1c0-2.3-0.1-4.7-0.1-7c5.7,0.5,11.5-1.2,17,1
		C369.7,505.5,369.7,507.5,369.7,509.5z"/>
	<path class="st57" d="M220.8,495.5c3.6,2.4,0.6,5.4,0.6,8.1c0,2.2-0.6,4.5-0.6,6.8c-1.9,0.1-3.1-1.1-4-2.5c0.4-3.5-0.7-6.7-2.2-9.8
		c-0.7-1.4-1.9-2.7-0.8-4.5C216.2,493.8,218,496.4,220.8,495.5z"/>
	<path class="st58" d="M369.7,509.5c0-2,0-4,0-6c1.4,0.2,2.9-0.4,4,1c-2.5,4.6,0.1,5.7,4,6c1.6,1.2,0.8,3.1,1.2,4.6
		c-3.1,0.4-6,1.6-9.2,1.3C369.7,514.1,369.7,511.8,369.7,509.5z"/>
	<path class="st55" d="M232.5,490.4c-3.1,1.5-6.4,1.1-9.7,1c0.3-2.2,0.7-4.4,1-6.7C231.3,484.2,232.2,484.8,232.5,490.4z"/>
	<path class="st58" d="M223.8,484.8c-0.3,2.2-0.7,4.4-1,6.7c-3.9-0.3-1.6,2.6-2,4.1c-2.8,0.9-4.5-1.8-7-1.9c1.2-2.5,5.7-3.2,3.9-7.3
		C219.6,485.2,221.6,484.8,223.8,484.8z"/>
	<path class="st47" d="M298.2,330.5c0.7-0.3,1.4-0.7,2-1c1.5,3.7,3,7.4,4.7,11c9.8,21,21.9,40.5,37.8,57.5
		c-0.2,4.8-4.3,8.1-4.9,12.7c0,0,0-0.1,0-0.1c-1.5,0.4-2,1.6-2,3c0,0,0-0.1,0-0.1c-1.8,0.8-2.9,2.1-3,4.1c0,0,0-0.1,0-0.1
		c-4,3.3-7.7,7-11.1,11.1c0,0,0.1,0,0.1,0c-0.7,0-1,0.3-1,1c0,0,0,0,0,0c-2.5,0.6-4.7,1.7-6,4c0,0,0,0,0,0c-2.8,0.2-5,1.8-7.2,3.1
		c-5.4,3.3-10.5,3.1-15.9-0.1c-4.2-2.5-8.7-4.7-13.1-7.1c0,0,0.1,0,0.1,0c-1.1-2.1-2.6-3.6-5.1-4c0,0,0,0,0,0c0-0.7-0.4-1-1-1
		c0,0,0,0,0,0c0-0.7-0.4-1-1-1c0,0,0,0,0,0c0-0.7-0.4-1-1-1c0,0,0,0,0,0c0-0.7-0.3-1-1-1c0,0,0,0,0,0c-0.5-2.2-1.5-3.9-4-4.1
		c0,0,0,0,0,0c0.4-1.1,0.1-1.7-1.1-2c0,0,0,0.1,0,0.1c-1.1-4.4-4.6-7.6-6.2-11.7c-0.7-1.8-1.9-3.5-2-5.6
		c9.4-10.4,17.7-21.6,24.9-33.6C287.9,353.9,294.2,342.7,298.2,330.5z M292.7,419.8c4.5,1.5,9,1.6,13.5-0.1c2-0.2,3.8-0.8,5.4-2.1
		c2.3-1.4,5-2.4,5.9-5.3c2.1-1.4,3.8-3.1,4.2-5.7c1-1.2,1.3-2.5,1.5-4c0.3-1.4,0.7-2.7,1-4.1c0-1.3,0-2.7,0.1-4
		c-0.3-1.3-0.5-2.5-0.8-3.8c0.2-1.3-0.5-2.4-1-3.5c-0.4-1.3-0.6-2.7-1.8-3.6c-0.7-1-1.4-2-2.1-3c-0.6-1.3-1.7-2.3-3-3
		c-9.9-8.4-22.4-8.4-32.1-0.1c-1.3,0.7-2.3,1.7-3.1,3c-0.7,1-1.4,2.1-2.1,3.1c-1.2,1-1.7,2.3-1.8,3.8c-1,0.9-1,2.2-1.1,3.5
		c-0.8,1.2-0.9,2.5-0.7,3.9c0,1.2,0,2.4,0,3.7c-0.3,1.5,0.2,2.8,0.9,4.1c0.4,1.5,0.9,2.9,1.3,4.4c1,2.3,2.3,4.4,4.4,5.9
		c1.7,2.1,3.4,4.2,6.1,5.1C289.1,419,290.9,419.5,292.7,419.8z"/>
	<path class="st48" d="M342.7,397.9c-15.9-17-28-36.5-37.8-57.5c-1.7-3.6-3.1-7.3-4.7-11c1.3,0.1,2.4,1.6,3.9,0.7l0.1,0.1
		c0.5,3.2,3.5,3.6,5.6,4.7c11.2,6,23.2,9.6,35.5,12.4c1.6,0.4,3.2,0,3.5,2.5C350.9,366.4,349.1,382.5,342.7,397.9z"/>
	<path class="st48" d="M298.2,330.5c-3.9,12.3-10.2,23.4-16.8,34.3c-7.2,12-15.6,23.1-24.9,33.6c-6.6-14.6-7.5-30.1-6.5-45.8
		c0.2-3.1,1.4-4.9,5.2-5.7C270.4,344,284.6,338,298.2,330.5z"/>
	<path class="st54" d="M304.2,330.1c-1.1-1.2-2.2-2.3-3.8-4c6.5-1.6,10.4-5.2,12-11.7c0.9-3.5,8.2-4.1,10.1-0.9
		c1.4,2.3,3.4,4,5.4,6.7c-3.2,0-5.2,1.3-6.5,3.7c-1.7,2.9,0.7,4.6,1.6,6.8c0.6,1.3,2.4,3.3-1.2,2.7c-0.3,0-0.9,0-0.9,0.2
		c-3.1,7.4-6.4,0.6-9.6,0.1c-2.6-0.4-4.3-3.1-7-3.5C304.3,330.2,304.2,330.1,304.2,330.1z"/>
	<path class="st54" d="M299.4,326.2c-6.4,5.4-12.8,8.8-20.4,11.7c1.9-4.3-0.1-5-3.4-4.3c3.9-10.3,3.5-11.8-3.7-13.6
		c1.4-2.4,3.8-4,5.2-6.5c1.9-3.4,8.5-2.3,9.5,1.5C288.2,321.4,292.2,324.8,299.4,326.2z"/>
	<path class="st59" d="M323.2,339.1c2.1-3.1,8.7-3.1,4.2-8.4c-0.5-0.6,0.3-1,0.9-1.3c0.9-0.4,1.7-0.3,2,0.6c0.7,2.5,2.6,4.2,3.9,6.3
		c0.8,1.4,2.1,3.3,1,4.5c-0.8,0.9-3.1,1-4.7,0.7C328.1,341,325.9,340,323.2,339.1z"/>
	<path class="st59" d="M276.3,338.8c-4.1,1.7-7.7,3.7-12,1.9c-0.5-4.7,4.4-7.1,5.3-11.3c0.2-0.8,1-0.7,1.6-0.3
		c0.5,0.3,1.6,0.7,1.2,1.3C267.7,335.7,274.3,336.1,276.3,338.8z"/>
	<path class="st59" d="M343.1,303.9c1-2.4,2.3-3,3.9-2.9c1,0,2,0.5,2.3,1.6c0.1,0.5-0.1,1.4-0.4,1.8c-1.3,1.4-1.5-0.5-2.1-0.9
		C345.6,302.6,344.7,303.7,343.1,303.9z"/>
	<path class="st54" d="M376.7,359.5c0.1-0.6,0.2-1.2,0.3-1.8c1.8-1.4,4.3,3.5,6-0.6c0.3-0.8,1.3,0.3,1.4,0.6
		c1.5,4.4,6.2,3.7,9.1,5.9c0.3,0.3,0.7,1,1.1,0.4c3.6-5.4,4.4,0,6,1.6c1.5,1.6,2.3,2.5,5.1,1.6c4.7-1.5,4.9-1,6.6,4
		c2-2.9,4.5-3,7.1-1.4c1.1,0.7,2.1,1,3.2,0.3c1.7-1.1,3.1-0.3,4,0.8c7.8,9,12.6,19,10.4,31.3c-1.7-1-0.9-6.8-5.3-2.6
		c-0.9,0.8-2-0.7-2.9-1.4c-1.8-1.3-2.6-3.8-5.1-4.4c-1.8,1.8,0.8,3.9-0.8,5.8c-4.1-1.3-7-4.7-10.8-6.6c-1.4-0.8-3.1-2.4-4.5-1.3
		c-3.1,2.5-4.7,0.3-6.7-1.3c-1.8-1.5-3.5-3.1-5.9-3.3c-0.5-2.3-0.8-5.6-3.9-2c-1.8,2-2.2-0.1-2.9-0.6
		C379.4,378.5,376.8,369.6,376.7,359.5z"/>
	<path class="st49" d="M395.1,387.1c2.5,0.2,4.2,1.9,5.9,3.3c2,1.7,3.6,3.8,6.7,1.3c1.4-1.2,3,0.5,4.5,1.3c3.7,2,6.7,5.3,10.8,6.6
		c1.6-1.9-1-4,0.8-5.8c2.4,0.6,3.3,3.1,5.1,4.4c0.9,0.7,2,2.2,2.9,1.4c4.4-4.1,3.6,1.6,5.3,2.6c-0.4,1.9-0.6,4-1.4,5.8
		c-0.9,2-3,2.5-4.9,1.8c-4.1-1.5-8.2-3.3-12.3-5c-4.4-1.8-8.9-3.4-13.3-5.3C399.6,397.3,397,392.5,395.1,387.1z"/>
	<path class="st54" d="M168.9,402.4c-0.1-2.3-0.2-4.6-0.3-6.9c0.5-7.9,4-14.6,8.8-20.7c2.9-3.7,12.1-4.4,15.1-0.7
		c0.3-5.3,3.4-5.9,7.1-4.2c1.9,0.9,2.2-0.4,3.3-0.9c2-0.9,2.2-8.3,6.3-1.9c1.9-3.2,6.9-1.1,8.4-4.7c1.9-4.4,5.6,0.9,7.6-1.7
		c0.2,0.8,0.6,1.5,0.6,2.3c0.6,9.7-2.7,17.6-10.7,23.2c-0.7,0.5-1.1,1.8-2.7,0.4c-2.1-1.8-2.4-1.5-3.9,1.9c-2.2,0.2-3.6,1.7-5.1,2.9
		c-2,1.5-3.6,4.1-6.7,1.5c-1.3-1.1-2.8,0.4-4,1.1c-3.5,2.2-6.9,4.5-10.3,6.7c-1.6-2,0.5-3.9-0.8-5.8c-2.1,0.3-2.9,2.4-4.3,3.5
		c-1.4,1-2,3.2-4.7,0.8C170.6,397.4,170.8,401.9,168.9,402.4z"/>
	<path class="st46" d="M396,276.7c-0.3,0.1-0.7,0.3-1,0.4c0-0.4,0.1-0.8,0.1-1.2C395.4,276.3,395.7,276.5,396,276.7z"/>
	<polygon class="st46" points="206.1,296.8 206.3,297.1 205.9,297.1 	"/>
	<path class="st50" d="M278.7,429.6c4.4,2.3,8.8,4.5,13.1,7.1c5.4,3.2,10.4,3.4,15.9,0.1c2.2-1.3,4.4-3,7.2-3.1
		c-5.8,6.6-14.9,8.8-22.3,5.1C287.6,436.2,281.9,434.6,278.7,429.6z"/>
	<path class="st50" d="M321.8,428.6c3.3-4,7-7.7,11.1-11.1C330.8,422.9,327.1,426.5,321.8,428.6z"/>
	<path class="st50" d="M330.8,447.5c-2.8,1.7-5.6,0.5-8.3-0.1c0,0-0.1-0.4,0-0.4c0.2-0.2,0.5-0.4,0.8-0.6
		C325.7,446.6,328.4,446,330.8,447.5z"/>
	<path class="st50" d="M314.8,433.6c1.4-2.3,3.5-3.5,6-4C319.7,432.2,317.6,433.5,314.8,433.6z"/>
	<path class="st50" d="M273.7,425.6c2.4,0.4,4,2,5.1,4C276,429.5,274.4,428.1,273.7,425.6z"/>
	<path class="st50" d="M265.7,417.5c2.5,0.2,3.5,1.9,4,4.1C267.1,421.4,266.4,419.5,265.7,417.5z"/>
	<path class="st50" d="M332.8,417.6c0.2-2,1.3-3.3,3-4.1C336.1,415.9,335.2,417.3,332.8,417.6z"/>
	<path class="st50" d="M335.8,413.6c0-1.5,0.5-2.6,2-3C338.1,412.2,337.8,413.5,335.8,413.6z"/>
	<path class="st50" d="M264.7,415.5c1.1,0.3,1.4,1,1.1,2C264.8,417.2,264,416.8,264.7,415.5z"/>
	<path class="st50" d="M270.7,422.6c0.7,0,1,0.4,1,1C270.7,423.9,270.3,423.6,270.7,422.6z"/>
	<path class="st50" d="M269.7,421.6c0.7,0,1,0.4,1,1C269.7,422.9,269.4,422.5,269.7,421.6z"/>
	<path class="st50" d="M271.7,423.6c0.7,0,1,0.4,1,1C271.7,424.9,271.3,424.6,271.7,423.6z"/>
	<path class="st50" d="M272.7,424.6c0.7,0,1,0.4,1,1C272.7,425.9,272.3,425.6,272.7,424.6z"/>
	<path class="st50" d="M320.8,429.6c0-0.7,0.4-1,1-1C322.2,429.7,321.7,429.8,320.8,429.6z"/>
	<path class="st51" d="M243.4,499.4c1.9,2.7,3.8,5.5,5.3,0c1.5,2.6,1.1,4.5,0.8,6.4c-2.1,0.8-1.4-2.4-3.3-2.1
		c-2,0.3-0.8,2.8-2.8,3.4C242.5,504.7,242.6,502.5,243.4,499.4z"/>
	<path class="st51" d="M271.7,503.6c-0.4-0.2-1.1-0.7-1.3-0.6c-2.8,2.4-2.8-0.2-3.3-1.8c-0.4-1.4-0.9-3.2,1.3-3.4
		c3.1-0.3,3.3,2,3.2,4.3c0,0.5,0.1,1,0.1,1.5C271.8,503.5,271.7,503.6,271.7,503.6z"/>
	<path class="st51" d="M252.7,504.5c0.2-1.6-0.5-3.4,1.6-4.5c2,1.4,2.2,3.7,3.8,6C255.5,505.9,254.5,503.8,252.7,504.5L252.7,504.5z
		"/>
	<path class="st51" d="M286.7,501.6c-1.1,0.5-2.3,1-3.4,1.4c-0.9-1.9-0.5-3.7-0.5-5.5C285.5,497.5,285.9,499.8,286.7,501.6
		L286.7,501.6z"/>
	<path class="st51" d="M271.8,503.5c0.4,0.2,0.8,0.3,1.3,0.5c-0.1,0.1-0.3,0.3-0.3,0.3c-0.4-0.2-0.7-0.5-1.1-0.7
		C271.7,503.6,271.8,503.5,271.8,503.5z"/>
	<path class="st51" d="M252.8,504.5c-0.1,0.4-0.3,0.9-0.4,1.3c-0.1-0.1-0.4-0.2-0.4-0.3C252.2,505.2,252.5,504.9,252.8,504.5
		C252.7,504.5,252.8,504.5,252.8,504.5z"/>
	<path class="st51" d="M286.8,501.5c0.1,0.2,0.3,0.3,0.4,0.5C287,501.8,286.9,501.7,286.8,501.5
		C286.7,501.6,286.8,501.5,286.8,501.5z"/>
	<path class="st55" d="M377.7,510.5c-3.9-0.3-6.5-1.5-4-6c0.6,0,1.3,0.1,1.9,0.1C378.1,506,377.9,508.2,377.7,510.5z"/>
	<path class="st55" d="M341.7,498.5c1.1-2.2-3.4-5.2,1-6.9c1.1,0.8,2.1,1.5,3.2,2.3c1.6-0.4,0.1-2.2,1.6-2.9
		c1.7,1.4,0.9,3.5,1.1,5.3c-1,0.1-1.9,0.1-2.9,0.2C342.2,492.7,343.2,498.2,341.7,498.5z"/>
	<path class="st56" d="M345.7,496.6c1-0.1,1.9-0.1,2.9-0.2c0,0.7,0.1,1.7-0.9,1.8C346.7,498.3,346.2,497.4,345.7,496.6z"/>
	<path class="st51" d="M323.4,497.8c-3.9-0.9-3.9-0.9-2.1-4.7c1.8,0.9,2.2,2.6,2.7,4.3C323.8,497.5,323.6,497.7,323.4,497.8z"/>
	<path class="st51" d="M328.6,495.7c-0.5,0.9-0.9,1.9-1.7,3.5c0.1-2.5-0.9-4.6,0.6-5.9c0.7-0.6,1.3,1,1.6,1.9
		C328.9,495.4,328.7,495.6,328.6,495.7z"/>
	<path class="st51" d="M311.9,499.4c1.2,0.1,2.5,0.1,3.7,0.2c-0.3,0.9-1.1,0.9-1.8,1c-0.8-0.1-1.7-0.1-2.1-1L311.9,499.4z"/>
	<path class="st51" d="M329.9,496.3c0.3,0,0.5,0.1,0.8,0.1l0.2,0.2c0,0.6,0.1,1.4-0.8,1.3c-0.2,0-0.4-0.7-0.7-1.1
		C329.6,496.7,329.8,496.5,329.9,496.3z"/>
	<path class="st51" d="M323.9,497.3c0.5,0.4,1.1,1.1,0.5,1.5c-0.8,0.5-0.8-0.6-1-1.1C323.6,497.7,323.8,497.5,323.9,497.3z"/>
	<path class="st51" d="M329.5,496.8c-0.3-0.4-0.6-0.7-0.9-1.1c0.2-0.2,0.3-0.3,0.5-0.5c0.3,0.4,0.6,0.7,0.9,1.1
		C329.8,496.5,329.6,496.7,329.5,496.8z"/>
	<path class="st51" d="M330.7,496.4c0.2-0.1,0.4-0.3,0.5-0.4c-0.1,0.2-0.2,0.4-0.4,0.6C330.9,496.6,330.7,496.4,330.7,496.4z"/>
	<path class="st51" d="M300.7,499.5c0.2-1.6-0.4-3.4,1.6-4.6c1.6,1.7,2.6,3.6,3.2,6.2C303.5,500.8,302.6,498.8,300.7,499.5
		L300.7,499.5z"/>
	<path class="st51" d="M311.7,499.6c-1.9-1.9-2.1-4.1-1.3-7.8c1.9,3.1,1.1,5.5,1.5,7.6C311.9,499.4,311.7,499.6,311.7,499.6z"/>
	<path class="st51" d="M300.8,499.5c-0.1,0.5-0.3,0.9-0.4,1.4c-0.1-0.1-0.4-0.3-0.4-0.3C300.2,500.2,300.5,499.9,300.8,499.5
		C300.7,499.5,300.8,499.5,300.8,499.5z"/>
	<path class="st55" d="M233,500.1c2.2,2.6,2,4.9-0.6,7.7C232.7,504.7,232.9,502.4,233,500.1z"/>
	<path class="st60" d="M274.9,394.6c-0.3-1.4-0.2-2.7,0.7-3.9c7.3,3,14.4,4.1,21.9,0.3c3.1-1.6,6.5,0.1,9.5,1.5
		c3.5,1.6,6.9,1.8,10.5,0c1.9-0.9,4.1-1.3,6.1-2c0.3,1.3,0.5,2.5,0.8,3.8c-0.9,0.3-2,0.4-2.8,0.9c-6,3.2-11.9,3.4-18,0.2
		c-1.8-1-3.9-1.5-5.8-0.5C290,399.2,282.5,397.7,274.9,394.6z"/>
	<path class="st60" d="M324.3,398.4c-0.3,1.4-0.7,2.7-1,4.1c-0.8,0.1-1.8-0.1-2.4,0.3c-5.6,3.2-11.2,3.2-17,0.2
		c-1.9-1-4.3-1.5-6.3-0.5c-7.4,3.9-14.6,2.9-21.8-0.1c-0.7-1.3-1.2-2.6-0.9-4.1c7.7,2.8,15.5,4,23.3,0.1c0.7-0.3,1.8-0.4,2.4-0.1
		C308.5,402,316.4,401,324.3,398.4z"/>
	<path class="st60" d="M320.7,383.5c1.2,0.9,1.4,2.3,1.8,3.6c-6.5,3.4-13.1,4-19.8,0.3c-1.8-1-3.9-1-5.7,0
		c-6.8,3.6-13.6,3.1-20.4-0.1c0.1-1.5,0.6-2.8,1.8-3.8c5.3,2.8,10.5,3.6,16.1,0.6c3.2-1.7,6.9-2,10.1-0.2
		C310.2,387,315.4,386.2,320.7,383.5z"/>
	<path class="st60" d="M281.5,412.7c-2.1-1.5-3.3-3.6-4.4-5.9c6.7,2.5,13.3,3,20-0.4c1.7-0.9,3.7-0.9,5.3-0.1
		c6.5,3.3,12.9,3.3,19.4,0.2c-0.4,2.6-2.1,4.3-4.2,5.7c-4.3,1.7-8.5,0.9-12.5-1c-2.8-1.3-5.7-2-8.6-0.7
		C291.6,412.8,286.7,413.7,281.5,412.7z"/>
	<path class="st59" d="M324.3,398.4c-7.9,2.6-15.8,3.5-23.7-0.2c-0.7-0.3-1.8-0.2-2.4,0.1c-7.8,3.9-15.5,2.7-23.3-0.1
		c0-1.2,0-2.4,0-3.7c7.6,3.1,15.1,4.6,22.9,0.4c1.8-1,4-0.5,5.8,0.5c6.1,3.2,12,3,18-0.2c0.9-0.5,1.9-0.6,2.8-0.9
		C324.4,395.7,324.3,397.1,324.3,398.4z"/>
	<path class="st59" d="M276.7,387.3c6.8,3.2,13.5,3.7,20.4,0.1c1.9-1,3.9-1,5.7,0c6.7,3.7,13.2,3.1,19.8-0.3c0.5,1.1,1.3,2.2,1,3.5
		c-2,0.6-4.2,1-6.1,2c-3.6,1.8-6.9,1.6-10.5,0c-3-1.4-6.4-3.1-9.5-1.5c-7.5,3.8-14.6,2.7-21.9-0.3
		C275.7,389.5,275.6,388.2,276.7,387.3z"/>
	<path class="st59" d="M321.8,406.5c-6.5,3.1-12.9,3.1-19.4-0.2c-1.7-0.9-3.7-0.8-5.3,0.1c-6.6,3.4-13.3,2.9-20,0.4
		c-0.4-1.5-0.9-2.9-1.3-4.4c7.3,3,14.5,4,21.8,0.1c2-1,4.3-0.5,6.3,0.5c5.7,3,11.3,3.1,17-0.2c0.7-0.4,1.6-0.2,2.4-0.3
		C323.2,404,322.8,405.4,321.8,406.5z"/>
	<path class="st59" d="M320.7,383.5c-5.3,2.7-10.5,3.5-16,0.3c-3.2-1.8-6.9-1.5-10.1,0.2c-5.6,3-10.8,2.2-16.1-0.6
		c0.7-1,1.4-2.1,2.1-3.1c4.1,2.6,8.4,2.5,12.7,0.5c4.4-2.1,8.8-2.3,13.2,0c4.1,2.1,8.2,2.1,12.2-0.4
		C319.4,381.4,320,382.5,320.7,383.5z"/>
	<path class="st60" d="M318.7,380.4c-4,2.5-8.1,2.5-12.2,0.4c-4.5-2.4-8.8-2.1-13.2,0c-4.3,2.1-8.5,2.1-12.7-0.5
		c0.7-1.3,1.7-2.3,3.1-3c2.9,1.8,5.8,0.9,8.5-0.4c5.3-2.5,10.4-2.6,15.6,0.1c2.5,1.3,5.2,2.1,8,0.4C317,378.1,318,379.1,318.7,380.4
		z"/>
	<path class="st59" d="M315.7,377.5c-2.7,1.8-5.5,0.9-8-0.4c-5.3-2.7-10.4-2.5-15.6-0.1c-2.7,1.3-5.6,2.1-8.5,0.4
		C293.3,369.1,305.8,369.1,315.7,377.5z"/>
	<path class="st59" d="M281.5,412.7c5.2,1.1,10.1,0.2,14.9-2.1c2.9-1.4,5.8-0.7,8.6,0.7c4,1.9,8.2,2.7,12.5,1
		c-0.9,2.9-3.6,4-5.9,5.3c-8.1-4.9-16.1-4.7-24.1,0.2C284.9,416.8,283.2,414.8,281.5,412.7z"/>
	<path class="st60" d="M287.6,417.7c8-4.8,16-5,24.1-0.2c-1.6,1.3-3.4,1.9-5.4,2.1c-4.5-3.1-9-1.9-13.5,0.1
		C290.9,419.5,289.1,419,287.6,417.7z"/>
	<path class="st59" d="M292.7,419.8c4.5-2,9-3.1,13.5-0.1C301.8,421.4,297.2,421.2,292.7,419.8z"/>
</g>
</svg>
