<?xml version="1.0" encoding="utf-8"?>
<!-- Generator: Adobe Illustrator 16.0.0, SVG Export Plug-In . SVG Version: 6.00 Build 0)  -->
<!DOCTYPE svg PUBLIC "-//W3C//DTD SVG 1.1//EN" "http://www.w3.org/Graphics/SVG/1.1/DTD/svg11.dtd">
<svg version="1.1" id="Layer_1" xmlns="http://www.w3.org/2000/svg" xmlns:xlink="http://www.w3.org/1999/xlink" x="0px" y="0px"
	 width="3500px" height="1500px" viewBox="0 0 3500 1500" enable-background="new 0 0 3500 1500" xml:space="preserve">
<g>
	<g>
		<path fill-rule="evenodd" clip-rule="evenodd" d="M447.101,738.854c0.404,14.412,1.073,28.85,2.465,43.188
			c0.696,7.181-0.135,16.83,13.03,17.031c0-42.091,0-83.455,0-125.562c12.411,0,23.222,0.557,33.958-0.146
			c12.259-0.808,15.638,5.092,15.416,17.027c-0.541,28.968-0.312,57.958-0.053,86.936c0.045,5.14,1.732,10.263,2.663,15.397
			c1.446-0.093,2.893-0.183,4.338-0.273c0.544-5.065,1.525-10.129,1.561-15.197c0.169-24.449-0.65-48.935,0.32-73.343
			c0.79-19.857,1.401-38.85-16.517-51.861c-0.48-0.348-0.284-1.718-0.404-2.613c15.411,11.644,32.251,4.747,50.219,5.166
			c-2.732-5.528-4.721-9.549-8.018-16.222c10.153,6.837,17.888,12.043,27.273,18.362c0.44-4.964,0.915-7.841,0.917-10.718
			c0.048-52.585,0.125-105.17,0.008-157.756c-0.058-25.832-0.23-25.832,23.979-30.025c-0.232-8.954-0.438-18.118,10.72-21.837
			c2.266-0.754,3.068-7.836,3.698-12.136c1.217-8.327,1.831-16.747,5.052-25.02c0.355,4.62,0.999,9.236,1.007,13.853
			c0.022,11.247,3.205,19.6,9.825,29.84c8.731,13.507,11.5,33.147,11.916,50.28c1.364,56.137,0.501,112.335,0.494,168.506
			c0,3.065,0,6.128,0,10.264c37.463,0,74.108,0,111.329,0c1.59,6.399,2.973,11.957,4.682,18.831c16.2,0,32.517,0,49.962,0
			c0,13.336,0,25.337,0,37.902c15.293,0,29.431,0,45.178,0c0-18.539,0-36.837,0-56.522c15.318,0,29.072-0.266,42.81,0.098
			c8.148,0.216,12.074-2.905,11.952-11.782c-0.177-12.92-2.148-26.3,9.157-36.43c1.82-1.634,0.885-6.875,0.892-10.45
			c0.054-30.775,0.031-61.551,0.031-93.511c17.104,0.211,19.645-12.085,18.718-26.532c17.724,0,34.377,0,51.713,0
			c-0.825,12.654,1.188,22.403,14.302,25.75c2.098,0.537,3.808,7.36,3.862,11.305c0.345,24.926,0.145,49.863,0.193,74.794
			c0.008,4.064-1.054,9.053,0.752,12.049c14.823,24.591,8.597,51.876,9.87,78.186c0.088,1.806,0.088,3.626,0.345,5.406
			c0.112,0.773,0.772,1.46,3.043,5.475c8.532-10.102,16.428-19.449,25.078-29.691c5.313,10.379,13.944,14.694,22.339,8.356
			c6.903-5.214,15.062-14.238,15.581-22.087c1.897-28.737,1.429-57.706,0.662-86.555c-0.451-16.966,2.02-22.809,15.541-23.641
			c0-20.145,0.159-40.401-0.038-60.652c-0.294-30.315-0.878-60.628-1.217-90.944c-0.029-2.635-0.065-6.295,1.436-7.767
			c20.018-19.662,10.199-45.161,12.082-68.17c1.287-15.737-0.416-31.726,0.259-47.551c0.23-5.376,2.279-13.542,5.854-15.367
			c12.924-6.595,12.015-18.245,12.854-29.789c3.507-48.173,7.091-96.339,10.729-144.502c0.122-1.614,1.113-3.158,4.366-4.791
			c1.992,18.787,4.245,37.554,5.916,56.374c2.911,32.785,5.386,65.613,8.265,98.402c0.348,3.958,1.031,8.699,3.313,11.531
			c20.656,25.662,13.351,56.848,15.737,86.011c0.802,9.805-0.563,19.833-1.3,29.731c-0.972,13.069,1.544,22.235,16.071,26.028
			c10.181,2.662,12.747,13.202,12.669,24.164c-0.281,40.343,0.248,80.697-0.355,121.031c-0.176,11.746,1.25,19.787,15.529,18.047
			c0,60.918,0,121.055,0,182.801c19.562,0,38.31,0,58.271,0c0-24.435,0-49.616,0-76.595c24.735,0,48.508-1.636,71.896,0.786
			c9.677,1.004,18.807,9.748,18.331,24.116c-0.76,22.947-0.204,45.942-0.204,69.481c7.142,0,11.268,0,16.557,0
			c0-35.726-0.009-70.945,0.004-106.165c0.006-16.771,0.636-33.572-0.105-50.306c-0.547-12.332,0.581-21.863,13.083-20.512
			c5.515-12.635,10.382-23.781,15.245-34.929c1.449,0.278,2.895,0.555,4.345,0.834c0.362,8.067,1.284,16.163,0.933,24.199
			c-0.353,8.083,3.96,9.915,10.133,10.909c6.265,1.006,9.001-1.203,10.857-7.908c2.95-10.656,7.577-20.801,11.633-31.527
			c9.314,12.798-6.946,38.709,21.655,40.988c0,22.69,0,45.15,0,69.238c27.076,0,52.782,0,80.369,0c0,14.797,0,27.997,0,42.665
			c11.889-4.33,18.69-8.58,11.707-21.066c-1.688-3.021-2.992-9.324-1.513-10.75c11.431-11.008,4.708-18.738-4.224-26.423
			c10.479-9.754,13.924-19.525,0.5-29.754c10.165-10.043,12.748-20.134,0.091-30.169c9.982-10.163,12.643-20.186-0.048-29.934
			c8.949-10.288,13.884-20.368-0.977-30.974c13.179-9.366,13.577-19.179,2.013-28.265c9.833-17.938,9.833-17.938-0.347-30.853
			c5.781-9.089,17.381-19.443-0.225-28.942c6.451-10.93,15.048-21.173-0.584-30.708c8.958-10.797,12.525-21.197-0.326-31.16
			c11.571-9.719,12.829-19.166,0.898-29.133c7.929-10.367,13.919-21.051,0.08-29.973c5.072-7.979,9.688-15.241,14.832-23.335
			c-5.804-2.763-9.953-4.736-12.907-6.141c0.376-6.577,0.701-12.243,1.026-17.906c4.91-5.206,8.015-10.877,0.544-19.574
			c-8.826-10.277-1.911-16.105,6.705-18.785c15.728-4.896,31.882-8.283,47.848-12.343c4.074-1.039,8.108-2.243,16.108-4.466
			c-35.077-19.525-67.005-37.298-98.934-55.071c0.272-1.004,0.546-2.005,0.818-3.01c21.311,0,42.623,0,64.866,0
			c0.92-8.227,1.702-15.194,2.541-22.69c60.89,0,121.368,0,182.616,0c1.179,6.471,2.354,12.923,3.827,21.033
			c22.673,0,45.305,0,67.938,0c0.225,1.024,0.451,2.053,0.678,3.078c-32.325,18.387-64.652,36.771-100.123,56.948
			c17.385,4.414,31.628,8,45.851,11.66c5.021,1.291,10.127,2.399,14.977,4.222c9.412,3.532,14.93,8.547,8.352,20.191
			c-5.27,9.329-1.094,27.588,6.802,34.619c-5.399,2.812-10.665,5.56-16.622,8.665c2.07,3.83,3.829,7.389,5.863,10.768
			c2.066,3.433,4.405,6.686,7.044,10.649c-7.337,9.349-15.655,19.214,1.378,28.01c-8.386,11.14-14.904,21.691-1.189,31.625
			c-11.758,14.968-11.754,15.433-0.219,31.017c-7.231,9.485-14.789,19.476,0.96,29.25c-7.298,9.821-15.331,19.686-0.394,30.069
			c-9.604,10.359-11.761,20.689,0.264,31.327c-10.353,9.473-11.502,19.319,0.049,30.148c-12.345,8.992-13.032,18.71-0.183,28.244
			c-5.903,9.884-18.711,19.685-0.133,30.073c-6.29,10.327-16.503,20.774,1.212,30.345c-13.599,10.889-13.499,21.396,0.122,31.354
			c-11.944,9.632-14.216,18.763-2.397,29.519c2.85,2.593,3.301,8.984,3.489,13.685c0.472,11.662,0.154,23.356,0.154,35.679
			c8.898,0,16.54,0,25.786,0c0-51.818,0-104.074,0-157.26c9.529,0,17.527,0,27.116,0c0,12.633,0,25.529,0,39.862
			c18.095,0.887,34.729,1.7,52.229,2.556c1.007,15.113,2.015,30.24,3.025,45.368c1.702-0.009,3.401-0.017,5.104-0.024
			c10.085-14.563,3.131-32.479,6.835-49.161c7.608,0,15.224,0,22.938,0c4.888,21.9,20.07,35.737,46.055,40.019
			c0.827-9.23,2.09-18.335,2.355-27.471c0.392-13.586,0.354-27.203-0.019-40.792c-0.303-10.959-0.438-21.141,15.85-17.693
			c1.646-26.543,3.189-51.523,4.734-76.502c1.022-0.082,2.046-0.162,3.066-0.244c0.599,2.595,1.688,5.185,1.725,7.788
			c0.235,18.567,0.238,37.14,0.36,55.712c0.048,7.641,2.201,13.68,10.936,13.376c8.529-0.294,10.682-6.457,10.72-13.977
			c0.089-16.562,0.028-33.123,0.028-49.685c1.105-0.281,2.211-0.56,3.317-0.839c1.107,3.728,2.903,7.4,3.19,11.196
			c0.748,9.924,1.067,19.9,1.127,29.858c0.058,9.925-0.3,18.926,7.85,27.259c4.285,4.383,4.57,14.227,4.729,21.651
			c0.535,25.082,0.202,50.187,0.202,75.88c17.466,0,31.15,0,46.336,0c0-18.644,0-36.948,0-53.837
			c21.701-6.94,41.635-13.315,63.535-20.319c0,18.764-0.314,35.41,0.069,52.041c0.691,30.286,1.604,60.57,2.971,90.83
			c0.18,3.995,3.577,7.833,5.484,11.743c2.244-3.657,6.258-7.211,6.46-10.988c2.289-42.848,4.391-85.717,5.732-128.608
			c1.146-36.629,2.926-73.367,1.446-109.925c-2.724-67.189-7.333-134.301-11.973-201.384c-0.655-9.461,4.171-11.68,9.742-12.578
			c17.403-2.808,34.969-4.515,52.477-6.622c2.13-0.258,4.286-0.339,7.208-0.563c2.063-8.195,4.124-16.395,5.558-22.086
			c21.243,11.485,44.144,3.099,65.855,5.139c2.935,0.277,6.308-4.521,9.875-7.275c1.101,25.064,20.066,26.815,39.273,28.557
			c10.682,0.97,21.313,2.604,30.705,3.78c-4.054,24.596-8.245,48.297-11.731,72.113c-1.303,8.877-1.278,18.022-1.289,27.046
			c-0.084,64.371-0.22,128.745,0.082,193.113c0.169,36.619,1.096,73.233,1.793,109.848c0.084,4.426,0.865,8.835,1.398,13.939
			c6.63,0,12.508,0,19.74,0c0-24.57,0-49.246,0-74.217c6.505-1.704,11.829-3.095,18.126-4.739c0-8.017,0-16.049,0-25.577
			c41.899,0,82.8,0,125.396,0c0-19.877,0.009-38.266-0.006-56.658c-0.01-19.491,0.074-38.986-0.102-58.477
			c-0.146-16.067-0.285-16.067-17.571-20.262c0-17.63,0.148-35.925-0.038-54.222c-0.201-19.459-0.901-38.914-1.054-58.373
			c-0.163-20.621,2.048-22.661,21.409-21.733c3.418,0.162,6.848,0.021,11.908,0.021c0-32.552,0-64.451,0-98.015
			c28.587,4.221,29.633-25.877,47.275-37.458c6.75,9.238,13.281,19.229,20.938,28.153c3.238,3.77,8.633,6.689,13.44,7.536
			c7.873,1.386,11.612,5.166,11.577,13.303c-0.086,21.754,0.247,43.524-0.442,65.261c-0.552,17.523-0.087,19.126,16.156,22.118
			c4.955,0.914,10.115,0.61,16.413,0.924c0,26.692,0,53.355,0,80.019c-0.003,14.051-0.193,28.107,0.066,42.157
			c0.125,7.028-0.279,12.705-9.121,12.669c-7.383-0.028-8.859,4.939-8.843,11.84c0.151,83.409,0.146,166.819,0.065,250.23
			c-0.007,9.256,3.334,12.606,12.604,11.977c14.182-0.961,28.465-0.252,44.018-0.252c0.467-5.368,1.247-10.144,1.249-14.917
			c0.076-148.204,0.091-296.409,0.08-444.611c-0.002-27.034-0.563-54.078,0.167-81.086c0.124-4.494,5.502-8.886,8.582-13.217
			c3.375-4.749,9.982-9.77,9.495-13.948c-0.482-4.178-7.53-8.731-12.57-10.752c-4.493-1.806-10.169-0.38-15.843-0.38
			c-1.756-9.025-6.333-17.695,6.03-21.332c0.417-0.122,1.19-0.366,1.181-0.417c-4.048-19.978,24.595-22.235,19.83-43.44
			c19.817,0,38.709,0,59.021,0c0-17.848,0-34.391,0-51.201c8.008-1.456,14.678-2.668,21.352-3.895
			c0.993-6.821,1.983-13.625,2.973-20.427c0.685,0.005,1.372,0.008,2.061,0.014c1.123,6.863,2.248,13.727,3.55,21.659
			c8.102-2.441,19.453,5.419,22.541-14.387c3.663,20.406,16.285,14.038,24.947,13.754c13.616-0.448,2.893-15.261,9.004-21
			c0.63,0.495,1.624,0.884,1.66,1.354c1.486,19.633,1.475,19.687,20.404,19.747c19.817,0.064,39.636,0.013,60.103,0.013
			c0.846-5.137,1.552-9.421,2.257-13.703c1.863,17.818,16.279,14.014,27.958,16.463c0,16.726,0,32.853,0,50.657
			c15.857,0,30.45,0.268,45.028-0.101c9.058-0.229,12.895,3.785,16.938,12.62c5.562,12.144,15.356,22.094,22.649,33.468
			c2.313,3.607,3.373,8.806,3.165,13.178c-0.109,2.325-3.83,5.448-6.515,6.425c-4.387,1.597-9.677,0.776-13.808,2.758
			c-4.301,2.058-9.573,5.498-11.031,9.642c-2.413,6.863,1.029,11.302,8.972,12.614c10.627,1.758,10.991,11.225,10.996,20.102
			c0.02,39.87-0.035,79.74-0.026,119.61c0.043,155.018,0.112,310.036,0.092,465.053c0,4.449-2.108,9.279-0.989,13.233
			c1.036,3.647,5.095,6.354,7.819,9.476c2.258-3.092,6.212-6.035,6.466-9.298c0.831-10.622,0.312-21.361,0.312-33.189
			c4.559-1.272,10.182-2.842,16.723-4.67c0-8.42,0-16.398,0-25.876c13.08,0,25.22-1.214,36.907,0.672
			c3.985,0.643,9.151,8.806,9.725,14.02c1.409,12.812,0.46,25.905,0.46,38.884c1.618,0.319,3.236,0.638,4.857,0.956
			c10.068-35.651,20.14-71.3,31.064-109.986c-9.852,3.666-17.532,6.526-27.021,10.056c1.686-16.439,3.224-31.405,4.971-48.457
			c-14.322-1.442-28.622-2.885-44.568-4.49c4.034-19.938,17.554-31.949,32.575-43.565c-4.934-5.455-9.237-10.215-13.575-15.017
			c28.941-23.673,59.184-19.689,86.5,25.374c9.9-2.829,19.713-6.21,29.762-8.37c17.078-3.666,42.012,10.909,49.145,28.161
			c3.129,7.565,0.132,11.361-6.954,14.203c-18.058,7.243-17.518,7.31-8.13,25.231c4.468,8.529,6.956,18.193,11.727,31.084
			c-20.227-2.886-32.121-17.768-49.539-22.701c-4.52,14.806-9.126,29.904-13.971,45.789c-12.557-7.73-11.877-18.86-10.221-29.989
			c-19.129-2.848-31.584,8.636-33.154,30.533c-0.658,9.211-0.107,18.519-0.107,30.39c7.621-4.201,13.262-7.06,18.666-10.34
			c19.248-11.687,27.711-8.394,34.385,13.51c1.128,3.708,2.491,7.336,3.78,11.103c29.049-17.403,32.325-16.556,40.587,7.958
			c-3.17,6.675-6.352,11.517-7.772,16.873c-1.565,5.896-1.512,12.264-2.318,19.884c-6.979-5.432-13.017-10.129-19.513-15.184
			c-5.03,6.296-9.4,11.765-14.414,18.033c-2.262-3.325-4.272-6.274-7.551-11.087c-3.222,7.138-5.813,12.604-8.172,18.182
			c-2.408,5.699-4.588,11.502-7.518,18.904c36.735,0,71.94,0,107.147,0c0,227.573,0,455.144,0,682.716
			c-1125.864,0-2251.725,0-3377.587,0c0-209.438,0-418.876,0-628.316c29.822,0,59.642,0,91.644,0
			c-3.835-10.574-7.233-19.95-11.044-30.458c-3.854,3.422-6.673,5.926-10.13,8.997c-4.143-5.579-8.269-11.135-12.833-17.282
			c-6.064,4.638-11.541,8.825-17.413,13.313c-4.427-11.546-9.552-22.21-12.542-33.497c-2.724-10.274,10.971-23.696,26.285-24.264
			c10.898-0.401,17.529-5.298,23.827-13.341c9.926-12.678,17.716-14.465,32.907-8.595c-1.69,13.464-1.69,13.464,15.731,23.271
			c-5.936-22.559-11.508-43.742-17.809-67.694c-9.085,14.041-16.824,26.002-25.623,39.605c-5.816-16.19-11.013-30.662-16.809-46.801
			c-15.336,7.737-29.602,14.937-45.925,23.17c3.342-19.662,6.377-37.53,9.487-55.822c-6.746-2.599-12.689-4.886-18.627-7.173
			c10.836-31.821,37.798-45.353,69.123-33.609c9.937,3.727,14.756,3.225,20.65-6.544c20.645-34.224,45.415-35.711,82.673-17.163
			c-5.069,4.712-9.799,9.109-15.55,14.453c11.476,14.166,22.737,28.069,36.509,45.071c-18.211,2.216-33.539,4.077-49.728,6.045
			c1.491,15.824,2.943,31.24,4.616,49c-9.401-4.809-16.966-8.678-27.328-13.978c5.248,19.635,9.767,36.701,14.384,53.741
			c1.77,6.528,3.668,13.021,5.681,19.473c2.148,6.886,1.638,15.806,13.543,13.028c10.921-2.546,18.709-5.926,18.058-19.725
			c-0.98-20.765-1.602-41.563-1.783-62.349c-0.084-9.817,1.208-19.648,1.968-30.826c5.017,0,9.262-0.255,13.472,0.047
			c10.695,0.773,20.218,0.717,18.934-15.345c-0.143-1.801,5.858-5.764,9.156-5.952c12.516-0.725,25.103-0.648,37.643-0.219
			c10.594,0.362,17.048-4.711,20.932-14.601c16.43-41.828,33.239-83.496,49.31-125.472c8.475-22.137,5.724-41.737-12.43-58.833
			c-19.119-18.006-27.06-41.309-23.286-68.527c1.362-9.813,1.615-19.795,2.962-29.61c3.152-22.959,3.296-22.939,20.438-41.724
			c0,12.022,0.958,24.145-0.188,36.047c-2.932,30.479,4.961,57.256,23.333,80.71c9.511,12.142,22.909,13.592,36.577,12.024
			c2.47-0.284,5.576-4.685,6.479-7.793c2.5-8.609,3.395-17.739,6.036-26.286c2.932-9.483,7.939-17.396,19.519-15.553
			c11.061,1.761,16.754,8.606,16.303,20.238c-0.241,6.219-1.315,12.481-2.695,18.556c-2.443,10.758,0.556,17.255,11.349,20.042
			c23.289,6.016,30.134,14.692,32.655,40.181c0.754,7.642,1.729,15.336,1.56,22.982c-0.382,17.135,5.5,31.774,14.823,45.333
			c2.38,3.461,4.4,7.194,4.949,12.378c-3.198-1.774-6.398-3.549-9.584-5.318c-7.212,6.521,7.103,46.184,21.898,60.863
			c-5.218-1.679-10.442-3.364-16.063-5.175c-2.867,4.851-4.906,10.161-8.5,13.784c-2.771,2.792-7.58,4.815-11.306,4.544
			c-2.06-0.151-4.667-5.511-5.427-8.914c-1.563-7.01-1.13-14.588-3.208-21.368c-2.792-9.112-7.181-17.692-10.884-26.501
			c-1.306,0.547-2.611,1.095-3.916,1.645c-0.309,1.666-0.918,3.339-0.882,4.997"/>
	</g>
</g>
</svg>
